<?xml version="1.0" encoding="utf-8"?>
<!-- Generator: Adobe Illustrator 19.0.0, SVG Export Plug-In . SVG Version: 6.00 Build 0)  -->
<svg version="1.1" id="Capa_1" xmlns="http://www.w3.org/2000/svg" xmlns:xlink="http://www.w3.org/1999/xlink" x="0px" y="0px"
	 viewBox="280 -225 900 950" style="enable-background:new 280 -225 900 950;" xml:space="preserve">
<style type="text/css">
	.st0{fill:#035C89;}
	.st1{fill:#FFFFFF;}
</style>
<g>
	<circle id="XMLID_1_" class="st0" cx="730" cy="250" r="395.2"/>
</g>
<path class="st1" d="M754.5-66c-1.3,0-2.7,0.2-4,0.5l-5.9,1.6l-0.7,6.1l-0.3,2.3c-2,18-3.2,28.7-7.4,42c-4.7,1.6-9.6,2.6-14.7,3.7
	c-10.1,2.1-20.6,4.3-30.9,10.9c-5.2,3.4-8.7,7.5-11.9,11.1c-3.8,4.4-6.1,6.9-9.7,8c-3.8,1.1-8.7,1.7-15.4,1.7
	c-4.3,0-8.8-0.2-12.7-0.4l-0.4,0c-4.4-0.2-8.5-0.4-12.5-0.4c-8.1,0-17.2,0.8-23.2,6.2c-9.9,8.9-3.9,26.2,3.3,41.9
	c5.5,11.9,13.6,26.5,24,43.3c6.6,10.6,25,12.5,48.4,14.9c12.2,1.3,24.7,2.6,33.6,5.1c12.2,9.7,30.9,47.1,45.1,122.4
	c5,26.3,22.6,44.3,38.2,60.2c10.1,10.3,19.6,20,25.3,31c7.1,13.8,13,31.3,19.2,49.8c2,5.8,4,11.9,6.1,17.8c1.5,4.2,3,8.4,4.5,12.5
	c11,30.3,21.4,59,15.7,89.8c-6.1,2.7-11.3,7.3-14.9,13.3c-6,10-7.3,23.2-3.6,36.4l1.3,4.7l4.7,1.5c10,3.1,20.3,4.7,30.6,4.6
	c8,0,16-1,23.9-2.9l4.1-1l1.9-3.8c2.7-5.5,4.6-11.6,6.4-17.4c2.8-9,5.4-17.5,10.4-21.6l2.1-1.8l0.8-2.7c7-24.2,1.3-44.6-4.2-64.4
	c-3.2-11.6-6.2-22.5-6.9-34.3c-0.5-8.3,1.1-17.3,2.6-26c1.7-9.3,3.2-18.1,1.9-25.4c-1.1-6-4.4-12.1-7.8-18.6c-3.3-6.2-7-13-8.2-19.3
	c5.4,0.1,10.7,0.2,15.8,0.3c9,0.2,17.5,0.3,25.9,0.3c24.6-0.1,50.7-1.5,74.4-11.8c8.1-3.5,15.5-8.4,22.6-13.1
	c11.8-7.8,22.9-15.2,37.1-16.6c1.9-0.2,3.8-0.3,5.9-0.3c5.8,0,11.7,0.7,18.4,1.6c4.3,0.5,9.1,1.1,14.3,1.6
	c8.6,13.3,18.8,24.9,28.6,36c15.5,17.6,30.2,34.2,38.8,57.2l0.7,1.9l1.5,1.4c3.5,3.4,8.3,7.4,13.3,11.6c10.8,9,28.9,24.1,30.6,32.3
	c2.3,11-1.6,16.6-7,24.2c-6,8.6-13.5,19.2-10.5,37.5l0.2,1.5l0.7,1.3c4.7,8.7,14.3,10.1,21.5,11.1c-1.7,10-2.7,21.7,3.3,30.1
	l1.8,2.5l3,0.9c6.7,2,14.3,2.2,20.1,2.2c3.3,0,6.6-0.1,9.8-0.2c3.1-0.1,6.3-0.2,9.3-0.2c2.3,0,4.2,0,6,0.1l4.4,0.2l2.9-3.4
	c19.4-22.5,13.5-50.3,7.7-77.1c-3.3-15.5-6.8-31.6-5.8-47.3l0.3-4.5l-3.5-2.9c-31.3-26.5-53.6-80.6-58-141.1c-0.7-9,1.1-15,3.1-21.3
	c1.5-5,3-10.1,3.3-16.2c0.7-17.8-5.9-33.6-11.7-47.5c-4.3-10.3-8.3-20-9.2-29.4c4.4-8.6,9-26.8,0.5-44.5c-2.7-5.6-7.6-8.7-13.5-8.7
	c-10.2,0-21.8,10.6-28.5,17.9c-4.8-0.8-9.9-1.9-15.1-3c-13.2-2.8-28.2-6-44.4-5.9c-6.4,0-12.5,0.5-18.5,1.5
	c-13.9,2.3-27.4,8.6-40.4,14.7c-15,7-30.5,14.2-46.8,15.7c-3.4,0.3-7.1,0.5-10.8,0.5c-32.1,0.1-74.8-10.4-114.3-28.1
	c-37-16.6-64-36.7-68.9-51.2l-0.2-0.6l-0.3-0.6c-3.8-7.5-9.1-14.3-14.7-21.5c-7.1-9.1-14.3-18.4-18.7-29.6c-3.2-8.3-5.7-17.8-8-26.9
	c-3.8-14.9-7.8-30.2-15.5-41.8C768.5-61.2,761.7-66,754.5-66z"/>
<path class="st1" d="M376.9,195.3c-2.9,8.3-0.2,16.5,2.4,24.4c2,6.1,4.1,12.3,3.6,18.4c-0.8,10.1-2.7,20.2-4.7,31
	c-3.9,20.8-7.9,42.2-4.6,66.2c0.7,5.1,1.9,10.1,3.1,15c1.7,6.9,3.3,13.5,3.3,19.6c0.1,31.8-10.2,69.4-25.5,93.5
	c-3.7,5.8-9,11.6-14.7,17.7c-17.9,19.4-40.2,43.6-26,86.8l1,2.9l2.6,1.7c7.2,4.9,18.5,5.2,21.8,5.2c11,0,18-2.9,20.8-8.6
	c1.9-3.7,1.6-8-0.8-11.7c-6.5-14.2-5.3-30.2,2.8-40c24.2-3.4,42.6-12.2,60.3-20.9c-1.2,3.4-2.6,6.7-4.1,9.8l-2.7,5.7l4.5,4.5
	c4.2,4.3,8.4,10,12.7,16.1c12,16.8,27,37.7,54.1,37.6c6.1,0,12.6-1.1,19.3-3.3l6.7-2.1l-0.4-7c-0.8-14.8-12.5-22.8-22-29.2
	c-7.8-5.3-13.1-9.3-15.5-14.6c2.1-2.2,4.3-4.5,6.4-6.7c12.1-12.4,24.5-25.1,31.6-43.6c0.9-0.1,1.9-0.2,2.9-0.3
	c10.8-1.1,23-2.4,34.3-2.5c5.5,0,10.4,0.3,14.7,0.9c-5.6,14.9-13.3,27.9-21.3,41.5c-9.1,15.4-18.5,31.4-24.8,50.5l-1.6,5l3.5,3.9
	c6.6,7.3,19.7,7.9,23.6,7.9c4.6,0,13.2-0.7,19.1-5.3l3.4-2.6l0.1-4.3c0.6-22.5,15.5-37,31.4-52.4c4.5-4.4,9.2-8.9,13.5-13.7
	c8.5,7.5,15,18.7,21.9,30.5c13.5,23.2,28.9,49.5,63.7,49.4c6,0,12.5-0.9,19.2-2.5l5.1-1.2l1.5-5c3-10-0.5-16.2-4-19.6
	c-3.7-3.6-8.5-5.4-12.8-7c-2.7-1-5.5-2-6.9-3.2c-5-4.3-9.9-17.4-13.9-28c-2.1-5.6-4.1-10.9-6.3-15.7c-2.6-5.6-5.6-11-8.4-16.3
	c-5.6-10.2-11.4-20.8-11.7-28.5c-0.3-7.4,3.7-21.3,7.2-33.6c2.1-7.5,4.1-14.5,5.3-20.5c5.9-29.2,12.8-37,17.5-38.4
	c4.9-1.4,9.5-1.6,13.4-1.6c1.5,0,2.9,0,4.3,0l0.1,0c1.5,0,3,0,4.4,0c6.1,0,12.7-0.5,19.3-3.9c9.5-4.8,27.3-17.6,27.3-31.6
	c0-6.4-5.1-9.8-8.8-12.2c-3.7-2.4-8.3-5.5-11.4-11.5c-5.1-9.8-22.5-26.8-30.5-34.2l-6.3-22.3L697,222l-10.8,9.4
	c-6.1,5.3-9.8,11.7-13.2,17.3c-2.7,4.6-5.3,9-9,12.5c-17.3,16.6-66.3,55.7-99.6,63.5c-23.5,5.5-62.8,9-102.4,9.1
	c-13,0-25.5-0.3-36.3-1c-14-11.4-8.6-41-3.4-69.6c3.8-21,7.4-40.9,3.9-56.2c-3.1-13.5-17.7-25.8-30.7-25.8
	C386.9,181.4,380,186.6,376.9,195.3z"/>
</svg>
