<?xml version="1.0" encoding="utf-8"?>
<!-- Generator: Adobe Illustrator 19.0.0, SVG Export Plug-In . SVG Version: 6.00 Build 0)  -->
<svg version="1.1" id="Capa_1" xmlns="http://www.w3.org/2000/svg" xmlns:xlink="http://www.w3.org/1999/xlink" x="0px" y="0px"
	 viewBox="1867.5 -25 900 950" style="enable-background:new 1867.5 -25 900 950;" xml:space="preserve">
<style type="text/css">
	.st0{fill:#7E3795;}
	.st1{fill:#FFFFFF;}
</style>
<g id="XMLID_1_">
	<circle id="XMLID_4_" class="st0" cx="2317.5" cy="450" r="395.2"/>
</g>
<g>
	<path class="st1" d="M2582,322.1h-8.9v-20.5c0-2.7-1.4-5.2-3.7-6.6c-41-24.6-84-37.1-127.9-37.1c-42.5,0-84.2,11.7-124,34.8
		c-39.8-23.1-81.5-34.8-124-34.8c-43.9,0-87,12.5-127.9,37.1c-2.3,1.4-3.7,3.9-3.7,6.6v20.5h-8.9c-5.8,0-10.5,4.4-10.5,9.8v300.6
		c0,5.4,4.7,9.8,10.5,9.8h529c5.8,0,10.5-4.4,10.5-9.8V331.9C2592.5,326.4,2587.8,322.1,2582,322.1z M2077.3,305.9
		c37.4-21.7,76.5-32.7,116.3-32.7c39.8,0,78.9,11,116.3,32.7v301.4c-37.4-20.2-76.5-30.5-116.3-30.5c-39.8,0-78.8,10.2-116.3,30.5
		V305.9z M2557.7,305.9v301.4c-37.4-20.2-76.5-30.5-116.3-30.5c-39.8,0-78.8,10.2-116.3,30.5V305.9c37.4-21.7,76.5-32.7,116.3-32.7
		C2481.2,273.2,2520.3,284.2,2557.7,305.9z"/>
	<path class="st1" d="M2097.1,346.1c1.4,2.5,4,3.9,6.7,3.9c1.3,0,2.6-0.3,3.8-1c56.3-31.8,115.8-31.8,172,0
		c3.7,2.1,8.4,0.8,10.5-2.9c2.1-3.7,0.8-8.4-2.9-10.5c-30.3-17.1-61.8-25.8-93.6-25.8c0,0,0,0,0,0c-31.7,0-63.2,8.7-93.6,25.8
		C2096.3,337.8,2095,342.4,2097.1,346.1z"/>
	<path class="st1" d="M2287.1,390.8c-30.3-17.1-61.8-25.8-93.6-25.8c0,0,0,0,0,0c-31.7,0-63.2,8.7-93.6,25.8
		c-3.7,2.1-5,6.8-2.9,10.5c1.4,2.5,4,3.9,6.7,3.9c1.3,0,2.6-0.3,3.8-1c56.3-31.8,115.8-31.8,172,0c3.7,2.1,8.4,0.8,10.5-2.9
		C2292.1,397.6,2290.8,392.9,2287.1,390.8z"/>
	<path class="st1" d="M2287.1,442.6c-30.3-17.1-61.8-25.8-93.6-25.8c0,0,0,0,0,0c-31.7,0-63.2,8.7-93.6,25.8
		c-3.7,2.1-5,6.8-2.9,10.5c1.4,2.5,4,3.9,6.7,3.9c1.3,0,2.6-0.3,3.8-1c56.3-31.8,115.8-31.8,172,0c3.7,2.1,8.4,0.8,10.5-2.9
		C2292.1,449.4,2290.8,444.7,2287.1,442.6z"/>
	<path class="st1" d="M2287.1,494.4c-30.3-17.1-61.8-25.8-93.6-25.8c0,0,0,0,0,0c-31.7,0-63.2,8.7-93.6,25.8
		c-3.7,2.1-5,6.8-2.9,10.5c1.4,2.5,4,3.9,6.7,3.9c1.3,0,2.6-0.3,3.8-1c56.3-31.8,115.8-31.8,172,0c3.7,2.1,8.4,0.8,10.5-2.9
		C2292.1,501.2,2290.8,496.5,2287.1,494.4z"/>
	<path class="st1" d="M2290,555.1c2.1-3.7,0.8-8.4-2.9-10.5c-30.3-17.1-61.8-25.8-93.6-25.8c0,0,0,0,0,0c-31.7,0-63.2,8.7-93.6,25.8
		c-3.7,2.1-5,6.8-2.9,10.5c1.4,2.5,4,3.9,6.7,3.9c1.3,0,2.6-0.3,3.8-1c56.3-31.8,115.8-31.8,172,0
		C2283.3,560.1,2288,558.8,2290,555.1z"/>
	<path class="st1" d="M2347.9,335.7c-3.7,2.1-5,6.8-2.9,10.5c1.4,2.5,4,3.9,6.7,3.9c1.3,0,2.6-0.3,3.8-1c56.3-31.8,115.8-31.8,172,0
		c3.7,2.1,8.4,0.8,10.5-2.9c2.1-3.7,0.8-8.4-2.9-10.5c-30.3-17.1-61.8-25.8-93.6-25.8h0C2409.7,309.9,2378.2,318.5,2347.9,335.7z"/>
	<path class="st1" d="M2535.1,390.8c-30.3-17.1-61.8-25.8-93.6-25.8h0c-31.7,0-63.2,8.7-93.6,25.8c-3.7,2.1-5,6.8-2.9,10.5
		c1.4,2.5,4,3.9,6.7,3.9c1.3,0,2.6-0.3,3.8-1c56.3-31.8,115.8-31.8,172,0c3.7,2.1,8.4,0.8,10.5-2.9
		C2540.1,397.6,2538.7,392.9,2535.1,390.8z"/>
	<path class="st1" d="M2535.1,442.6c-30.3-17.1-61.8-25.8-93.6-25.8h0c-31.7,0-63.2,8.7-93.6,25.8c-3.7,2.1-5,6.8-2.9,10.5
		c1.4,2.5,4,3.9,6.7,3.9c1.3,0,2.6-0.3,3.8-1c56.3-31.8,115.8-31.8,172,0c3.7,2.1,8.4,0.8,10.5-2.9
		C2540.1,449.4,2538.7,444.7,2535.1,442.6z"/>
	<path class="st1" d="M2535.1,494.4c-30.3-17.1-61.8-25.8-93.6-25.8h0c-31.7,0-63.2,8.7-93.6,25.8c-3.7,2.1-5,6.8-2.9,10.5
		c1.4,2.5,4,3.9,6.7,3.9c1.3,0,2.6-0.3,3.8-1c56.3-31.8,115.8-31.8,172,0c3.7,2.1,8.4,0.8,10.5-2.9
		C2540.1,501.2,2538.7,496.5,2535.1,494.4z"/>
	<path class="st1" d="M2535.1,544.7c-30.3-17.1-61.8-25.8-93.6-25.8h0c-31.7,0-63.2,8.7-93.6,25.8c-3.7,2.1-5,6.8-2.9,10.5
		c1.4,2.5,4,3.9,6.7,3.9c1.3,0,2.6-0.3,3.8-1c56.3-31.8,115.8-31.8,172,0c3.7,2.1,8.4,0.8,10.5-2.9
		C2540.1,551.4,2538.7,546.8,2535.1,544.7z"/>
</g>
</svg>
