<?xml version="1.0" encoding="utf-8"?>
<!-- Generator: Adobe Illustrator 19.0.0, SVG Export Plug-In . SVG Version: 6.00 Build 0)  -->
<svg version="1.1" id="Capa_1" xmlns="http://www.w3.org/2000/svg" xmlns:xlink="http://www.w3.org/1999/xlink" x="0px" y="0px"
	 viewBox="1867.5 -25 900 950" style="enable-background:new 1867.5 -25 900 950;" xml:space="preserve">
<style type="text/css">
	.st0{fill:#FF1900;}
	.st1{fill:#FFFFFF;}
</style>
<g id="XMLID_1_">
	<circle id="XMLID_4_" class="st0" cx="2317.5" cy="450" r="395.2"/>
</g>
<g>
	<circle class="st1" cx="2304.9" cy="235.5" r="46.8"/>
	<path class="st1" d="M2520.7,337.6l10.1,22.2c5.5-1.5,11.1-2.3,16.7-2.3c5.6,0,11.2,0.8,16.7,2.3l10.1-22.2c1.6-3.5-1-7.5-4.8-7.5
		h-44C2521.7,330.2,2519.1,334.1,2520.7,337.6z"/>
	<path class="st1" d="M2536.4,419.2c0,1.8,0.5,3.4,1.6,4.7c1,1.3,2.9,2.5,5.5,3.4v-15.8c-2.6,0.9-4.4,1.9-5.5,3.2
		C2536.9,416,2536.4,417.5,2536.4,419.2z"/>
	<path class="st1" d="M2552.4,452.4v19.7c3.5-0.8,6-2.1,7.7-3.9c1.6-1.8,2.4-3.8,2.4-6c0-1.9-0.7-3.7-2.1-5.3
		C2559.1,455.3,2556.4,453.8,2552.4,452.4z"/>
	<path class="st1" d="M2630.4,444.7c-8.7-44.9-45.8-81.4-82.9-81.4c-37.1,0-74.2,36.4-82.9,81.4c-8.7,44.9,28.4,81.4,82.9,81.4
		C2602,526,2639.1,489.6,2630.4,444.7z M2582.7,471.4c-2,3.7-4.5,6.8-7.6,9.4c-3.1,2.5-6.4,4.3-9.9,5.4c-3.5,1.1-7.8,1.8-12.8,2
		v11.6h-9v-11.6c-6-0.5-10.9-1.5-14.7-2.9c-3.8-1.4-7-3.4-9.7-5.9c-2.7-2.5-4.8-5.2-6.3-8.1c-1.5-2.9-2.6-6.4-3.3-10.5l24.9-2.9
		c0.7,4.1,1.7,7,3,8.8c1.3,1.8,3.3,3.4,6.2,4.8v-21.7c-8.3-2.3-14.2-4.3-17.6-6c-3.5-1.7-6.5-4.4-9-8.1c-2.5-3.7-3.8-8.2-3.8-13.6
		c0-7.3,2.6-13.4,7.7-18.3c5.1-4.9,12.7-7.6,22.8-8.2v-6.1h9v6.1c9.2,0.6,16.2,2.7,21.1,6.5c4.9,3.8,8,8.9,9.5,15.5l-22.9,3.6
		c-1.1-2.9-2.2-4.9-3.1-6.1c-0.9-1.1-2.5-2.3-4.6-3.4v17.8c12.5,3.3,20.8,6.8,25,10.5c5.5,5,8.3,11.3,8.3,18.9
		C2585.7,463.5,2584.7,467.6,2582.7,471.4z"/>
	<path class="st1" d="M2070.8,270.6c5.5-1.5,11.1-2.3,16.7-2.3c5.6,0,11.2,0.8,16.7,2.3l10.1-22.2c1.6-3.5-1-7.5-4.8-7.5h-44
		c-3.8,0-6.4,4-4.8,7.5L2070.8,270.6z"/>
	<path class="st1" d="M2076.4,330c0,1.8,0.5,3.4,1.6,4.7c1,1.3,2.9,2.5,5.5,3.4v-15.8c-2.6,0.9-4.4,1.9-5.5,3.2
		C2076.9,326.7,2076.4,328.2,2076.4,330z"/>
	<path class="st1" d="M2092.4,363.1v19.7c3.5-0.8,6-2.1,7.7-3.9c1.6-1.8,2.4-3.8,2.4-6c0-1.9-0.7-3.7-2.1-5.3
		C2099,366,2096.3,364.5,2092.4,363.1z"/>
	<path class="st1" d="M2515.5,340c-1.6-3.4-1.3-7.3,0.8-10.5c2-3.2,5.5-5.1,9.2-5.1h35.4c0.2-2.7,0.1-5.5-0.7-8.3
		c-3.5-12.1-16.1-19.2-28.3-15.7l-112.9,32.3c0,0-82.3-33.3-87.5-33.3h-53.3c-1.5,0-132.4-33.3-159.5-83.2c-6-11.1-19.9-15.2-31-9.2
		c-10.2,5.5-14.4,17.6-10.4,28.1h32.2c3.8,0,7.2,1.9,9.2,5.1c2,3.2,2.3,7.1,0.8,10.5l-9.8,21.5c17.5,6.1,33.8,19.1,46.1,36
		c37.6,19.8,78.5,30.5,105.4,35.9v142.6c0,1.5-51.1,253.6-51.1,253.6c-2.9,13.9,6,27.5,20,30.4c1.8,0.4,3.5,0.5,5.3,0.5
		c11.9,0,22.6-8.4,25.2-20.5l40.4-194.6l10.9,190.9c0.8,13.7,12.1,24.2,25.6,24.2c0.5,0,1,0,1.5,0c14.2-0.8,25-13,24.2-27.1
		c0,0-14.2-256.3-14.2-257.4V356.1l61.8,22.2c2.5,0.9,5.1,1.3,7.7,1.3c2.1,0,4.2-0.3,6.3-0.9l96.1-27.5L2515.5,340z"/>
	<path class="st1" d="M2087.5,274c-37.1,0-74.2,36.4-82.9,81.4c-8.7,44.9,28.4,81.4,82.9,81.4c54.5,0,91.6-36.4,82.9-81.4
		C2161.7,310.5,2124.6,274,2087.5,274z M2122.6,382.1c-2,3.7-4.5,6.8-7.6,9.4c-3.1,2.5-6.4,4.3-9.9,5.4c-3.5,1.1-7.8,1.8-12.8,2
		v11.6h-9v-11.6c-6-0.5-10.9-1.5-14.7-2.9c-3.8-1.4-7-3.4-9.7-5.9c-2.7-2.5-4.8-5.2-6.3-8.1c-1.5-2.9-2.6-6.4-3.3-10.5l24.9-2.9
		c0.7,4.1,1.7,7,3,8.8c1.3,1.8,3.3,3.4,6.2,4.8v-21.7c-8.3-2.3-14.2-4.3-17.6-6c-3.5-1.7-6.5-4.4-9-8.1c-2.5-3.7-3.8-8.2-3.8-13.6
		c0-7.3,2.6-13.4,7.7-18.3c5.1-4.9,12.7-7.6,22.8-8.2v-6.1h9v6.1c9.2,0.6,16.2,2.7,21.1,6.5c4.9,3.8,8,8.9,9.5,15.5L2100,332
		c-1.1-2.9-2.2-4.9-3.1-6.1c-0.9-1.1-2.4-2.3-4.6-3.4v17.8c12.5,3.3,20.8,6.8,25,10.5c5.5,5,8.3,11.3,8.3,18.9
		C2125.6,374.2,2124.6,378.4,2122.6,382.1z"/>
</g>
</svg>
