<?xml version="1.0" encoding="utf-8"?>
<!-- Generator: Adobe Illustrator 19.0.0, SVG Export Plug-In . SVG Version: 6.00 Build 0)  -->
<svg version="1.1" id="Capa_1" xmlns="http://www.w3.org/2000/svg" xmlns:xlink="http://www.w3.org/1999/xlink" x="0px" y="0px"
	 viewBox="0 0 900 950" style="enable-background:new 0 0 900 950;" xml:space="preserve">
<style type="text/css">
	.st0{fill:#EE2A7B;}
	.st1{fill:#FFFFFF;}
</style>
<g id="XMLID_1_">
	<circle id="XMLID_74_" class="st0" cx="450" cy="475" r="395.2"/>
	<polygon id="XMLID_47_" class="st1" points="576.1,361.1 477.2,361.1 477.2,215.3 422.8,215.3 422.8,361.1 323.9,361.1 
		323.9,415.6 422.8,415.6 422.8,759.2 477.2,759.2 477.2,415.6 576.1,415.6 	"/>
	<g id="XMLID_35_">
		<polygon id="XMLID_43_" class="st1" points="764.8,512 685.3,512 685.3,394.8 641.5,394.8 641.5,512 562,512 562,555.8 
			641.5,555.8 641.5,832 685.3,832 685.3,555.8 764.8,555.8 		"/>
		<polygon id="XMLID_45_" class="st1" points="338,512 258.5,512 258.5,394.8 214.7,394.8 214.7,512 135.2,512 135.2,555.8 
			214.7,555.8 214.7,832 258.5,832 258.5,555.8 338,555.8 		"/>
	</g>
</g>
</svg>
