<?xml version="1.0" encoding="utf-8"?>
<!-- Generator: Adobe Illustrator 19.0.0, SVG Export Plug-In . SVG Version: 6.00 Build 0)  -->
<svg version="1.1" id="Capa_1" xmlns="http://www.w3.org/2000/svg" xmlns:xlink="http://www.w3.org/1999/xlink" x="0px" y="0px"
	 viewBox="0 0 900 950" style="enable-background:new 0 0 900 950;" xml:space="preserve">
<style type="text/css">
	.st0{fill:#9BCD3A;}
	.st1{fill:#FFFFFF;}
</style>
<g id="XMLID_1_">
	<circle id="XMLID_39_" class="st0" cx="450" cy="475" r="395.2"/>
	<g id="XMLID_41_">
		<g id="XMLID_80_">
			<g id="XMLID_88_">
				<path id="XMLID_89_" class="st1" d="M254.3,291.4c-9.3,10,53.4,63.1,44.2,66.2c-7.2,2.4-36.6-3-71.9-29.8
					c-35.3-26.7-40.7-29.6-52.3-21.8c-9.9,6.6-13,22.4,29.1,47.6s65.2,42,53.6,41.4c-13.3-0.8-31.4-8.5-66.4-26.6
					c-34.5-17.9-42.5-24.3-54.8-16.3c-8.1,5.3-15.5,30.1,15.1,40.6c41.7,14.3,101.1,42.2,89.3,47c-12.1,4.8-67.3,4.3-97.9-3
					c-19.2-4.6-28.5,14.8-25.7,26c3.5,13.8,35.3,19.6,86.3,17c31.3-1.6,73.3,9.8,98,22.4c15.6,7.9,24.4,16.3,19.1,22.2
					c-13.7,15.1-46.4,32.3-48.9,59.9c-2.5,27.6,15.2,37.1,42.9,3.5c27.6-33.6,53.2-45.9,69.9-49.4c9.1-2,16.9-5.2,24-10.8
					c0.7-0.6,1.5-1.2,2.2-1.8c4.9-4.4,9.5-10,13.9-17.3c1.2-2,2.4-3.8,3.6-5.5l0,0c1.2-2,2.2-3.8,3.1-5.5c0,0,7.6-19.5,12.1-60
					c6.8-30.5-8.5-51-21.4-62.3l0,0c-8.1-7.1-15.3-10.6-15.3-10.6c-22-8-46.9-19.8-71-36.8C269.5,281,263.7,281.5,254.3,291.4z"/>
			</g>
			<path id="XMLID_87_" class="st1" d="M340.5,636.4c5.1,9.2,59-24.1,59-16.6c0,5.8-11,26.1-38.9,45.6c-28,19.5-31.4,22.8-28.5,33.1
				c2.5,8.9,13.3,14.8,41.8-10c28.5-24.9,46.3-37.7,43.1-29.5c-3.7,9.6-13.7,21-35.3,42.3c-21.3,21-27.9,25.4-25,36.3
				c2,7.2,18.4,18.5,33.3-1.4c20.4-27.2,55-64,55.7-54.3c0.7,10-12.9,50.4-25.5,71c-7.9,13,4,24.4,12.9,25
				c10.9,0.8,22.8-21.2,33-59.2c6.3-23.3,24.7-51.4,39.7-66.5c9.5-9.6,17.8-14,20.8-8.7c7.8,13.6,12.6,41.7,32.3,50.1
				c19.6,8.4,30.8-2.3,12.8-30.6s-20.9-49.9-19.6-63c0.7-7.2,0.2-13.7-2.2-20.1c-0.3-0.7-0.5-1.3-0.8-2c-2-4.6-5.1-9.3-9.4-14.3
				c-1.2-1.4-2.2-2.7-3.2-4l0,0c-1.2-1.3-2.3-2.5-3.3-3.5c0,0-12.5-10.2-41.1-23.1c-20.7-12.3-39.4-5.9-50.7,0.8l0,0
				c-7.1,4.3-11.4,8.7-11.4,8.7c-11.1,14.2-25.7,29.7-43.9,43.3C336.5,622.8,335.4,627.2,340.5,636.4z"/>
			<g id="XMLID_85_">
				<path id="XMLID_86_" class="st1" d="M624.9,624.7c7.6-2.9-11.8-47.5-6.1-46.7c4.4,0.6,18.6,11.2,30.4,34.6
					c11.7,23.4,13.8,26.4,22,25.3c7-0.9,12.7-8.5-3-32.9s-23.6-39.3-17.6-36c6.9,3.9,14.4,12.7,28.2,31.5c13.6,18.5,16.2,24,24.8,23
					c5.7-0.7,16.1-11.9,2.6-25.5c-18.4-18.5-42.6-48.9-35.1-48.3c7.7,0.6,36.8,15.4,51.1,27.2c9,7.5,19-0.4,20.4-7
					c1.8-8.2-13.6-19.6-41.3-31.6c-17-7.3-36.3-24.4-46.1-37.5c-6.2-8.3-8.7-15-4.3-16.8c11.2-4.4,33.1-5,41.6-19
					s1.6-23.7-21.8-13.1c-23.5,10.6-40.2,10.4-50,7.9c-5.4-1.4-10.4-1.7-15.6-0.5c-0.5,0.1-1.1,0.2-1.6,0.4c-3.8,1-7.6,2.8-11.9,5.6
					c-1.2,0.8-2.3,1.4-3.4,2l0,0c-1.1,0.8-2.2,1.5-3.1,2.1c0,0-9.1,8.4-22.1,28.7c-11.6,14.4-8.8,29.3-5,38.6l0,0
					c2.4,5.9,5.3,9.6,5.3,9.6c9.5,10,19.7,22.8,28.1,38.1C614.1,626.2,617.3,627.5,624.9,624.7z"/>
			</g>
			<g id="XMLID_83_">
				<path id="XMLID_84_" class="st1" d="M678.8,404.8c-0.5-6.3-38-1.3-36.2-5.3c1.4-3.2,12.3-11.5,32.3-15.3s22.6-4.7,23.6-11.1
					c0.8-5.4-3.6-11.3-25.2-4.7c-21.6,6.6-34.4,9.3-30.6,5.5c4.4-4.3,12.6-8.1,29.5-14.4c16.7-6.2,21.4-7,22.4-13.7
					c0.7-4.4-5.5-14.6-18.5-7.4c-17.7,9.8-45.5,21.4-43.5,16c2.1-5.6,19.3-24.3,31.2-32.4c7.5-5.1,3.8-14.3-0.9-16.8
					c-5.8-3.1-17.6,6-32.4,24.2c-9.1,11.1-25.9,21.9-37.8,26.5c-7.5,2.9-13.1,3.3-13.4-0.3c-0.9-9.3,3.3-25.8-5.4-35.1
					c-8.6-9.4-17.3-6.2-14.4,13.5c2.9,19.8-0.8,32.3-4.7,39c-2.1,3.7-3.4,7.4-3.7,11.5c0,0.4-0.1,0.9-0.1,1.3c0,3,0.5,6.3,1.6,10.1
					c0.3,1,0.6,2,0.7,2.9l0,0c0.3,1,0.6,1.9,0.9,2.7c0,0,4.3,8.6,16.7,22.6c8.3,11.7,20,12.8,27.8,11.9l0,0c4.9-0.6,8.3-1.9,8.3-1.9
					c9.5-5,21.2-9.9,34.4-12.9C677.7,413.2,679.3,411.1,678.8,404.8z"/>
			</g>
			<path id="XMLID_82_" class="st1" d="M535.1,306.3c-4.4-2.1-15.8,24.9-17.8,22.1c-1.6-2.2-2.9-12.8,2.5-27.7
				c5.3-14.9,5.8-17,1.9-20.1c-3.3-2.7-9-2-13.1,15s-7.4,26.7-8.4,22.7c-1.2-4.6-0.4-11.6,2-25.4c2.4-13.6,3.7-17.1-0.3-20.4
				c-2.7-2.2-11.9-2.1-12.2,9.5c-0.4,15.7-3.6,38.9-6.5,35.4c-2.9-3.6-8.6-22.5-9.4-33.7c-0.5-7-8.1-8.1-11.6-6
				c-4.3,2.6-2.9,14.1,3.4,31.2c3.9,10.5,4.5,26,2.8,35.8c-1,6.2-3,10-5.5,8.9c-6.6-3-15.9-12.4-25.6-10.3s-11,9.1,3.4,15
				c14.4,5.8,21.3,13.2,24.3,18.5c1.6,2.9,3.6,5.2,6.2,7c0.3,0.2,0.6,0.4,0.8,0.5c2,1.2,4.4,2.2,7.4,2.9c0.8,0.2,1.6,0.4,2.3,0.7
				l0,0c0.8,0.2,1.5,0.3,2.2,0.5c0,0,7.4,0.5,21.7-2.3c11.1-0.9,16.5-8.3,18.9-13.9l0,0c1.6-3.5,2-6.3,2-6.3
				c0.4-8.3,1.7-18.1,5-28.1C540.3,310.3,539.5,308.4,535.1,306.3z"/>
		</g>
	</g>
</g>
</svg>
