<?xml version="1.0" encoding="utf-8"?>
<!-- Generator: Adobe Illustrator 19.0.0, SVG Export Plug-In . SVG Version: 6.00 Build 0)  -->
<svg version="1.1" id="Capa_1" xmlns="http://www.w3.org/2000/svg" xmlns:xlink="http://www.w3.org/1999/xlink" x="0px" y="0px"
	 viewBox="0 0 900 386" style="enable-background:new 0 0 900 386;" xml:space="preserve">
<style type="text/css">
	.st0{fill:#7F2527;}
	.st1{fill:#FFFFFF;}
	.st2{fill:#BBBDBF;}
	.st3{fill:#A6A8AB;}
</style>
<rect id="XMLID_14_" x="0.8" class="st0" width="900" height="386"/>
<g id="XMLID_195_">
	<g id="XMLID_458_">
		<g id="XMLID_459_">
			<path id="XMLID_471_" class="st1" d="M116.3,86.4l6.2,7.7c6.8-3.6,17.2-7.7,26.2-7.7c10.1,0,20.5,1.2,30.3,8.6
				c8.6-4.7,21.1-8.6,32.7-8.6c13.4,0,40.1,0.6,40.1,40.4l0,79h-34.5l0-79c0-14.6-8-14-12.8-14c-3.9,0-14.8,2.4-14.8,2.4l-0.1,90.6
				l-34.2,0l0-79c0-13.3-8-14-13.6-14c-4.2,0-14.6,2.4-14.6,2.4l0,90.6l-34.5,0l0.1-116.4L116.3,86.4z"/>
			<path id="XMLID_468_" class="st1" d="M325.4,86.5c35.1,0,56.7,25.6,56.7,60.9c0,35.4-21.4,60.9-56.8,60.9
				c-35.1,0-56.4-25.6-56.4-60.9C269,112.1,290.7,86.5,325.4,86.5 M325.4,183.7c17.5,0,21.9-18.7,21.9-36.2
				c0-17.8-4.4-35.6-21.9-35.6c-17.2,0-22,17.8-22,35.6C303.4,165,308.1,183.7,325.4,183.7"/>
			<path id="XMLID_467_" class="st1" d="M458.3,116.1c-11,0-28.2,3.6-28.2,3.6l0,86.5l-34.2,0l0.1-116.7c5.1-0.6,9.5-0.9,12.5-1.5
				l11.3-1.2l6.2,10.1c5.9-4.2,19.3-11.6,36.8-13L458.3,116.1z"/>
			<path id="XMLID_464_" class="st1" d="M566.1,140.8c0,3-0.3,6.2-0.6,8.6c0,0-0.6,1.2-0.9,1.5c-0.3,1.2-1.8,4.8-2.1,5.6l-65.1-1.5
				c1.2,17.8,11.6,27.3,25.8,27.3c12.8,0,30-4.4,35.1-5.6l2.7,20.8c0,0-18.7,10.7-46.3,11.3c-28.8,0.6-51.4-22-51.4-61.2
				c0-39.5,21.7-60.9,52.9-60.9C547.4,86.7,566.1,104.9,566.1,140.8 M498.1,133.4l34.2,0c-1.2-14.6-8-21.7-15.5-21.7
				C509.4,111.7,499.3,112.3,498.1,133.4"/>
			<path id="XMLID_463_" class="st1" d="M602.7,86.5l6.2,7.4c5.1-2.7,15.4-7.4,30.6-7.4c22,0,43.1,16.7,43,43.4l0,76l-34.8,0v-76
				c0-14.5-6.8-16.9-16.6-16.9c-8,0-17.8,2.1-17.8,2.1l0,90.9l-34.5,0L579,89.5L602.7,86.5z"/>
			<path id="XMLID_460_" class="st1" d="M807.2,200.1c0,0-17.5,8.3-29.1,8.6c-8,0.3-15.7-9.5-15.7-9.5c-6,3.5-18.4,9.5-31.2,9.5
				c-16.9,0-36.5-14-36.5-36.3c0-22.6,19.6-35.9,38.3-35.9c11.6,0,26.2,1.8,26.2,1.8l0-11.9c0-8-6.3-13.4-14.6-13.4
				c-6.9,0-30,6.2-30,6.2l-8.3-20.8c0,0,29.1-11.9,44-11.9c18.7,0,42.8,12.2,42.8,37.2l0,57.3h9.8L807.2,200.1z M759.1,180.5l0-21.4
				l-17.8,0c-6.8,0-11.9,4.7-11.9,11c0,6.3,5,12.5,11.9,12.5C748.7,182.5,759.1,180.5,759.1,180.5"/>
		</g>
	</g>
	<g id="XMLID_224_">
		<polygon id="XMLID_457_" class="st2" points="92.8,300.8 140.6,300.8 140.6,293.8 99.7,293.8 99.7,270.3 137.9,270.3 137.9,263.4 
			99.7,263.4 99.7,239.9 140.6,239.9 140.6,233 92.8,233 		"/>
		<path id="XMLID_456_" class="st2" d="M171.8,262.4c-6.8-1-18.1-3.9-18.1-12c0-6.9,7.5-12,17.9-12c9.9,0,17.9,5.4,17.9,12v1.7h7
			v-1.7c0-10.4-11.2-18.9-24.8-18.9c-14.4,0-24.8,8-24.8,18.9c0,10,8.3,16.3,24.6,18.9c13.3,2,20,6.4,20,13c0,7.5-8.3,13-19.7,13
			c-10.9,0-19.7-5.8-19.7-13v-1.7h-6.9v1.7c0,11,12,19.9,26.6,19.9c15.4,0,26.6-8.4,26.6-19.9C198.2,275.1,193.7,265.7,171.8,262.4z
			"/>
		<polygon id="XMLID_455_" class="st2" points="256,233 198.2,233 198.2,239.9 223.7,239.9 223.7,300.8 230.6,300.8 230.6,239.9 
			256,239.9 		"/>
		<path id="XMLID_452_" class="st2" d="M271.2,233l-29.4,67.8h7.6l8.6-19.8h33.3l8.6,19.8h7.6L278.1,233H271.2z M261,274l13.6-31.5
			l13.7,31.5H261z"/>
		<path id="XMLID_449_" class="st2" d="M338.5,233h-24.8v67.8h24.8c18.7,0,33.9-15.2,33.9-33.9C372.4,248.2,357.2,233,338.5,233z
			 M338.5,293.8h-17.9v-53.9h17.9c14.9,0,27,12.1,27,27C365.4,281.8,353.3,293.8,338.5,293.8z"/>
		<g id="XMLID_225_">
			<path id="XMLID_446_" class="st2" d="M413.6,231.5c-19.5,0-35.4,15.9-35.4,35.4c0,19.5,15.9,35.4,35.4,35.4
				c19.5,0,35.4-15.9,35.4-35.4C448.9,247.4,433.1,231.5,413.6,231.5z M413.6,295.3c-15.7,0-28.4-12.8-28.4-28.4
				c0-15.7,12.8-28.4,28.4-28.4c15.7,0,28.4,12.7,28.4,28.4C442,282.5,429.2,295.3,413.6,295.3z"/>
			<g id="XMLID_226_">
				<path id="XMLID_431_" class="st3" d="M402.2,254.8h-9.3V280h9.3c7,0,12.6-5.6,12.6-12.6C414.8,260.4,409.1,254.8,402.2,254.8z
					 M402.2,277h-6.3v-19.3h6.3c5.3,0,9.7,4.3,9.7,9.6C411.9,272.7,407.5,277,402.2,277z"/>
				<polygon id="XMLID_403_" class="st3" points="434.7,257.8 434.7,254.8 416.8,254.8 416.8,280 434.7,280 434.7,277 419.7,277 
					419.7,268.9 433.7,268.9 433.7,265.9 419.7,265.9 419.7,257.8 				"/>
			</g>
		</g>
	</g>
	<g id="XMLID_196_">
		<polygon id="XMLID_223_" class="st2" points="581.1,219.6 577.7,213.8 560.8,223.5 564.2,229.4 		"/>
		<g id="XMLID_220_">
			<polygon id="XMLID_222_" class="st3" points="515.8,234.1 494.9,234.1 505.5,251.6 			"/>
			<polyline id="XMLID_221_" class="st2" points="498.6,301 502,301 505.9,301 508.7,301 522.2,275.5 526.1,301 529.5,301 
				532.7,301 542.8,301 532.7,234.1 525.3,234.1 509.6,263.7 507.3,268.1 507.3,268.1 505.3,271.9 485.2,234.1 481.3,234.1 
				477.9,234.1 476.2,246 476.2,246 467.8,301 484.6,301 487.6,281.3 			"/>
		</g>
		<rect id="XMLID_219_" x="661.6" y="234" class="st2" width="16.6" height="67"/>
		<polygon id="XMLID_218_" class="st2" points="594.2,301 613.3,301 625.3,282.3 637.4,301 656.6,301 634.8,267.1 656,234 
			637.1,234 625.4,252 613.7,234 594.9,234 615.9,267.5 		"/>
		<g id="XMLID_202_">
			<path id="XMLID_203_" class="st2" d="M718,284.5c-9.8,0-17.7-7.7-17.7-17.2c0-9.5,7.9-17.2,17.7-17.2c5.2,0,9.8,2.2,13,5.6
				l11-12.8c-6.2-6.1-14.7-9.8-24-9.8c-19,0-34.3,15.4-34.3,34.4c0,19,15.4,34.3,34.3,34.3c9.3,0,17.7-3.7,23.9-9.7l-9.9-14.4
				C728.7,281.8,723.7,284.5,718,284.5z"/>
		</g>
		<path id="XMLID_200_" class="st2" d="M564.1,284.5v-9.3h22.4v-16.5h-22.4v-8.2h3.5h23v-16.4H554H551h-3.5v11.7v4.7v34.1v4.3V301
			h43.1h0.5v-16.5H564.1z"/>
		<path id="XMLID_197_" class="st2" d="M802.2,250.7c-6-10.4-17.3-17-29.1-17c-5.8,0-11.4,1.5-16.7,4.5
			c-10.5,6.1-17.1,17.2-17.1,29.1c0,5.9,1.6,11.5,4.6,16.7c6.1,10.4,17.5,16.9,29.1,16.9c5.9,0,11.5-1.5,16.7-4.6
			c10.4-6,16.9-17.5,16.9-29C806.7,261.5,805.1,256,802.2,250.7z M788,275.9c-3.1,5.4-8.5,8.6-14.9,8.6c-3.3,0-6.2-0.8-8.8-2.3
			c-5.4-3.1-8.6-8.7-8.6-14.8c0-3.1,0.8-5.9,2.4-8.6c3.2-5.4,8.9-8.7,15-8.7c3.1,0,5.9,0.8,8.6,2.3c5.3,3.1,8.5,8.8,8.5,15
			C790.2,270.4,789.4,273.3,788,275.9z"/>
	</g>
</g>
</svg>
