<?xml version="1.0" encoding="utf-8"?>
<!-- Generator: Adobe Illustrator 19.0.0, SVG Export Plug-In . SVG Version: 6.00 Build 0)  -->
<svg version="1.1" id="Capa_1" xmlns="http://www.w3.org/2000/svg" xmlns:xlink="http://www.w3.org/1999/xlink" x="0px" y="0px"
	 viewBox="0 0 985 1000" style="enable-background:new 0 0 985 1000;" xml:space="preserve">
<style type="text/css">
	.st0{fill:#82BAC8;}
	.st1{fill:#B2D4DD;}
	.st2{fill:#BDDAD9;}
	.st3{fill:#CBD453;}
	.st4{fill:#A87BA9;}
	.st5{fill:#E2B27F;}
	.st6{fill:#B1B7D7;}
	.st7{fill:#DEAB54;}
	.st8{fill:#F1E4C4;}
	.st9{fill:#F4E6C3;}
	.st10{fill:#CB6C83;}
	.st11{fill:#D3848D;}
	.st12{fill:#CB6E99;}
	.st13{fill:#DAA1C3;}
	.st14{fill:#97BDE4;}
	.st15{fill:#8ABCBB;}
	.st16{fill:#D69292;}
</style>
<g id="XMLID_1_">
	<g id="XMLID_157_">
		<path id="XMLID_161_" class="st0" d="M883.1,376.7l-6-0.1l-1.2,2.6c0,0-2,1.4-3.1,1.5c-1.1,0.1-3.9-1.8-3.5-2c0.4-0.3-0.4-3-1.8-3
			s-6-3.1-6-3.1c-0.9-0.1-1.2-2.3-2.8-2.7c-1.6-0.4-6.6,0.5-6.9,1.2c-0.3,0.7-3.4,2.7-3.4,2.7c-5.2,2.4-9.8-0.9-9.8-0.9
			s-3.8,0.1-5.2,0.5c-1.4,0.4-5.8-3-7.1-3.3c-1.2-0.3-0.1-2.4-1.4-4.3c-1.2-1.9-5.2-2.3-5.2-2.3h-8c0,0-3.3,0.8-3.5,2.2
			c-0.3,1.4,0.5,7.6,0,9c-0.5,1.4-1.9,4.1-1.9,4.1h-9.8l-3.5-2.6c0,0-0.5-2.3-3.5-2.6c-3-0.3-7.1,2.6-7.1,2.6l-2.4,2.6l-6.2-1.6
			c0,0-0.8-3.5-1.9-3.5c-1.1,0-7.1,0-7.1,0c-4.9-0.6-8.7-1.8-11.6-3.5l-6.1,9.8l1.8,6.3l7.1,3.5v5.7l-6.1,5.1l-8.3-0.6l-1.8,29.3
			l-6.3,3.3l-8.4-3.7l6.4,2.8l0.1,12.9c0,0,1.6,5.8,2.6,5.1c1-0.7,3.1,1.2,3.1,1.2l-1.2,1l0.8,1.8l5.1-1.2l0.4,1.4l-2.2,0.6l1.6,2.2
			l2.2-0.4l1.8-0.2l1.6,1.2c0.9-0.1,3.4-0.6,6.3-1.1c3.6-0.7-0.3-4.9-0.3-4.9l0.1-4.7l17.7-2l8.3,10l1,8.8l9.1-0.5l7.8-5.4l3.8,0.6
			l10,8.2h7.2l8.7,5.5l12.8,0.3l9.9,7.1l7.7,0.2l0.5-4.9l7.3-0.3c0,0,0.1,1,0.1,1.7c4.2,1,6.9-3.8,6.9-3.8l5.1-0.7l1.1,2h13.5
			l0.5,1.6l2.7-0.4v-1.1v-19.1l-2-3.1v-4.1l2-1l2.1-1.8l1.8,0.9l-1-4.1l-1.9-2l-0.9-3.5l-2-2.2l-3.1-1.2v-3.7h-1.4v-3.5l-10-9.6
			v-9.4h-2.6V392c0,0-3.5-2.4-7.3-2s-3.5-3.7-3.5-3.7s0.4-1.6,1.6-2.2c1.2-0.6,4.3,0,5.3,1c1,1,1.6,0.4,2.8,1.2
			c1.2,0.8,3.9,1.4,3.9,1.4s2.8,1.8,4.1,1.6c1.2-0.2,5.3-3.1,5.3-3.1l1.4-1.2c0,0,0.6-0.9,1.1-2.4h-2.2L883.1,376.7z"/>
		<path id="XMLID_160_" class="st0" d="M747.2,457.1c0,0,0.1,0,0.3,0C747.4,457.1,747.2,457.1,747.2,457.1z"/>
		<path id="XMLID_158_" class="st1" d="M747.6,457.1c-0.2,0-0.3,0-0.3,0S747.4,457.1,747.6,457.1z"/>
	</g>
	<g id="XMLID_144_">
		<g id="XMLID_151_">
			<rect id="XMLID_22_" x="350.3" y="394.2" class="st2" width="0" height="0"/>
			<rect id="XMLID_19_" x="350.3" y="394.2" class="st2" width="0" height="0"/>
			<rect id="XMLID_18_" x="350.3" y="394.2" class="st2" width="0" height="0"/>
			<rect id="XMLID_17_" x="350.3" y="394.2" class="st3" width="0" height="0"/>
		</g>
		<g id="XMLID_145_">
			<path id="XMLID_21_" class="st2" d="M350.3,550.2c1.2,0.7,5-0.7,5-0.7l1.7-2.1c0,0,0.7-0.7,4-0.6c3.3,0.1,1.4,3.5,1.4,3.5
				s0.1,3.1-3,2.3c-3.1-0.7-1.6,3.2-1.6,3.2s-1.3,1.5,1.2,4.6c2.5,3.1,11,7.3,13.3,7.3c2.3,0-0.4,3.1-0.4,3.1l-0.9,1.5
				c0,0,3.1,4.9-1.5,6.1c-4.6,1.2-8.1,4.1-8.1,4.1l5.6-0.1l2.3,1.3l2.5,0.4l3.8,1.2v2.3l1.9,3.2l1.5,1.4c0,0,0.5,4.2,0.5,4.6
				s-2.7,1.2-2.7,1.2l0.2,3.3l-0.8,3.6l-0.8,5.7l-1.6,3.5c0,0,0.6,1.9-0.9,4.3c-1.5,2.3,0.2,2.6,0.2,2.6h3.4l0.6,0.9l3.8,0.4
				l4.3,4.7l21.3-0.2l2.3-2.4l11.8,1.2l5,4.2l12.3-0.6l2,1.4c0,0,2.1,0,6.6,2.4c4.5,2.4,3.8-2.2,3.8-2.2l5.5,0.2l1,1l0.9,7l-2.8,1.8
				v1.7l3,1l2.2,1.1l1.5,2.2l1.4-2.1l1.8,0.2l3.1-3.1l0.5-2.8l4.8-0.1l2.4-0.5l4,1.4l0.5,2.4l-1.7,3.4c0,0-0.4,7,0.8,9.1
				c1.2,2,3-2.3,3-2.3l7.6,0.1l-0.7,6.9l2.2,1.4c0,0,0.3,2.2,1.5,4.6c1.2,2.3,3.5,0.9,4-3.2c0.5-4.1,0-6.5-2.2-7.8s-1.1-5.7-1.1-5.7
				l4-0.1l0.8-7.4l5.4-1.9l10-14.3l0.6-2.2l-3.6-2.2l0.7-5.5l-2.6-1.5l0.1-4.1l2.6-1.5l1.4-5.3l4.8-0.1l13.6,12l0.7-0.2l0-7.5
				l-1.6-2.2l0.4-6.5l-1.8-3.1v-7.1l9.8-1.4v-3.5l-5.7-5.1l-4.7,0.4l-3.5,2.3c0,0-5.6-1.5-8.8-3.7c-3.3-2.2-0.7-3.4,0.5-7.3
				c1.2-3.9-8.7-3.7-8.7-3.7l-0.1-7.2l2.8-1.2l7.3-1.1v-6.2l-3.5-6.5h-7.3l-0.5-6.2h-6.5l-1.4-7.6h-3.3l-0.8-2.7l1.6-2.4l3-6l2.2-9
				c0,0,4.1-2.2,9-3c-2.7-27.7-17.1-35-17.1-35l-5.7,6l-11.4-4.3l-5.7,4.3l-1.3-6.5v-5.4l3-3l-5.4-9l-6.2-0.3l-6,6.5l-1.6-6.5
				l7.3-2.7l1.5-2.7l-4.8-0.3V443h-1.6l-1.6,4.3l-3.5-0.5l-2.4-3.7l-5.7,6.4l-1.6,3.3l-4.9,3.8l-1.3-10.3h-2v-4.9l3.3-2.2v-6.2
				l-6.6-3.4c0,0-4.3-0.5-4.3,0c0,0.5,2.3,3.4-0.8,3.4c-3.1,0-8.8,0.8-10.2-5.2c-1.4-6-2.8,0.3-2.8,0.3l-1.8,1.5l-0.4,2.8l-1.4,0.6
				c0,0-7.1-7.2-8.5-7.4c-1.5-0.1-0.8-9.6-0.8-9.6l-16-12.3l-1.4-2.4h-1.8l-2,2.7l-8.8-2.6l-0.9-1.9l-7.9-0.5l-0.1-1.5l-4.6-0.1
				l-3.8-0.3c-0.5,0.9-13.2-1.9-13.2-1.9l-0.9,3.7l2.3,1.5l-1.5,2.3l-0.5,5l-1.4,4.3l2,2.6l-2,4.3v5.5l2.2,0
				c2.2-0.6,7.5,6.5,7.5,6.5l0.2,2.3h2.4l2,4.8l1-1.4l4.8,7.5l1.3,5.6h2.8l3.5-1.7h4.3l3.5,5.5v5.1l-4.5,0.8l-3.9-2.6l1.6,3.5v4.1
				l-2.8,0.4l-1.6-1.8v-3.1l-2.2-1.6h-2.8l0.8,1.8h1.4c0,0,0.6,1.8,1.2,3.1s0,2,0,2v2.2h-1.8l-1.6-2.2h-3.8l-1.4,3.3l-3.3,1.6v7.9
				c2.6,0.4,5.9,4.9,5.9,4.9h-8.7l-3.1,19.1l5.3,21.4l5.2,4.1v12.4l-2.2,4.9v0.8l-0.2,1.6C350.2,547.2,350.3,550.2,350.3,550.2z"/>
			<path id="XMLID_15_" class="st2" d="M350.3,550.2c1.2,0.7,5-0.7,5-0.7l1.7-2.1c0,0,0.7-0.7,4-0.6c3.3,0.1,1.4,3.5,1.4,3.5
				s0.1,3.1-3,2.3c-3.1-0.7-1.6,3.2-1.6,3.2s-1.3,1.5,1.2,4.6c2.5,3.1,11,7.3,13.3,7.3c2.3,0-0.4,3.1-0.4,3.1l-0.9,1.5
				c0,0,3.1,4.9-1.5,6.1c-4.6,1.2-8.1,4.1-8.1,4.1l5.6-0.1l2.3,1.3l2.5,0.4l3.8,1.2v2.3l1.9,3.2l1.5,1.4c0,0,0.5,4.2,0.5,4.6
				s-2.7,1.2-2.7,1.2l0.2,3.3l-0.8,3.6l-0.8,5.7l-1.6,3.5c0,0,0.6,1.9-0.9,4.3c-1.5,2.3,0.2,2.6,0.2,2.6h3.4l0.6,0.9l3.8,0.4
				l4.3,4.7l21.3-0.2l2.3-2.4l11.8,1.2l5,4.2l12.3-0.6l2,1.4c0,0,2.1,0,6.6,2.4c4.5,2.4,3.8-2.2,3.8-2.2l5.5,0.2l1,1l0.9,7l-2.8,1.8
				v1.7l3,1l2.2,1.1l1.5,2.2l1.4-2.1l1.8,0.2l3.1-3.1l0.5-2.8l4.8-0.1l2.4-0.5l4,1.4l0.5,2.4l-1.7,3.4c0,0-0.4,7,0.8,9.1
				c1.2,2,3-2.3,3-2.3l7.6,0.1l-0.7,6.9l2.2,1.4c0,0,0.3,2.2,1.5,4.6c1.2,2.3,3.5,0.9,4-3.2c0.5-4.1,0-6.5-2.2-7.8s-1.1-5.7-1.1-5.7
				l4-0.1l0.8-7.4l5.4-1.9l10-14.3l0.6-2.2l-3.6-2.2l0.7-5.5l-2.6-1.5l0.1-4.1l2.6-1.5l1.4-5.3l4.8-0.1l13.6,12l0.7-0.2l0-7.5
				l-1.6-2.2l0.4-6.5l-1.8-3.1v-7.1l9.8-1.4v-3.5l-5.7-5.1l-4.7,0.4l-3.5,2.3c0,0-5.6-1.5-8.8-3.7c-3.3-2.2-0.7-3.4,0.5-7.3
				c1.2-3.9-8.7-3.7-8.7-3.7l-0.1-7.2l2.8-1.2l7.3-1.1v-6.2l-3.5-6.5h-7.3l-0.5-6.2h-6.5l-1.4-7.6h-3.3l-0.8-2.7l1.6-2.4l3-6l2.2-9
				c0,0,4.1-2.2,9-3c-2.7-27.7-17.1-35-17.1-35l-5.7,6l-11.4-4.3l-5.7,4.3l-1.3-6.5v-5.4l3-3l-5.4-9l-6.2-0.3l-6,6.5l-1.6-6.5
				l7.3-2.7l1.5-2.7l-4.8-0.3V443h-1.6l-1.6,4.3l-3.5-0.5l-2.4-3.7l-5.7,6.4l-1.6,3.3l-4.9,3.8l-1.3-10.3h-2v-4.9l3.3-2.2v-6.2
				l-6.6-3.4c0,0-4.3-0.5-4.3,0c0,0.5,2.3,3.4-0.8,3.4c-3.1,0-8.8,0.8-10.2-5.2c-1.4-6-2.8,0.3-2.8,0.3l-1.8,1.5l-0.4,2.8l-1.4,0.6
				c0,0-7.1-7.2-8.5-7.4c-1.5-0.1-0.8-9.6-0.8-9.6l-16-12.3l-1.4-2.4h-1.8l-2,2.7l-8.8-2.6l-0.9-1.9l-7.9-0.5l-0.1-1.5l-4.6-0.1
				l-3.8-0.3c-0.5,0.9-13.2-1.9-13.2-1.9l-0.9,3.7l2.3,1.5l-1.5,2.3l-0.5,5l-1.4,4.3l2,2.6l-2,4.3v5.5l2.2,0
				c2.2-0.6,7.5,6.5,7.5,6.5l0.2,2.3h2.4l2,4.8l1-1.4l4.8,7.5l1.3,5.6h2.8l3.5-1.7h4.3l3.5,5.5v5.1l-4.5,0.8l-3.9-2.6l1.6,3.5v4.1
				l-2.8,0.4l-1.6-1.8v-3.1l-2.2-1.6h-2.8l0.8,1.8h1.4c0,0,0.6,1.8,1.2,3.1s0,2,0,2v2.2h-1.8l-1.6-2.2h-3.8l-1.4,3.3l-3.3,1.6v7.9
				c2.6,0.4,5.9,4.9,5.9,4.9h-8.7l-3.1,19.1l5.3,21.4l5.2,4.1v12.4l-2.2,4.9v0.8l-0.2,1.6C350.2,547.2,350.3,550.2,350.3,550.2z"/>
			<path id="XMLID_14_" class="st2" d="M350.3,550.2c1.2,0.7,5-0.7,5-0.7l1.7-2.1c0,0,0.7-0.7,4-0.6c3.3,0.1,1.4,3.5,1.4,3.5
				s0.1,3.1-3,2.3c-3.1-0.7-1.6,3.2-1.6,3.2s-1.3,1.5,1.2,4.6c2.5,3.1,11,7.3,13.3,7.3c2.3,0-0.4,3.1-0.4,3.1l-0.9,1.5
				c0,0,3.1,4.9-1.5,6.1c-4.6,1.2-8.1,4.1-8.1,4.1l5.6-0.1l2.3,1.3l2.5,0.4l3.8,1.2v2.3l1.9,3.2l1.5,1.4c0,0,0.5,4.2,0.5,4.6
				s-2.7,1.2-2.7,1.2l0.2,3.3l-0.8,3.6l-0.8,5.7l-1.6,3.5c0,0,0.6,1.9-0.9,4.3c-1.5,2.3,0.2,2.6,0.2,2.6h3.4l0.6,0.9l3.8,0.4
				l4.3,4.7l21.3-0.2l2.3-2.4l11.8,1.2l5,4.2l12.3-0.6l2,1.4c0,0,2.1,0,6.6,2.4c4.5,2.4,3.8-2.2,3.8-2.2l5.5,0.2l1,1l0.9,7l-2.8,1.8
				v1.7l3,1l2.2,1.1l1.5,2.2l1.4-2.1l1.8,0.2l3.1-3.1l0.5-2.8l4.8-0.1l2.4-0.5l4,1.4l0.5,2.4l-1.7,3.4c0,0-0.4,7,0.8,9.1
				c1.2,2,3-2.3,3-2.3l7.6,0.1l-0.7,6.9l2.2,1.4c0,0,0.3,2.2,1.5,4.6c1.2,2.3,3.5,0.9,4-3.2c0.5-4.1,0-6.5-2.2-7.8s-1.1-5.7-1.1-5.7
				l4-0.1l0.8-7.4l5.4-1.9l10-14.3l0.6-2.2l-3.6-2.2l0.7-5.5l-2.6-1.5l0.1-4.1l2.6-1.5l1.4-5.3l4.8-0.1l13.6,12l0.7-0.2l0-7.5
				l-1.6-2.2l0.4-6.5l-1.8-3.1v-7.1l9.8-1.4v-3.5l-5.7-5.1l-4.7,0.4l-3.5,2.3c0,0-5.6-1.5-8.8-3.7c-3.3-2.2-0.7-3.4,0.5-7.3
				c1.2-3.9-8.7-3.7-8.7-3.7l-0.1-7.2l2.8-1.2l7.3-1.1v-6.2l-3.5-6.5h-7.3l-0.5-6.2h-6.5l-1.4-7.6h-3.3l-0.8-2.7l1.6-2.4l3-6l2.2-9
				c0,0,4.1-2.2,9-3c-2.7-27.7-17.1-35-17.1-35l-5.7,6l-11.4-4.3l-5.7,4.3l-1.3-6.5v-5.4l3-3l-5.4-9l-6.2-0.3l-6,6.5l-1.6-6.5
				l7.3-2.7l1.5-2.7l-4.8-0.3V443h-1.6l-1.6,4.3l-3.5-0.5l-2.4-3.7l-5.7,6.4l-1.6,3.3l-4.9,3.8l-1.3-10.3h-2v-4.9l3.3-2.2v-6.2
				l-6.6-3.4c0,0-4.3-0.5-4.3,0c0,0.5,2.3,3.4-0.8,3.4c-3.1,0-8.8,0.8-10.2-5.2c-1.4-6-2.8,0.3-2.8,0.3l-1.8,1.5l-0.4,2.8l-1.4,0.6
				c0,0-7.1-7.2-8.5-7.4c-1.5-0.1-0.8-9.6-0.8-9.6l-16-12.3l-1.4-2.4h-1.8l-2,2.7l-8.8-2.6l-0.9-1.9l-7.9-0.5l-0.1-1.5l-4.6-0.1
				l-3.8-0.3c-0.5,0.9-13.2-1.9-13.2-1.9l-0.9,3.7l2.3,1.5l-1.5,2.3l-0.5,5l-1.4,4.3l2,2.6l-2,4.3v5.5l2.2,0
				c2.2-0.6,7.5,6.5,7.5,6.5l0.2,2.3h2.4l2,4.8l1-1.4l4.8,7.5l1.3,5.6h2.8l3.5-1.7h4.3l3.5,5.5v5.1l-4.5,0.8l-3.9-2.6l1.6,3.5v4.1
				l-2.8,0.4l-1.6-1.8v-3.1l-2.2-1.6h-2.8l0.8,1.8h1.4c0,0,0.6,1.8,1.2,3.1s0,2,0,2v2.2h-1.8l-1.6-2.2h-3.8l-1.4,3.3l-3.3,1.6v7.9
				c2.6,0.4,5.9,4.9,5.9,4.9h-8.7l-3.1,19.1l5.3,21.4l5.2,4.1v12.4l-2.2,4.9v0.8l-0.2,1.6C350.2,547.2,350.3,550.2,350.3,550.2z"/>
			<path id="XMLID_13_" class="st3" d="M350.3,550.2c1.2,0.7,5-0.7,5-0.7l1.7-2.1c0,0,0.7-0.7,4-0.6c3.3,0.1,1.4,3.5,1.4,3.5
				s0.1,3.1-3,2.3c-3.1-0.7-1.6,3.2-1.6,3.2s-1.3,1.5,1.2,4.6c2.5,3.1,11,7.3,13.3,7.3c2.3,0-0.4,3.1-0.4,3.1l-0.9,1.5
				c0,0,3.1,4.9-1.5,6.1c-4.6,1.2-8.1,4.1-8.1,4.1l5.6-0.1l2.3,1.3l2.5,0.4l3.8,1.2v2.3l1.9,3.2l1.5,1.4c0,0,0.5,4.2,0.5,4.6
				s-2.7,1.2-2.7,1.2l0.2,3.3l-0.8,3.6l-0.8,5.7l-1.6,3.5c0,0,0.6,1.9-0.9,4.3c-1.5,2.3,0.2,2.6,0.2,2.6h3.4l0.6,0.9l3.8,0.4
				l4.3,4.7l21.3-0.2l2.3-2.4l11.8,1.2l5,4.2l12.3-0.6l2,1.4c0,0,2.1,0,6.6,2.4c4.5,2.4,3.8-2.2,3.8-2.2l5.5,0.2l1,1l0.9,7l-2.8,1.8
				v1.7l3,1l2.2,1.1l1.5,2.2l1.4-2.1l1.8,0.2l3.1-3.1l0.5-2.8l4.8-0.1l2.4-0.5l4,1.4l0.5,2.4l-1.7,3.4c0,0-0.4,7,0.8,9.1
				c1.2,2,3-2.3,3-2.3l7.6,0.1l-0.7,6.9l2.2,1.4c0,0,0.3,2.2,1.5,4.6c1.2,2.3,3.5,0.9,4-3.2c0.5-4.1,0-6.5-2.2-7.8s-1.1-5.7-1.1-5.7
				l4-0.1l0.8-7.4l5.4-1.9l10-14.3l0.6-2.2l-3.6-2.2l0.7-5.5l-2.6-1.5l0.1-4.1l2.6-1.5l1.4-5.3l4.8-0.1l13.6,12l0.7-0.2l0-7.5
				l-1.6-2.2l0.4-6.5l-1.8-3.1v-7.1l9.8-1.4v-3.5l-5.7-5.1l-4.7,0.4l-3.5,2.3c0,0-5.6-1.5-8.8-3.7c-3.3-2.2-0.7-3.4,0.5-7.3
				c1.2-3.9-8.7-3.7-8.7-3.7l-0.1-7.2l2.8-1.2l7.3-1.1v-6.2l-3.5-6.5h-7.3l-0.5-6.2h-6.5l-1.4-7.6h-3.3l-0.8-2.7l1.6-2.4l3-6l2.2-9
				c0,0,4.1-2.2,9-3c-2.7-27.7-17.1-35-17.1-35l-5.7,6l-11.4-4.3l-5.7,4.3l-1.3-6.5v-5.4l3-3l-5.4-9l-6.2-0.3l-6,6.5l-1.6-6.5
				l7.3-2.7l1.5-2.7l-4.8-0.3V443h-1.6l-1.6,4.3l-3.5-0.5l-2.4-3.7l-5.7,6.4l-1.6,3.3l-4.9,3.8l-1.3-10.3h-2v-4.9l3.3-2.2v-6.2
				l-6.6-3.4c0,0-4.3-0.5-4.3,0c0,0.5,2.3,3.4-0.8,3.4c-3.1,0-8.8,0.8-10.2-5.2c-1.4-6-2.8,0.3-2.8,0.3l-1.8,1.5l-0.4,2.8l-1.4,0.6
				c0,0-7.1-7.2-8.5-7.4c-1.5-0.1-0.8-9.6-0.8-9.6l-16-12.3l-1.4-2.4h-1.8l-2,2.7l-8.8-2.6l-0.9-1.9l-7.9-0.5l-0.1-1.5l-4.6-0.1
				l-3.8-0.3c-0.5,0.9-13.2-1.9-13.2-1.9l-0.9,3.7l2.3,1.5l-1.5,2.3l-0.5,5l-1.4,4.3l2,2.6l-2,4.3v5.5l2.2,0
				c2.2-0.6,7.5,6.5,7.5,6.5l0.2,2.3h2.4l2,4.8l1-1.4l4.8,7.5l1.3,5.6h2.8l3.5-1.7h4.3l3.5,5.5v5.1l-4.5,0.8l-3.9-2.6l1.6,3.5v4.1
				l-2.8,0.4l-1.6-1.8v-3.1l-2.2-1.6h-2.8l0.8,1.8h1.4c0,0,0.6,1.8,1.2,3.1s0,2,0,2v2.2h-1.8l-1.6-2.2h-3.8l-1.4,3.3l-3.3,1.6v7.9
				c2.6,0.4,5.9,4.9,5.9,4.9h-8.7l-3.1,19.1l5.3,21.4l5.2,4.1v12.4l-2.2,4.9v0.8l-0.2,1.6C350.2,547.2,350.3,550.2,350.3,550.2z"/>
		</g>
	</g>
	<g id="XMLID_142_">
		<path id="XMLID_143_" class="st4" d="M203.5,647.5c0,0-1.4,1-2.5-1.2c-1.1-2.2,2.7-3.7,2.7-3.7s-0.1-5.7-0.5-10
			c-0.4-4.3-3.1-4.7-3.3-6.5c-0.2-1.8,1.9-2.6,5.5-3.4c3.6-0.7,2.3-3.4,2.2-9.3c0.2-9.1,2.6-6.1,2.6-6.1v-6.2l1-1l1.8,1.8
			c0,0,2.2,0.5,5.3,2.3c3.1,1.8,1.8,4.2,2.8,4.1s1.8-1,4.8,0.8c3,1.8,0,1.4,4.9,1.1s4.6-0.2,8.4,1.3c3.9,1.5,3.1-1.5,4.6-2.6
			c1.5-1.1,4-2.5,3.3-0.5c-0.7,2,0.7,4.2,1.9,5.7c1.2,1.5,1.2,1.3,6.2,2.4c5,1.1,6.8,1.5,6.8-2.3s0.5-2.5,4.2-1.7s0-5.9,0-5.9
			l4.1-0.6v-3.8c0,0,1.5-0.2,4.9-0.9c3.4-0.7,3.2-7.9,4.6-5c1.4,3,3.2,2,7.8,3c4.7,0.9,4.9-4.1,5.4-1.9c0.5,2.1,2.4,4.1,4.6,5.6
			c2.1,1.5,0.6-5.5,2.7-5.8c2.1-0.3,1.9,1.3,1.9,2.6c0,1.3,0.2,1.8,2.2,1.8s2.2,1,2.2,1l5.5,4c0,0,3.9-0.3,5.5-1.6s-2-7-3.6-10.2
			c-1.5-3.2,0.9-3.1,0.8-4.5s0.4-5,1.5-5.4c1.1-0.4,2.2-3.7,2.2-3.7s1.5-5.7,2.5-6.1c1-0.4,2.5-2.5,1.1-3.4
			c-1.4-0.8-2.4-2.4-2.4-2.4s-2.3-3.2-2.3-4.6c0-1.4,3.8,0,3.8,0s0.5,1.6,3.8,1.6c3.3,0,4.6-1,4.6-1s3,0,5.5,0c2.5,0,3-3.5,3-3.5
			h3.3v-4.1c0,0,1.8,0.1,2.1-0.5c0.3-0.6,0-6.6,0-6.6l1.6-0.6c0,0-1.3-1.2,0.7-3.2c0.8-0.3,1.4-0.3,1.9-0.2l0.2-1.6v-0.8l2.2-4.9
			v-12.4l-5.2-4.1l-5.3-21.4l3.1-19.1h8.7c0,0-3.3-4.5-5.9-4.9v-7.9l3.3-1.6l1.4-3.3h3.8l1.6,2.2h1.8v-2.2c0,0,0.6-0.8,0-2
			s-1.2-3.1-1.2-3.1h-1.4l-0.8-1.8h2.8l2.2,1.6v3.1l1.6,1.8l2.8-0.4V460l-1.6-3.5l3.9,2.6l4.5-0.8v-5.1l-3.5-5.5h-4.3l-3.5,1.7h-2.8
			l-1.3-5.6l-4.8-7.5l-1,1.4l-2-4.8h-2.4l-0.2-2.3c0,0-5.3-7.1-7.5-6.5l-2.2,0v-5.5l2-4.3l-2-2.6l1.4-4.3l0.5-5l-0.9,1.3l-4.2-3.1
			l-0.6-3.3l2.3-1.7l0.5-2.6c0,0,2-1.2,5.2-2.4c3.2-1.2,1.6-5,1.6-5l-3.9-0.4l-3.2,4.9l-3.1-0.2l-1.2,1.9l-1.7,1.5l-0.8,3.1
			l-14.8-2.4l-0.4-4.3l-3.6-0.2l-0.8,2.2l-10.4-0.3l-2.7,0.3l-0.4,4l-11.5,7.2l-0.2,4.5c0,0-1.7,1.2-2.7,4.6c-1,3.4-0.3,5.7,0.2,8.7
			c0.5,3.1-0.7,2.1-3.6,2.5c-2.8,0.4-0.9-1.3-2.5-3.4s-4.4,1.5-5.9,1.6c-1.5,0.1-2.8-2-1.4-2.7s0.6-3,0.8-6.7
			c0.1-3.8-3.1-2.6-4.3-2.1c-1.2,0.5-3.1,0.3-3.7-3.8c-0.6-4.1-2.2,0.4-2.5-1.5c-0.3-1.9-2.8-1.6-2.8-1.6l-2.5,3.8l-1.5,1.2l0.6,9.3
			l-1.4,2.1l-5.5,5.3l-5.7-4.8h-7.9l-1.1-3.5h-7.1l-3.3,1.2v9.5l-2.7,4.6v2.7l2.4,3.5c0,0,6.2,5.4,6.2,5.2
			c0-0.3-19.3,17.1-19.3,17.1h-7.6l-1.9,1.4h-5.8v1.4h-8.9c0,0-1.9,2.6-1.9,5.1c0,2.5-3.8,4.1-3.8,4.1v5.4l-8.1,7.1v5.7l5.7,1.4
			l-0.8,7.6c0,0-4.1,2.2-4.9,3.3s-1.6,3-1.6,3l2.2,1.9l2.4,2.2c0,0,0.8,2.2-4.6,2.7c-5.4,0.5,2.7,4.1,2.7,4.1l3,2.2l-10.9,24.7
			l-10.9,9l-1.9,6c0,0-3.3-0.3-4.6,4.6c-1.4,4.9-1.4,9.8-1.4,9.8l3,4.3c0,0,1.1,0.8-1.1,1.6c-2.2,0.8-5.2,4.1-5.2,4.1l-1.9,4.1v4.6
			l-3.5,1.4v4.1l-2.2,1.9h-1.9l-1.1,1.9l1.1,3.3l0.8,2.4l-1.9,1.4l-1.6,2.7l1.1,1.9h-2.2v2l1.6,1.3l0.3,3.3h4.6l1.1-1.6l2.4-0.8
			l1.6,0.3h4.1l2.2,2.2h6l0.5,4.1l1.6,2.7l3.5-1.4l1.4,2.7h4.6l0.5,8.1h2.2l1.1-2.4l0.3,2.4l2.4-1.4l3.5,1.4c0,0,0.5,1.1,4.1,1.1
			c3.5,0,1.4,4.6,1.4,4.6l1.6,2.2l0.8,3.3l3,1.6h3.3c0,0,1.9,2.4,2.2,0c0.3-2.4,2.9,1.1,2.9,1.1h3.9c0,0,3.3-2.2,4.9,0
			c1,1.3,4.3,0.5,6.9-0.3C204.5,647.6,203.5,647.5,203.5,647.5z"/>
	</g>
	<g id="XMLID_139_">
		<path id="XMLID_141_" class="st5" d="M204.1,647.7c0.2,0.1,0.5,0.3,0.8,0.6C204.7,648,204.4,647.8,204.1,647.7z"/>
		<path id="XMLID_140_" class="st5" d="M291.1,840.9l2.7-5.3l3.9-4.7l0.6-5.2c0,0,3.2-9.6,0.8-10.5c-5.8,3.8-33.2-0.9-33.2-0.9V806
			l-5.9-3.5l-3.4,1.8l-2.6-0.8l-5-3.7l-0.1-4.2l2.1-2l-0.4-3.9l1.9-2.2v-2.2l-0.7-1.9l-0.8-9.1c0,0-2.4,0.2-5.1,1.6
			c-2.6,1.4-1-8.4-1-8.4l2.4-2.8l-3.2-3l0.1-4.7c0,0-0.5,0-2.5-1c-2-1,0.2-3.9,0.2-3.9s14.1,0.3,15.6,0c1.4-0.3,1.2-2.1,2.2-3.5
			c1-1.3,1.4,0.9,1.4,0.9l2.8,1.3l1-5.2h4l0.5-1.5h2.5l1.3-1.6l5.4-0.5l6.1-8l0.9-3.2l4.5-4.4v-5.8h5.4l0.2-1.9l0.9-5.1l1.9-2
			l1.1-3.8c0,0,1.2-0.8,3.4-0.8c2.1,0,1.6-4.3,1.6-4.3s2-1.6,2.7-5.1c0.7-3.5-9-13.5-9-13.5s-12.1-0.6-12.1,1.2
			c0,1.8-3.8,4.7-3.8,4.7s-3.1,0.3-6.9,0.5s-2.5,1.3-4.7,4.4c-2.1,3.1-4.7,0-5.7-3.1c-5.3-3.1-4.2,1.6-9.1,0.8
			c-8.1-1.4-0.6-13.3-0.6-13.3l4.3-0.5l1.8-1.8l3.1-0.5l0.3-3.8l3.5-2.8l2.4-1.9c0,0,2.3-3.1,0.5-2.7C270,665.7,261,658,261,658
			s-1.1-2.3,0.8-4.8c1.9-2.4-0.5-4.4-3-4c-2.4,0.4-2.7-3.2-2.7-3.2s-1.8,0.4-8-0.1c-6.2-0.5-6.1,1.2-6.1,1.2s-0.2,2.2-0.4,3.4
			c-3,0.8-5.8,2.8-5.8,2.8s-0.4,4.3-1.3,6.8c-0.9,2.5-6,5.5-8.5,5.1c-2.5-0.4-6.4-9.7-6.4-9.7h-7.7c0,0-5.6-1.3-5.7-4.6
			c0-1.2-0.4-1.9-0.8-2.4c-2.5,0.8-5.9,1.6-6.8,0.3c-1.6-2.2-4.9,0-4.9,0h-3.9c0,0-2.6-3.5-2.9-1.1c-0.3,2.4-2.2,0-2.2,0h-3.3
			l-3-1.6l-0.8-3.3l-1.6-2.2c0,0,2.2-4.6-1.4-4.6c-3.5,0-4.1-1.1-4.1-1.1l-3.5-1.4l-2.4,1.4l-0.3-2.4l-1.1,2.4H161l-0.5-8.1h-4.6
			l-1.4-2.7l-3.5,1.4l-1.6-2.7l-0.5-4.1h-6l-2.2-2.2h-4.1l-1.6-0.3l-2.4,0.8l-1.1,1.6h-4.6l-0.3-3.3l-0.1,0l-1.6,1.1v3l-4.1,1.9
			l-0.8,2.7h-5.4h-5.4l-0.3,4.3l-5.7,4.6l-0.5,3h-7.6l-0.3,2.4h-2.4l0.3,2.7h-4.3l-1.9,3.5h-3.8l-3.5,2.4H72l3,6l-7.1,5.4l1.9,2.2
			v5.7h-4.9l1.1,10.3h-3.5l2.2,6.5h-6.5l-3.3,3.3h-4.1l-0.5,5.4h-7.1l2.7,2.7l-3,2.2l-3.3,1.9l-0.8,3.5h-4.1v1.9l1.4,1.1l1.4,2.7
			l7.6,11.7h5.2l1.4,2.4h4.9l8.4,9.2l1.6-5.2h7.6l1.6,1.6l3.5,0.3l1.6-1.9l15.2,2.7l2.2,3.8l0.3,7.9h-2.7v4.1h2.7l-0.3,15.2l9.2,0.8
			l1.1-2.2h3l-11.9,46.4h-9.5l-2.4,10.3l-2.2,7.1h-4.1l-2.2,3l4.9,10l-4.9,11.1l6-0.3l7.1-10.3l5.2-0.5l2.2-2.4h4.3l3.8,3.3l0.3,4.9
			l1.6,6.2l-1.1,4.3l-3.5,4.9l0.8,4.1l-1.4,1.9l-1.9,1.6l2.7,4.6v2.2l2.2,3.4l1.1,3.7v3.5c0,0,3,5.2,2.7,3.5
			c-0.3-1.6,4.1-3.5,4.1-3.5l2.4,0.5v-2.2l1.9-7.3l11.1,0.5l4.6,5.7l-0.5,11.4l2.2,3v8.4l-6.2,13.8v10.3l5.2,4.3l5.4,0.8l1.1,2.7
			l3.3,3.3l1.9,6.5v3.5c0,0,1.9,1.4,3.3,2.2c1.4,0.8,4.3,0.3,4.3,0.3l10.3,6.8l4.9-4.9l6.5-0.8v2.2l3,1.1l2.7-3.8h3.5l1.4-3.3v-1.4
			l3-0.5l5.2,1.9l-0.8-2.7l-1.6-3.8h-5.7c0,0,3.5-2.2,1.1-4.1c-2.4-1.9,0-3,0-3l9.8-1.4l1.5-8.4l4.5-3.3l4.6,1.4l2.7-3v-3.5h6V911
			l2.7,1.1l1.4-3.3l3-1.4v-4.9h3.5v-1.9l2.2-1.9l1.4,1.9h3.5l2.2-1.9v-5.4l3.3,1.4v-1.9l2.2,1.9l2.7-2.2l3-1.6v-4.1l3.3-1.4v-3.3
			c0,0,5.4,0,6.2,0c0.8,0,3.3-2.7,4.1-3c0.8-0.3,6.6-9.2,6.6-9.2s1-3.5,0.2-7.3c-0.8-3.8,1.1-7.9,1.1-8.7s-1.1-4.3-1.1-4.3l1.4-2.7
			h9.5l2.2-1.9l11.1-1.3L291.1,840.9z"/>
	</g>
	<path id="XMLID_138_" class="st6" d="M694.8,315.1l5.2,4.5c0,0,1.6,3.3,2.4,3.6c0.8,0.3,6.3,1.9,6.3,1.9l10.2,22.7l0,0l-2.9-7.8
		l3.9,0.2v-2.2l-3.1-2.6l0.8-6.7l5.1,1.2l4.5,0.6v-1.2l4.5-0.6l0.8-9.8l-2.6-2.6l1.8-2l8.2-1.8l1.4,2.4h4.9l2.4,1l6.9,1.2l2.2-1.6
		l0.2-11.6l-18.1-8.1v-4.9l1-0.4c0,0,4.5,2.8,6.3,3.1c1.8,0.2,2.2-1.2,2.2-3.9s4.1-3.5,4.1-3.5l9.4-7.1l-13.8-10.4l-7.3-16.7
		l-0.4-1.2l15.3-8.3l13.6-9.2v-12.8l-9,0.9l-1.4-2.4l-2.4-1.2h-4.7l-0.8-9.2l2-1.4l3.5,1.6l3.5-1.6l-0.8-1.4l3.1-2l-0.4-2.6l2.8-1.6
		h11.2v-11.6l1.6-3.1l1.2-5.7v-20.1l-2.2-2.6l-1-1.8l-2.2-1l-4.3-1.4l-3.3,4.7l0.4,2.8l-1.2,2.8h-2.4l-2.8-3.5l-3.7-3.5l-3.7,0.2
		l-8.3,30.1l-3.5,1.6v5.1l3.1,3.5l2,3.9l0.6,3.7l-10-2.1l-1-21.3l-5.9-1.6l-5.1,18.9l-3.3-1.2l-1-7.7l2.6-2.8l-1-6.5l-4.3-2.2
		l-2.8-3.1v-3.9l-33.6,0.6l-1.4,2.4v5.5l-5.5,6.1l-4.3,1l-1.2,3.7l-5.9,0.2v7.5l1,1.8l0.6,3.5l-13.9,4.3v5.5l1.5,3.5l-0.1,21.8
		c3.4-2,1.4,2.2,4.9,1.6c3.5-0.5,2.7-2.6,4.2-3.3c1.5-0.7,3,7.6,3,7.6l7.9,0.7l-6,6.9l6,1.6v14.1L664,275l1.1,0.4l1.8,4.1l2.7,2.8
		H687V298l7.8,9.2v3.7V315.1z"/>
	<path id="XMLID_137_" class="st7" d="M695.3,381.5c1.8-0.9,13,1.8,13,1.8v-11.2l5.7-1l4.8-6.1l2.7-10.2l-5.5-14.9l2.9,7.8
		l-10.2-22.7c0,0-5.5-1.6-6.3-1.9c-0.8-0.3-2.4-3.6-2.4-3.6l-5.2-4.5v-4.3v-3.7L687,298v-15.7h-17.4l0.7,0.7l0.9,15.1
		c0,0-3.3-0.1-6-0.1s-4.5,1.4-4.3,3.7c0.1,2.3-1.1,2.6-4.1,0.4c-3-2.2-2.6,0.7-2.6,0.7l1.9,4.1l4.3,0.1l2,2.6l-0.3,6.5l2.3,5.2
		l1.5-6.8l3.5,0.4l1.1,2.3l-1.2,19.1l-7.5,4.2l4.9,4.9l2.6,5.6l-1.5,2.6l-3,3.4v7.7l-2.7,3.1v12.8l-2.5,0.9l0.6,2.3l0.8,2.2
		c0,0,2.8,1.8,5.2,1.4c2.3-0.4,3.7-1.6,3.7-1.6l3.9-0.5l2.4,2.2h5.2l3.8,1.3l1.8-4l4.7-4l3,1.5C694.9,381.8,695.1,381.6,695.3,381.5
		z"/>
	<path id="XMLID_136_" class="st8" d="M676.4,387.2l-2.4-2.2l-3.9,0.5c0,0-1.4,1.2-3.7,1.6c-2.3,0.4-5.2-1.4-5.2-1.4l-0.8-2.2
		l-0.6-2.3l2.5-0.9l-3,1.1l-3.9-3.8l-4.7-4.7h-4.1l-4.5-1.6l-0.7-2.5l-6.8,0.1l-4.3,1.9v1.4v3l-3.3,1l-3.8,1.4c0,0-0.5,1.6-1.4,3.2
		c-0.9,1.6-4,0.6-4,0.6s-6-3.7-9.2-5.4c-3.1-1.8-3.7,1.2-3.7,1.2l-8.7,17.9c0,0,4.1,2.4,5.7,5.4c1.6,3,3,14.1,3,14.1l6.5-2.8
		l5.4-5.6l4.3,2l8.4,1.6l2.4,4.3l6.8-0.8l7.1,4.1v3.8l4.4,1.6l2-1.6l2-2.5h4.9h3.1v3.8h10.2c0,0-0.7,0.5,0,1.3
		c0.7,0.8,2.2-5.1,2.2-5.1l-0.8-2.4l-1.4-1.9h-3.5v-2.8l5.7-1.2l1,2.4l3.5-2.4v-6.9l-2.2-3.1l0.4-4.3c0,0,2.8-1,4.5-2.2
		c1.6-1.2,3.6-5.5,3.6-5.5l-3.8-1.3H676.4z"/>
	<path id="XMLID_135_" class="st8" d="M700.2,417.6l3.5-5.7l-1-10l-1.8-2.2l-1.7-4.6l-1-0.1l-1.2,1.4l-0.1,3.3l-3.7,0.5l0.1,2.2
		l-1.6,1.7l-0.5,4l-1.5,0.7l-0.3,2l1.6,2.9l2.4,0.4l0,3.3c0,0-0.1,1.2,0.7,1.4c0.5,0.1,3.9-0.3,7-0.6L700.2,417.6z"/>
	<path id="XMLID_133_" class="st9" d="M763.3,508.1c0,0-4.6,33.1-6.2,36.6c-1.6,3.5,6.8,5.4,8.7,12.2c-4.3,3-7.1,5.4-7.1,5.4
		l-0.5,14.4l1.4,3.3l-0.3,9l2.1,3.3l-2.3,1.4l-0.3,5.7l4.1,2.4l-1.5,16.8l-9.1,9.5l4.1,6c0,0,9-1.9,17.1,10.6
		c8.1,1.4,12.2-3,24.1,8.1c0,6.5,0,10.6,0,10.6s3,3.5,0,4.9c-3,1.4,4.3,8.1,4.3,8.1s-1.9,2.2,0,5.7c1.9,3.5-3.5,2.7-3.5,2.7
		l-1.9,4.3l4.3,5.7c0,0,4.6-0.5,6.5,0c1.9,0.5,1.9-5.4,4.3-5.2c2.4,2.7,4.1,2.7,7.3-1.4c2.6-0.6,6.5,6.5,6.5,6.5l7.9,2.7
		c0,0,3.3-6.2,6.5-5.4c3.3,0.8,7.6,1.6,7.6,1.6l3-2.4l3.3,1.6l3.8-3.5l10.9-1.1l1.1,2.7l4.9-7.6l4.6,2.4l19.3-20.6
		c0,0,9-0.8,8.7-2.7s0-13,0-13l-2.2-2.7l-0.3-8.1l-1.4-3.3l-0.3-6.8l4.1-3.3l-3.5-4.1l3.5-3.3v-4.1l2.2-2.4l-3.5-4.6l-5.4,0.8
		l1.9-9.5l0.8-11.1l-5.7-10.9l2.4-2.4l-1.1-10.3l2.2-9.8l4.9-10.6h-5.2c0,0-3.3,3.5-8.7,5.2c-5.4,1.6-7.6-7.3-7.6-7.3l-7.1-17.1
		v-4.6l-7.9-5.7c0,0-1.1,3-4.6,3c-3.5,0-26.9-0.5-33.9,14.7c-3.4-1.4-2.2-8.4-2.2-8.4s0-3.9-3.7-1.5s-6.4,2.4-6.9,7.6
		c-2,0.9-6.9-0.1-6.9-0.1s-1.5-1.4-0.5-4.9c0.9-3.5-5-2.8-5-2.8s0.1,2.6-1.1,2.6s-0.9-3.7-2.6-3.4s-3.9,0.3-4.2,5.8
		c-0.3,5.6-10.6-1.9-13.3-0.8c-2.7,1.1-3.3-2.8-3.3-2.8l-0.3-3.8l-6.2-6.2l-6.6-4.2H763.3z"/>
	<path id="XMLID_132_" class="st10" d="M747.8,492.3v15.7h6l3-2.2l2.7,0.3v3l3.8-1.1h4.5l4.7,3l1.9,1.2l6.2,6.2c0,0-0.1,7.8,3.2,6.8
		c1-0.7,3.6,0.4,3.6,0.4s4.6,1.9,6.8,2.3c2.1,0.4,3.1-0.4,3.3-2c0.2-1.6,0.5-6.5,4.7-5.8c0.6,0.8,1.4,2.8,1.4,2.8s1.7,1.7,1.7-2.1
		c2-0.4,5.4,0.7,5.1,2.2s-0.4,4.9,0.4,5.6s5.5,0.6,6.9,0.1c1.4-0.5-1.5-3,4.6-6.2c6.2-3.2,5.6-2.1,5.9-0.4c0.3,1.7-1,8,2.3,8.8
		c1,0,2.9-14.2,32.3-14.5c5.8-0.1,6.2-3,6.2-3l7.9,5.7v4.6l8.5,20.8c0,0,2.7,6.5,8.5,2.8c5.7-3.7,6.4-4.3,6.4-4.3h4.9l-8.1-17
		l0.7-7.6l-2.4-3.8l-3.5-4.1l2.7-1.2l-1.8-29.2l1.9-0.3l0.8-5.5l-2.7,0.4l-0.5-1.6h-13.5l-1.1-2l-5.1,0.7c0,0-2.7,4.8-6.9,3.8
		c-0.1-0.7-0.1-1.7-0.1-1.7l-7.3,0.3l-0.5,4.9L850,479l-9.9-7.1l-12.8-0.3l-8.7-5.5h-7.2l-10-8.2l-3.8-0.6l-7.8,5.4l-9.1,0.5l-1-8.8
		l-8.3-10l-17.7,2l-0.1,4.7c0,0,3.9,4.2,0.3,4.9c-3.6,0.7-6.6,1.2-6.6,1.2l0.6,10l2.6-0.3l5.4,10.2c0,0,5.4-0.9,6.6,5.2
		c1.2,6.2-9,8.4-11.2,7.5c-2.2-0.9-1.8,1.6-1.8,1.6L747.8,492.3z"/>
	<g id="XMLID_130_">
		<path id="XMLID_131_" class="st11" d="M749.5,491.4c0,0-0.4-2.6,1.8-1.6c2.2,0.9,12.4-1.3,11.2-7.5c-1.2-6.2-6.6-5.2-6.6-5.2
			l-5.4-10.2l-2.6,0.3l-0.6-10c0,0,0.1,0,0.4-0.1l-1.6-1.2l-1.8,0.2l-2.2,0.4l-1.6-2.2l2.2-0.6l-0.4-1.4l-5.1,1.2l-0.8-1.8l1.2-1
			c0,0-2-1.8-3.1-1.2c-1,0.7-2.6-5.1-2.6-5.1l-0.1-12.9l-20.6-9.1l10.1,25.4l4.1,27.7l2.8,3.3l3.7,1.8c0,0,2,0,4.7,2.8
			c2.6,2.8,7.7,4.3,7.7,4.3l3.1,2.1c0.1,1,0.3,1.8,0.6,2.6v0L749.5,491.4z"/>
	</g>
	<path id="XMLID_129_" class="st12" d="M540.4,229.4v-3.5h-6.2l-2.4,3.5v1.5h-4.1l-0.9,4.4c0,0,11.3,0.3,11.3,3
		c0,2.7,1.5,4.1,2.4,3.1c0.9-0.9,4.6-1.9,5.4,1.2s1.9,8.3,1.9,8.3s2.3,3.9,3.4,2.2c1.1-1.8,7.5-8.8,7.5-8.8l3.3,5.3l1.2,4l-1.9,2
		l1.2,2.7c0,0-0.4,2.4-1.1,3.1c-0.7,0.7-3.3,4.9-7.5,5.8c-4.2,0.9-2.2,2.6-0.5,3.8c1.6,1.2-0.5,2.6-0.3,3.5c0.3,0.9-3.4,4.3-2.7,6.8
		s-7.5,2.2-8.3,0.9c-0.8-1.2-1.4-3-2.2-1.4s-10.4,12.5-10.4,12.5s4.7-0.8,5.3,0c0.5,0.8-1.4,4.3-3,3.5c-1.6-0.8,2.2,9.2,0.3,11
		c-1.9,1.8-7.6,1.2-7.6,1.2s-0.1-5.8-2.7-7.1s-5.8-2.3-7.5-2.8c-1.6-0.5-3.5,0-3.5,0s-1.5,6.8-6.2,5.2c-4.7-1.6-3.8,3.9-6.1,3.7
		c-2.3-0.3-4.3,0.1-4.3,0.1l2.6,3.4l1.2,7.7l8.5-1.1l3.8-1.2l5.4,0.5l-2,4.2l-2.2,5l-0.5,6.4l-5,0.9l-1.8,1.4h-5.3l-3.8,0.8
		l-0.9-7.2l-12.3-3l-0.5,5.2l-6.5-1.2l-5.7-3.3l-1.7,6.4c0,0,0,1.1-4.3,1.9c-4.3,0.8,2.4,6.6,2.4,6.6s10.9,2.4,9.8,6.4
		c-1.1,3.9-4.3,2-4.3,2s3.4,3.9,2.7,5.8s8.3-0.5,8.3-0.5s2.7,3.3,2.8,7.1c0.1,3.8,11.8,10.6,12.6,8.4s0-4.7,0-4.7s-2.3-2.7-1.1-4.6
		c1.2-1.9,2.2-1.9,2.2-3.5s-3.3-7.1-0.5-6.1s10.2,9.1,12.3,9.2s6.2,2.4,5.7,5.6c4.1,0.4,10.9,1.1,10.9,1.1s-0.8-2.2,3.8-1.8
		c4.6,0.4,2.7,2,2.7,2h5.4l0.9-2.8l5.3,1.2l4.7-16.8l11.5,0.4l-0.3-11.9c0,0,3-3.4,0.8-3.9s-2.3-3.5-0.4-3.8
		c1.9-0.3-0.1-3.3,4.1-2.7c4.2,0.5,7.3-0.7,7.3-0.7l1.5-1.2l9.5-0.4l1.4-2.2l8.5,0.7l0.5,5.2c0,0,2.2,1.8,3.1,1.6
		c0.9-0.1,2.2,0.5,1.6,5c-0.5,4.5,2.7-1.1,3.9,2.3c1.2,3.4,6.4,4.5,1.8,7.9c-4.6,3.4-4.5,6.1-2.3,6.1c2.2,0,7.7,0.3,10.4,1.9
		c1.1-0.9,4.9-7.6,10.4-8.7c0,0,3.7,2,0,4.1s-4.7,3.4-4.7,3.4l3.4,3.5l0.3,3.8l4.1,5.3v4.2l3.3,1.9l5.2-2.3l6.8-0.1l0.7,2.5l4.5,1.6
		h4.1l4.7,4.7l3.9,3.8l3-1.1v-12.8l2.7-3.1v-7.7l3-3.4l1.5-2.6l-2.6-5.6l-4.9-4.9l7.5-4.2l1.2-19.1l-1.1-2.3l-3.5-0.4l-1.5,6.8
		l-2.3-5.2l0.3-6.5l-2-2.6l-4.3-0.1l-1.9-4.1c0,0-0.4-2.8,2.6-0.7s4.2,1.9,4.1-0.4c-0.1-2.3,1.6-3.7,4.3-3.7c2.7,0,6,0.1,6,0.1
		l-0.9-15.1l-3.4-3.5l-1.8-4.1L664,275l8.4-8.5v-14.1l-6-1.6l6-6.9l-7.9-0.7c0,0-1.5-8.3-3-7.6c-1.5,0.7-0.7,2.7-4.2,3.3
		c-3.5,0.5-1.5-3.7-4.9-1.6s0,6.5-4.1,6.2s-7.1-1.1-8.4,2.8s-3.7,5-6.6,4.3c-3-0.7-6.1-0.9-6.9,1.1s1.2,6.4-1.2,6.6
		c-2.4,0.3-3.5,2.3-3.8,4.2c-0.3,1.9-5.2,0.4-5.2,0.4s-2.6-3.5-5.7-2.8c-3.1,0.7-3.1,0.8-3.1,5.3s-1.2,5.6-4.1,4.2
		c-2.8-1.4-5.6-2.3-5.6-2.3l-1.5-1.5l-3.1,1.4l-0.3,5.2l0.9,4.5l0.7,2.2l-0.1,2.3l3.1,2.7l0.1,4.9l-5.2-1.2l-6.8,0.5l0.7-4.3h-1.9
		l-3.8,4.1l-0.4,2.2l-3.9,1.1c0,0-5,1.9-5.3,4.9c-0.3,3-2,13.4-4.1,14c-2.1,0.5-4.8,1.2-3.5-1.8s2.7-4.5,2.7-4.5l0.8-5.4l2.8-3.4
		l-1.2-3l4.3-6.1l0.1-2.7l6.6-9.9l-0.1-5.3l3.4-1.8l0.1-6.2l1.4-2.6l0.4-6.5l-1.9-2.2l0.5-4.1l-6.6-5.2v-5l-14.5-2.2l-2.8-2.8
		l-9.6,1.2c0,0-1.8,3.5-3.3,2.4s-1.5-2.3-1.5-2.3L540.4,229.4z"/>
	<path id="XMLID_128_" class="st13" d="M926.4,301.2h-2.6l-0.4-2.3h-2.3l0.9-6.5h-3.9l-8.8-1.1l-0.5-10.3c0,0-9.8-12.1-9.6-14.2
		l-8.1,11L884,273l-0.5-5l11.3-9.1l-10.9-9.2l-3.3,2.2l-3.3,0.8l-0.7,6.8l-2.8-4.6l-2.2-0.1l-1.4-1.4l-3-0.8l-0.4-1.4l-3.3-0.1
		l-2.7-3.5h-8l-1.4-2.2h-4.7l-2.7,4.7l-7.9,0.1l-1.2,1.9l-1.9-0.3l-0.9-1.4l-4.9-0.3l-2.3-1.4l-2.6-3.5h-1.8l-0.1-6.6l-1.2-3.1
		l-13.6-15.2l-20.1,30.1l3.1,1.9l0.3,5.4l-3.4,6h-6.5l-8.7,18.4l-0.2,3.8l-1.3-1.3h-4.9c0,0-1-1,0.6-2c1.6-1,4.9-3.9,1.8-3.9
		c-3.1,0-3.7,0-3.7,0l-9.4,7.1c0,0-4.1,0.8-4.1,3.5s-0.4,4.1-2.2,3.9c-1.8-0.2-6.3-3.1-6.3-3.1l-1,0.4v4.9l18.1,8.1l-0.2,11.6
		l-2.2,1.6l-6.9-1.2l-2.4-1h-4.9l-1.4-2.4l-8.2,1.8l-1.8,2l2.6,2.6l-0.8,9.8l-4.5,0.6v1.2l-4.5-0.6l-5.1-1.2l-0.8,6.7l3.1,2.6v2.2
		l-3.9-0.2l5.5,14.9l-2.7,10.2l-4.8,6.1l-5.7,1v11.2c0,0-11.2-2.7-13-1.8c-1.8,0.9,1.8,3.2,1.8,3.2l0.6,6.7l3.1,8.3l1.8,2.2l1,10
		l-3.5,5.7l33.4,14.7l6.3-3.3l1.8-29.3l8.3,0.6l6.1-5.1v-5.7l-7.1-3.5l-1.8-6.3l6.1-9.8c2.9,1.7,6.7,2.9,11.6,3.5c0,0,6,0,7.1,0
		c1.1,0,1.9,3.5,1.9,3.5l6.2,1.6l2.4-2.6c0,0,4.1-2.8,7.1-2.6c3,0.3,3.5,2.6,3.5,2.6l3.5,2.6h9.8c0,0,1.4-2.7,1.9-4.1
		c0.5-1.4-0.3-7.6,0-9c0.3-1.4,3.5-2.2,3.5-2.2h8c0,0,3.9,0.4,5.2,2.3c1.2,1.9,0.1,4.1,1.4,4.3c1.2,0.3,5.7,3.7,7.1,3.3
		c1.4-0.4,5.2-0.5,5.2-0.5s4.6,3.4,9.8,0.9c0,0,3.1-2,3.4-2.7c0.3-0.7,5.3-1.6,6.9-1.2c1.6,0.4,1.9,2.6,2.8,2.7c0,0,4.6,3.1,6,3.1
		s2.2,2.7,1.8,3c-0.4,0.3,2.4,2.2,3.5,2c1.1-0.1,3.1-1.5,3.1-1.5l1.2-2.6l6,0.1l5.8,6h7.2l0.5-1.6l5.4-1.1l-9.4-9.8l-0.5-8.4
		l1.5-1.6v-8.4c0,0,1.9-1.4,3-2.7c1.1-1.4,1.5-5.8,2.4-6c0.9-0.1,3.4-6.2,5.6-6.9c2.2-0.7,4.6-4.5,5-5.3c0.4-0.8,0-6.9,0-6.9
		l16.7-18.3V301.2z"/>
	<path id="XMLID_127_" class="st14" d="M350.3,550.2c0,0-0.2-4.6-4.3-3.2c-2,1.9-0.7,3.2-0.7,3.2l-1.6,0.6c0,0,0.3,6,0,6.6
		c-0.3,0.6-2.1,0.5-2.1,0.5v4.1h-3.3c0,0-0.4,3.5-3,3.5c-2.5,0-5.5,0-5.5,0s-1.3,1-4.6,1c-3.3,0-3.8-1.6-3.8-1.6s-3.8-1.4-3.8,0
		c0,1.4,2.3,4.6,2.3,4.6s1,1.6,2.4,2.4c1.4,0.8-0.1,3-1.1,3.4c-1,0.4-2.5,6.1-2.5,6.1s-1.1,3.3-2.2,3.7c-1.1,0.4-1.6,4-1.5,5.4
		s-2.3,1.3-0.8,4.5c1.5,3.2,5.2,8.9,3.6,10.2s-5.5,1.6-5.5,1.6l-5.5-4c0,0-0.2-1-2.2-1s-2.2-0.5-2.2-1.8c0-1.3,0.2-3-1.9-2.6
		c-2.1,0.3-0.6,7.3-2.7,5.8c-2.1-1.5-4.1-3.5-4.6-5.6c-0.5-2.1-0.7,2.8-5.4,1.9c-4.7-0.9-6.4,0-7.8-3c-1.4-3-1.2,4.3-4.6,5
		c-3.4,0.7-4.9,0.9-4.9,0.9v3.8l-4.1,0.6c0,0,3.7,6.7,0,5.9s-4.2-2.1-4.2,1.7s-1.8,3.5-6.8,2.3c-5-1.1-5-0.9-6.2-2.4
		c-1.2-1.5-2.6-3.7-1.9-5.7c0.7-2-1.7-0.6-3.3,0.5c-1.5,1.1-0.7,4.2-4.6,2.6c-3.9-1.5-3.6-1.6-8.4-1.3s-1.9,0.7-4.9-1.1
		c-3-1.8-3.8-0.9-4.8-0.8s0.2-2.2-2.8-4.1c-3.1-1.8-5.3-2.3-5.3-2.3l-1.8-1.8l-1,1v6.2c0,0-2.4-3-2.6,6.1c0.1,5.9,1.3,8.5-2.2,9.3
		c-3.6,0.7-5.7,1.5-5.5,3.4c0.2,1.8,2.8,2.2,3.3,6.5c0.4,4.3,0.5,10,0.5,10s-3.9,1.4-2.7,3.7c1.1,2.2,2.5,1.2,2.5,1.2
		s2.4,0.3,2.5,3.6c0.1,3.3,5.7,4.6,5.7,4.6h7.7c0,0,3.9,9.3,6.4,9.7c2.5,0.4,7.6-2.5,8.5-5.1c0.9-2.5,1.3-6.8,1.3-6.8s2.8-2,5.8-2.8
		c0.2-1.1,0.4-3.4,0.4-3.4s-0.1-1.7,6.1-1.2c6.2,0.5,8,0.1,8,0.1s0.3,3.6,2.7,3.2c2.4-0.4,4.9,1.5,3,4c-1.9,2.4-0.8,4.8-0.8,4.8
		s9,7.7,10.8,7.4c1.8-0.3-0.5,2.7-0.5,2.7l-2.4,1.9l-3.5,2.8l-0.3,3.8l-3.1,0.5l-1.8,1.8l-4.3,0.5c0,0-7.5,11.9,0.6,13.3
		c4.9,0.8,3.8-3.9,9.1-0.8c1,3.1,3.6,6.1,5.7,3.1c2.1-3.1,0.8-4.2,4.7-4.4s6.9-0.5,6.9-0.5s3.8-2.8,3.8-4.7c0-1.8,12.1-1.2,12.1-1.2
		s9.7,10.1,9,13.5c-0.7,3.5-2.7,5.1-2.7,5.1s0.5,4.3-1.6,4.3c-2.1,0-3.4,0.8-3.4,0.8l-1.1,3.8l-1.9,2l-0.9,5.1l-0.2,1.9h-5.4v5.8
		l-4.5,4.4l-0.9,3.2l-6.1,8l-5.4,0.5l-1.3,1.6h-2.5l-0.5,1.5h-4l-1,5.2l-2.8-1.3c0,0-0.4-2.2-1.4-0.9c-1,1.3-0.8,3.2-2.2,3.5
		c-1.4,0.3-15.6,0-15.6,0s-2.2,2.8-0.2,3.9c2,1,2.5,1,2.5,1l-0.1,4.7l3.2,3l-2.4,2.8c0,0-1.6,9.9,1,8.4c2.6-1.4,5.1-1.6,5.1-1.6
		l0.8,9.1l0.7,1.9v2.2l-1.9,2.2l0.4,3.9l-2.1,2l0.1,4.2l5,3.7l2.6,0.8l3.4-1.8l5.9,3.5v8.3c0,0,27.4,4.7,33.2,0.9
		c2.4,0.9-0.8,10.5-0.8,10.5l-0.6,5.2l-3.9,4.7l-2.7,5.3l3.4,4.8l7.9,2.4l1.3,12.9l4.8,3.9l0.1,4.7c0,0,8.1,1.4,8.5,4.6
		c-0.1-11.7-0.1-11.7-0.1-11.7l5.9-0.1l-1.2-3.8l2-1.1l1.2-4.2l6.7-1.1l1.6-1.8l8.4-0.4l-2.1-2.1l8.7-4.3l9.7,5.4
		c0,0,8.4,1.2,8.6-0.3s1-5.8,5.5-5.9c4.5-0.1,20.6-5.2,20.3-7.8c-0.2-2.6-1.4-5.4,0.8-7.1c2.2-1.7,3.3-1.6,2.6-4.4
		c-0.6-2.7,1.3-2.3,1.2-4.1c-0.1-1.7,2-1.8,1.8-3.7c-0.2-1.8,1.9-2.5,1.6-7.1c2.3-2.4,8.8-0.8,8.4-3.5c-0.3-2.6-0.6-4-1.7-4
		c-1.1,0-1.7-2.3-0.2-3.6c1.5-1.2,1-1,2.5-2.5c1.5-1.5,2.3,0.4,1.9-3.2c-0.4-3.6,5.7-0.2,5.6-2c-0.1-1.8-0.8-3.9-1.7-4.3
		c-0.9-0.4-1.1-3.5,2.7-1.3s3.5,1,6,1.5c2.5,0.5,7.4,0.6,7.4,0.6s4.7,12.7,8.6,11.9c4-0.8,4.7-1.7,4-3.2c-0.7-1.4-4.7-9-4.7-9
		s1-3.6-2.2-3.5c-3.3,0.1-4.3-2-5.4-4.2c-1.1-2.1-2.2-4.2,0.1-4.5c2.3-0.3,4.3-0.6,3.1-3.3c-1.2-2.6-4.2-6.4-3.8-8.8
		c0.4-2.3,1-4.1,3.2-1.2c2.1,2.8,5.7,6.2,6.7,3.3c1-3,5,3.5,5,3.5s3.2,0,2.8,3c-0.3,3,4.7,5,4.7,5s-1.2,3.8-0.6,4.7s2.5,0.4,2.4,3.4
		c-0.1,3,2.4,3.6,3.8,3.9c1.3,0.3,2,3.1,3.4,6c1.3,3,4.1,2.5,4.3,1.4c0.2-1.1,0.5-4.6,0.5-4.6s1.6,0.3,1.6-2.3s0.6-3.9,3.1-4.2
		s10.1-0.6,10.1-0.6s1.4,3.6,2.7,3.8c1.3,0.2-1.7,9.1,0,10.6c1.7,1.5,8.5,9.5,14,9.1s6.6,3.4,8.4-0.6s0.7-5.6,3.8-6.5
		s20.8-9.8,24.6-21c3.9-11.2,5.7-11.4,5.7-11.4s3.9-10.4,7.7-11.2c1.1-7.1,2.6-32,1.4-34.2c-1.2-2.1,5.2-2.7,9.1-1.4
		c3.9,1.3,5.8,0.6,8.8-1.1c3-1.7,10.5-1,15.1-10.4c4.6-9.4,7.3-10,8.6-10.5c1.3-0.5,5.9-1.7,8-6.5c2.1-4.8,3.6-10.4,6.3-11.7
		c2.7-1.3,0.7-14.2,0.7-14.2h11.1c0,0-2.4-8.1-6.4-10.3c-4-2.1,8.7-14.7,8.7-14.7l-0.7-43.7l-9.2,1.8l-4.9,0.7l-1.3,2l-4.5,0.5
		l-5.2,3h-19.8l-0.9,2.6l-17.6-0.8l-25.4,7.4l-13.6-12l-4.8,0.1l-1.4,5.3l-2.6,1.5l-0.1,4.1l2.6,1.5l-0.7,5.5l3.6,2.2l-0.6,2.2
		l-10,14.3l-5.4,1.9l-0.8,7.4l-4,0.1c0,0-1.1,4.4,1.1,5.7s2.7,3.8,2.2,7.8c-0.5,4.1-2.7,5.5-4,3.2c-1.2-2.3-1.5-4.6-1.5-4.6
		l-2.2-1.4l0.7-6.9l-7.6-0.1c0,0-1.7,4.4-3,2.3c-1.2-2-0.8-9.1-0.8-9.1l1.7-3.4l-0.5-2.4l-4-1.4l-2.4,0.5l-4.8,0.1l-0.5,2.8
		l-3.1,3.1l-1.8-0.2l-1.4,2.1l-1.5-2.2l-2.2-1.1l-3-1v-1.7l2.8-1.8l-0.9-7l-1-1l-5.5-0.2c0,0,0.7,4.7-3.8,2.2
		c-4.5-2.4-6.6-2.4-6.6-2.4l-2-1.4l-12.3,0.6l-5-4.2l-11.8-1.2l-2.3,2.4l-21.3,0.2l-4.3-4.7l-3.8-0.4l-0.6-0.9h-3.4
		c0,0-1.7-0.3-0.2-2.6c1.5-2.3,0.9-4.3,0.9-4.3l1.6-3.5l0.8-5.7l0.8-3.6l-0.2-3.3c0,0,2.7-0.8,2.7-1.2s-0.5-4.6-0.5-4.6l-1.5-1.4
		l-1.9-3.2v-2.3l-3.8-1.2l-2.5-0.4l-2.3-1.3l-5.6,0.1c0,0,3.6-2.8,8.1-4.1c4.6-1.2,1.5-6.1,1.5-6.1l0.9-1.5c0,0,2.7-3.1,0.4-3.1
		c-2.3,0-10.8-4.3-13.3-7.3c-2.5-3.1-1.2-4.6-1.2-4.6s-1.4-3.9,1.6-3.2c3.1,0.7,3-2.3,3-2.3s1.8-3.4-1.4-3.5c-3.3-0.1-4,0.6-4,0.6
		l-1.7,2.1C355.3,549.5,351.6,550.9,350.3,550.2z"/>
	<path id="XMLID_107_" class="st2" d="M563.1,253.5l-1.2-3.9l-3.3-5.3c0,0-5.8,6.6-7.9,9.2c-2.8,0.5-4.1-7.3-4.9-10.8
		c-0.8-3.5-5.4-1.2-6.2-0.9c-0.7,0.3-1.6-2.5-1.7-3.4c-0.1-0.9-1.4-1.8-4.1-2.3c-2.7-0.5-7.2-0.8-7.2-0.8l0.9-4.4h4.1v-1.5l2.4-3.5
		l5.8,0.5l7.3-10.8l-1.4-15.5l3-3h-2.4c0,0,1.3-2.5,1.6-2.8c0.3-0.3,4.7-2.4,4.7-2.4l2.2-2.8V185l2.3-2.3l0.6-3l-2-4.6v-9.3
		l-5.3-8.1l-0.5-5l-11-11.5c0,0-0.4-6.9-0.8-9.5c-4.6-4.5-16.9-29-16.9-29l0.5-5.1l-6.8-0.6l-1.6,2.8l-1.6,0.4l-0.9,1.8l-12.8-1.5
		l-1.6-2.4c0,0,1.9-4.1,2-4.4c0.1-0.3-1.3-1.7-1.3-1.7l-1-3.8l-5.3-6.8l-10.6-1.3c0,0-5.1,0.3-7.4,0.8c-2.3,0.5-2,4.6-2,4.6
		s-1,2.6-0.8,5.7c0.2,3.1,2.1,3.6,3.7,6.1c1.5,2.5-0.5,2.5-5.4,3.6s-1.6-1.6-2.5-7.1c-0.9-5.5-2.5,1.3-2.5,1.3s-5.4,2.3-8.9,1.9
		c-3.5-0.4-5.5-0.9-9.9,1c-4.4,1.9-11.8,1.3-11.8,1.3s-25.7-24.3-28.8-27c-3.1-2.6,2.1-4.3,2.1-4.3l0.2-6.5l3-0.6l0.7-1.1l-2.4-1.5
		l-9.4-0.6l-2.6-1.4l-5,4.7l-1.2-1.1v-8.5l-8.3-2.6l-4.6,1.6L365.5,42h-10h-4.4l-6.2,7.8V57l-2.5,1.6l1.6,7.3v0l0,0
		c-1.2,0.3-1.5,0.8-1.5,0.8l-1.4,1.4l-5.1-0.2c0,0,0.4-2.5-0.4-3.8c-0.8-1.2-2.4-1.2-2.4-1.2l0.1-4c0,0,1.2-4.4-0.9-4.5
		c0,0-0.1,5.1-1.5,3.3c-1.4-1.8-2.3-3.9-3.3-3.3c-0.9,0.6,0.8-2.6-0.7-2.7c-1.5-0.1-0.4-4.5-0.9-4.9c-0.5-0.4-2.8-1.3-4.3-0.6
		s-0.9,1.3-0.9,1.3s-1.3-1.1-0.1,2.5c1.2,3.7-3.8-1-2.4,2.4c1.4,3.5,0.9,1.6,2.1,2c1.2,0.4-0.8,0.9,1.7,2.1c2.5,1.2-3.7,1.9-1.5,4.3
		c2.1,2.3,4.6,1.1,4.6,1.1s-1.6,4.3,0.4,5.4c2,1.1,0.7,1.2,0.5,4s0.9,1.6,2.1,1.6c1.2,0,2.7,1,1.2,2.8c-1.5,1.8-2.4,2.3-0.8,5
		c1.6,2.6,3.2,3.5,1.8,4.9c-1.3,1.4,0.5,6.8,1.8,6.3c1.3-0.5,2.5-1.1,3.9,0c1.3,1.1,4.7,5.9,4.7,5.9s-1.7,6.5,1.1,10.2
		c2.8,3.7-2,3.8-2,3.8s-1.6,0.6-1.4,2s-1.5,3-0.7,6.5c0.1,1.4-3,1.6-0.6,4.1c2.3,2.4,0.5,1.1,0.7,3.3s1.9-0.6,1.7,2.2
		c-0.2,2.8,1.7,1.8,2.5,1.8c0.8,0-0.6,2.5,1.2,2.2c1.8-0.3,1,13.1,1,13.1s-2.8,0.4-3.3,2.1s-14,0-14,0s-6.2-6.9-8.1-6.5
		s-3.1-0.6-3.2-1.3c-0.1-0.7-4.1-1.7-4.2,0.1c-0.1,1.8,0.1,3.2-0.9,3.2c-1,0-1.6,0.8-1.6,2.6s-3,2.8-7.4,1.9
		c-4.5-0.9-5.9,10-8.4,10.1c-2.5,0.1-2-2.3-2-2.3s-5.6-0.6-7.1,0.4c-1.5,1-1.4,2-1.4,3.9s-2.7-0.9-3.6,0.8c-0.8,1.7-3.4-0.6-3.3,2.4
		c0.1,3.1-1.4,3.8-2.5,3.8c-1.1,0-1.5-3.1-1.5-3.1l-2-0.1c0,0,0.7-1.8-3.8-1.1c-1.9-0.6,1.3-3.7-4.4-3.7c-4.7-0.2,5.5-4.9-9.3-5.4
		c-1.1-5.2-2.6-4.8-2.6-4.8s-3.4-1.7-2.8,2.7c0.1,1.6-1.6,0.6-1.6,0.6v11.5c0,0-2.4-0.7-1.7,5.1c0.7,5.8-0.7,4.9,2,5.3v5.4
		c0,0,7.2,8.9,8.5,9.4c-0.4,6.3-0.4,20.9-0.4,20.9s0,1.5,2.2,3.2s5.6,2.8,5.6,8.1c0,5.3,0.4,5.2,1,6.6c0.6,1.4,0.8,5.2,2.8,6.6
		c2,1.4,7.1,6.4,11.9,6.6c4.8,0.2,2.2,3.6,0,3.3c-2.2-0.3-6-3.9-9.3,0c0.2,2.2-3.8,1.3-3.8,1.3l-10.4,0.2l-0.1,1.7l-2.1,1.4v2.1
		l-1.4,0.9l-0.3,2.8l-2,1l0.4,6.7l-1.7,0.7l-0.1,5.6l3.2,1.8l-1,0.9h-3.4l-0.3,2.4l4.1,2.8l-0.2,2.1l-2.1,0.6l0.5,3.5l-2,1.2
		c0,0,4.7,29.6-14.1,33.7c-18.8,4.1-17.3-13.6-17.3-13.6l-3.2-0.9c0,0,1-3.4-1-2.7c-2,0.6-0.7-2.7-4.2-1.6
		c-3.5,1.1-2.4,11.6-2.4,11.6l1.6,1.5l-2.2,0.6l-0.5,1.8l-1.6,2l-0.7,0.9l-2-0.2l-1.9,2.4H191v7.7l-1.3,0.9v1.9l5.1,9.3l2.7,8.1
		l-1.1,3l2.1,0.8l0.1,1.6l-2.2,1.5l-0.2,6.2l1.9,1.8v3.9l2.3,1.6l-0.4,5.4l2.3,3.2l-0.5,7.6l13.2,6.5l-0.1,5.8l2.3,0.5l-0.1,5.6
		l3.1,1.2l-1,3.8h2.2v7.5h7.1l1.1,3.5h7.9l5.7,4.8l5.5-5.3l1.4-2.1l-0.6-9.3l1.5-1.2l2.5-3.8c0,0,2.5-0.3,2.8,1.6
		c0.3,1.9,1.9-2.5,2.5,1.5c0.6,4.1,2.4,4.3,3.7,3.8c1.2-0.5,4.5-1.6,4.3,2.1c-0.1,3.8,0.7,6-0.8,6.7s-0.1,2.8,1.4,2.7
		c1.5-0.1,4.3-3.7,5.9-1.6s-0.3,3.8,2.5,3.4c2.8-0.4,4.1,0.5,3.6-2.5c-0.5-3.1-1.2-5.4-0.2-8.7c1-3.4,2.7-4.6,2.7-4.6l0.2-4.5
		l11.5-7.2l0.4-4l2.7-0.3l10.4,0.3l0.8-2.2l3.6,0.2l0.4,4.3l14.8,2.4l0.8-3.1l1.7-1.5l1.2-1.9l3.1,0.2l3.2-4.9l3.9,0.4
		c0,0,1.5,3.8-1.6,5c-3.2,1.2-5.2,2.4-5.2,2.4l-0.5,2.6l-2.3,1.7l0.6,3.3l4.2,3.1l2.3-3.7l-2.3-1.5l0.9-3.7c0,0,12.7,2.8,13.2,1.9
		l3.8,0.3l4.6,0.1l0.1,1.5l7.9,0.5l0.9,1.9l8.8,2.6l2-2.7h1.8l1.4,2.4l16,12.3c0,0-0.7,9.5,0.8,9.6c1.5,0.1,8.5,7.4,8.5,7.4l1.4-0.6
		l0.4-2.8l1.8-1.5c0,0,1.5-6.2,2.8-0.3c1.4,6,7.1,5.2,10.2,5.2c3.1,0,0.8-2.8,0.8-3.4c0-0.5,4.3,0,4.3,0l10.4-11.9v-7.5l-2.4,0.3
		c0,0-3,4.7-6.2,1.5s4.6-5.2,4.6-5.2l-8.6-3.4l-0.1-2.7l1.5-2l14-0.5l1.4,2.8l2.2-0.8c0,0,0.4-1.1,0.4-1.4c0-0.3-2.1-2.1-2.1-2.1
		l0.4-3.8l-0.6-1.8c0,0-2.8,3.4-3,3.5c-0.2,0.1-9-0.3-9-0.3s-1-5.1-1.1-5.2c-0.1-0.1-4.5,0-4.5,0l-3.1-1.5l0.3-2.4l2.3-1.4l1.6-3.6
		l1.6-0.7l0.3-1.4l-4.2-0.6l6.6-19.9l5-0.9l1.8-1.3l-0.3-5l3.1-1.8l2.3-1.9l2.8-1.2l3.9,3.1l0.7-6.6l-6.2-2.4l-5.6-0.5l0.3-1.7
		l3.9-6.8l6-5.9l2.7,3.9l4.7,0.1l0.9-6.4l11.6,4.7l5.7,3.3l6.5,1.2l0.5-5.2l12.3,3l0.9,7.2l3.8-0.8l5.2,0.2l1.5-1.7l5.4-0.8l0.5-6.4
		l4.2-9.2l-5.4-0.5l-3.8,1.2l-8.5,1.1l-1.2-7.7c0,0-3-3.9-2-3.5c6.8-0.2,3.8-0.1,6-2.5c2.2-2.5,2.5-0.8,5.7-0.9
		c3.1-0.1,4.5-5.4,4.5-5.4s2.2-0.2,2.8-0.2c0.6,0.1,5.8,2,8.2,3c2.5,1.1,2.7,7.1,2.7,7.1s2-0.1,4.8-0.1c4.9,0.1,3.1-5.4,3.1-5.4
		s-1.9-7.2-0.6-6.7c1.3,0.5,1.5-0.3,2.9-2.3c1.4-2-5.1-1.3-5.1-1.3s10.3-12.4,10.7-12.9c0.4-0.5,2,2.1,2,2.1s8.7,2.1,8.1-0.7
		c-0.6-2.8,2.5-6.5,2.7-7.2s0.7-3.1,0.7-3.1s-5.1-3.1-0.3-4.1c6.6-1.2,9-9.1,9-9.1l-1.2-2.7L563.1,253.5z M350.3,394.2
		C350.3,394.2,350.3,394.2,350.3,394.2L350.3,394.2L350.3,394.2L350.3,394.2z M349.4,66c0.4,0.1,0.8,0.1,1.3,0.2
		C350.2,66.1,349.8,66.1,349.4,66z M347.3,65.7c0.2,0,0.3,0,0.5,0C347.6,65.8,347.4,65.7,347.3,65.7z M348.3,65.8
		c0.2,0,0.4,0.1,0.7,0.1C348.7,65.9,348.5,65.9,348.3,65.8z M346.8,65.7c-0.1,0-0.2,0-0.3,0C346.5,65.7,346.6,65.7,346.8,65.7z
		 M345.9,65.7c-0.1,0-0.2,0-0.2,0C345.7,65.7,345.8,65.7,345.9,65.7z M345.1,65.7c0,0-0.1,0-0.1,0C345,65.7,345.1,65.7,345.1,65.7z
		 M344.5,65.8C344.5,65.8,344.5,65.8,344.5,65.8C344.5,65.8,344.5,65.8,344.5,65.8z M350.5,395.6
		C350.5,395.6,350.5,395.5,350.5,395.6C350.5,395.5,350.5,395.6,350.5,395.6z M350.4,396.3c0-0.1,0-0.1,0-0.2
		C350.4,396.2,350.4,396.3,350.4,396.3z"/>
	<g id="XMLID_105_">
		<path id="XMLID_106_" class="st15" d="M619,561.3l-9.8-5.9l-6.1,0.2l-2.6-0.6l-3.1-2.8l-3.3-1.4v-7.1l-1.8-0.8l-0.2-6.7l1-7.3
			l-6.1-2.8c0,0-8.1-1.8-5.7-5.9c2.4-4.1,7.1-5.7,7.1-5.7l0.4-4.5l-13.8-1.4c0,0-16.3-33.8-4.1-52.5c2.6-4.1,1.8-7.1,1.8-7.1l-3,0.6
			l-4.6-5.1l-1.9-6h-6.2l-1.4-6l-7.9-4.8l4.3-6h-9l-16-14.9v-4.9L514,381.5l-4.9-2.6v-6l5.2-1.6l1.6-4.6c0.5-3.1-3.5-5.4-5.7-5.6
			c-2.2-0.1-9.6-8.3-12.3-9.2c-2.7-0.9,0.5,4.5,0.5,6.1s-0.9,1.6-2.2,3.5c-1.2,1.9,1.1,4.6,1.1,4.6s0.8,2.6,0,4.7
			c-0.8,2.2-12.5-4.6-12.6-8.4c-0.1-3.8-2.8-7.1-2.8-7.1s-9,2.4-8.3,0.5c0.7-1.9-2.7-5.8-2.7-5.8s3.3,1.9,4.3-2
			c1.1-3.9-9.8-6.4-9.8-6.4s-6.8-5.8-2.4-6.6c4.3-0.8,4.3-1.9,4.3-1.9l1.7-6.4l-11.6-4.7l-0.9,6.4l-4.7-0.1l-2.7-3.9l-6,5.9
			l-3.9,6.8l-0.3,1.7l5.6,0.5l6.2,2.4l-0.7,6.6l-3.9-3.1l-2.8,1.2l-2.3,1.9l-3.1,1.8l0.3,5l-1.8,1.3l-5,0.9l-6.6,19.9l4.2,0.6
			l-0.3,1.4l-1.6,0.7l-1.6,3.6l-2.3,1.4l-0.3,2.4l3.1,1.5c0,0,4.5-0.1,4.5,0c0.1,0.1,1.1,5.2,1.1,5.2s8.8,0.4,9,0.3
			c0.2-0.1,3-3.5,3-3.5l0.6,1.8l-0.4,3.8c0,0,2.1,1.8,2.1,2.1c0,0.3-0.4,1.4-0.4,1.4l-2.2,0.8l-1.4-2.8l-14,0.5l-1.5,2l0.1,2.7
			l8.6,3.4c0,0-7.9,1.9-4.6,5.2s6.2-1.5,6.2-1.5l2.4-0.3v7.5l-10.4,11.9l6.6,3.4v6.2l-3.3,2.2v4.9h2l1.3,10.3l4.9-3.8l1.6-3.3
			l5.7-6.4l2.4,3.7l3.5,0.5l1.6-4.3h1.6v4.8l4.8,0.3l-1.5,2.7l-7.3,2.7l1.6,6.5l6-6.5l6.2,0.3l5.4,9l-3,3v5.4l1.3,6.5l5.7-4.3
			l11.4,4.3l5.7-6c0,0,14.4,7.3,17.1,35c-4.9,0.8-9,3-9,3l-2.2,9l-3,6l-1.6,2.4l0.8,2.7h3.3l1.4,7.6h6.5l0.5,6.2h7.3l3.5,6.5v6.2
			l-7.3,1.1l-2.8,1.2l0.1,7.2c0,0,9.9-0.3,8.7,3.7c-1.2,3.9-3.8,5.2-0.5,7.3c3.3,2.2,8.8,3.7,8.8,3.7l3.5-2.3l4.7-0.4l5.7,5.1v3.5
			l-9.8,1.4v7.1l1.8,3.1l-0.4,6.5l1.6,2.2l0,7.5l24.7-7.2l17.6,0.8l0.9-2.6H595l5.2-3l4.5-0.5l1.3-2l4.9-0.7l8.2-1.6l1.7-2.6
			l1.5-21.2l1.6-2.8l0.2-1.8L619,561.3z"/>
	</g>
	<path id="XMLID_104_" class="st16" d="M651.1,423.3l-5.3-1.9v-3.8l-7.1-4.1l-6.8,0.8l-2.4-4.3l-8.4-1.6l-4.3-2l-5.4,5.6l-6.5,2.8
		c0,0-1.4-11.1-3-14.1c-1.6-3-5.7-5.4-5.7-5.4l8.7-17.9c0,0,0.6-3,3.7-1.2c3.1,1.8,9.2,5.4,9.2,5.4s3.1,0.9,4-0.6
		c0.9-1.6,1.4-3.2,1.4-3.2l3.8-1.4l3.3-1v-3v-1.4l-0.9,0.4l-3-1.8l-0.3-4.4l-4.1-5.3l-0.3-3.8l-3.4-3.5l4.1-3c0,0,3.7-2,1.6-3.7
		c-2.1-1.8-5.3,1.3-5.3,1.3l-6.1,6.7c0,0-6-2.2-9.2-1.9c-3.2,0.3-3-1.2-2.5-2.2c0.5-0.9,1.7-2.8,4.2-4.4c2.5-1.7,0.5-3.7,0.5-3.7
		s-3.1-3.1-2.9-3.9c0.2-0.8-1.6-1.1-2.9-0.4c-1.4,0.8-1-0.4-1-1.1c0.1-0.7,0-4.3,0-4.3s-0.6-1.5-2-1.4c-1.4,0.2-2.7-1.6-2.7-1.6
		l-0.5-5.2l-8.5-0.7l-1.4,2.2l-9.5,0.4c0,0-2.3,2.8-8.8,1.9c-3.1-0.6-3.2,2.1-3.2,2.1s-0.4,0.8-1.3,0.8c-0.9,0-1.9,2.7,0.7,3.7
		c1.7,0.5,0.5,2.3,0.5,2.3l-1.2,1.7l0.3,11.9l-11.5-0.4l-4.7,16.8l-5.3-1.2l-0.9,2.8h-5.4c0,0,1.3-1.9-2.5-2c-3.9-0.1-3.7,0.5-4,1.7
		c-1.7-0.2-10.9-1.1-10.9-1.1l-1.6,4.6l-5.2,1.6v6l4.9,2.6l13.3,20.2v4.9l16,14.9h9l-4.3,6l7.9,4.8l1.4,6h6.2l0.9,3l0,0l1,3.1
		l4.6,5.1l3-0.6c0,0,0.8,3-1.8,7.1c-12.2,18.7,4.1,52.5,4.1,52.5l13.8,1.4l8.6-8.3v-3.7l2-0.5v-9.9l-2.6-1.8l0.1-1.6h6l6.5-7.9h2.2
		v7.9l19.1-18.9h3v-2.4h2.4l3.3-2.7h3.8c0,0-0.9-1.2,0-1.4c0.9-0.1,3.5,0,3.5,0l-1.8-5.2l-4.6-2.4l2.4-2.3h4.6l3.5-11.4l-3-4.4
		L651.1,423.3z"/>
</g>
</svg>
