<?xml version="1.0" encoding="utf-8"?>
<!-- Generator: Adobe Illustrator 19.0.0, SVG Export Plug-In . SVG Version: 6.00 Build 0)  -->
<svg version="1.1" id="Capa_1" xmlns="http://www.w3.org/2000/svg" xmlns:xlink="http://www.w3.org/1999/xlink" x="0px" y="0px"
	 viewBox="0 0 288 343" style="enable-background:new 0 0 288 343;" xml:space="preserve">
<style type="text/css">
	.st0{fill:url(#XMLID_28_);}
	.st1{fill:#7D272D;}
	.st2{fill:#FFFFFF;}
	.st3{fill:#63282E;}
</style>
<g id="XMLID_288_">
	
		<radialGradient id="XMLID_28_" cx="-7676.106" cy="-17817.4102" r="1092.7749" gradientTransform="matrix(3.180000e-002 0 0 1.200000e-002 388.0266 495.1923)" gradientUnits="userSpaceOnUse">
		<stop  offset="0" style="stop-color:#9E9D9E"/>
		<stop  offset="0.1816" style="stop-color:#A9A8A9"/>
		<stop  offset="0.5013" style="stop-color:#C6C5C6"/>
		<stop  offset="0.9187" style="stop-color:#F5F5F5"/>
		<stop  offset="1" style="stop-color:#FFFFFF"/>
	</radialGradient>
	<ellipse id="XMLID_295_" class="st0" cx="144" cy="281.4" rx="34.7" ry="13.2"/>
	<g id="XMLID_289_">
		<g id="XMLID_291_">
			<path id="XMLID_293_" class="st1" d="M223.8,128.2c0-44.1-35.8-79.8-79.8-79.8c-44.1,0-79.8,35.8-79.8,79.8
				c0,0-3.7,27.7,27.9,72.8c14.1,20.3,51.9,80.5,51.9,80.5s37.8-60.2,51.9-80.5C227.5,155.9,223.8,128.2,223.8,128.2z"/>
			<circle id="XMLID_292_" class="st2" cx="144" cy="129.6" r="58.1"/>
		</g>
		<path id="XMLID_290_" class="st3" d="M87.7,131.9c0-31.4,25.4-56.9,56.9-56.9c31.4,0,56.9,25.4,56.9,56.9c0,7.4-1.4,14.1-3.9,20.5
			c3.1-7,4.6-14.7,4.6-22.8c0-32.1-26.1-58.1-58.1-58.1c-32.1,0-58.1,26.1-58.1,58.1c0,16.5,7,31.4,18,42
			C93.7,161.3,87.7,147.4,87.7,131.9z"/>
	</g>
</g>
</svg>
