<?xml version="1.0" encoding="utf-8"?>
<!-- Generator: Adobe Illustrator 19.0.0, SVG Export Plug-In . SVG Version: 6.00 Build 0)  -->
<svg version="1.1" id="Capa_1" xmlns="http://www.w3.org/2000/svg" xmlns:xlink="http://www.w3.org/1999/xlink" x="0px" y="0px"
	 viewBox="1867.5 -25 900 950" style="enable-background:new 1867.5 -25 900 950;" xml:space="preserve">
<style type="text/css">
	.st0{fill:#447A1F;}
	.st1{fill:#FFFFFF;}
</style>
<g id="XMLID_1_">
	<circle id="XMLID_4_" class="st0" cx="2317.5" cy="450" r="395.2"/>
</g>
<g>
	<g>
		<path class="st1" d="M2050.6,528.2c1.7,5.6-1.5,11.6-7.1,13.2c-5.6,1.7-11.5-1.5-13.2-7.1l0,0c-1.2-3.8-2.3-7.6-3.3-11.3
			c-0.9-3.4-1.8-7.2-2.8-11.5c-4.4-19.9-6.8-40.4-6.8-61.6h0v0h0c0-80.8,34.1-154,89.3-206.9c55.1-52.8,131.1-85.5,215.1-85.5v0h0
			c5.9,0,10.7,4.8,10.7,10.7c0,1.4-0.3,2.8-0.8,4c-45.9,148.5-122.1,188.4-188.4,223c-41.9,21.9-79.6,41.6-100.8,87.7
			c-0.4,0.9-0.9,1.7-1.5,2.4c1,7.3,2.3,14.5,3.9,21.7c0.7,3.1,1.6,6.7,2.6,10.6c1,3.6,2,7.1,3,10.5l0,0L2050.6,528.2L2050.6,528.2
			L2050.6,528.2z M2121.5,258.4c-43.6,41.8-73,97.2-80.8,158.9c29-80.4,59.9-98.5,143.6-147.7c3.6-2.1,7.7-4.5,20.5-12.1
			c5.1-3,11.6-1.3,14.6,3.8c3,5.1,1.3,11.6-3.8,14.6c-1.6,1-11.2,6.6-20.5,12.1c-76.9,45.1-106.4,62.5-133.1,133.5
			c20.8-18.5,45.4-31.4,71.5-45c60.6-31.7,130-67.9,173.6-197.2C2234.7,182.7,2169.5,212.3,2121.5,258.4L2121.5,258.4z"/>
	</g>
	<g>
		<path class="st1" d="M2108.5,335.6c3,0.8,6.3-0.8,9.8-4.1c10.1-6,20.1-10.5,32.5-12.7c14.8-2.7,33.4-2.2,59.8,2.5
			c2.9,0.5,5.7-1.4,6.2-4.3c0.5-2.9-1.4-5.7-4.3-6.2c-27.7-4.9-47.4-5.4-63.5-2.5c-6.7,1.2-12.7,3-18.4,5.2
			c2.8-5.3,5.5-11.4,8.2-17.9c1.9-4.5,3.7-9.1,5.4-13.8c1.7-4.4,3.4-9.2,5.2-14.4c0.1-0.2,0.1-0.3,0.2-0.5l0.1-0.2
			c1-2.8-0.5-5.8-3.3-6.8c-2.8-1-5.8,0.5-6.8,3.3l-0.1,0.2c0,0.1-0.1,0.3-0.1,0.4c-1.6,4.6-3.3,9.3-5.1,14.1
			c-1.8,4.8-3.6,9.3-5.3,13.6c-5.4,13-10.3,23.7-13.7,29.4c-2.7,1.6-5.5,3.3-8.2,5l0,0c-1.1,0.7-1.9,1.8-2.3,3.1
			C2103.9,332,2105.7,334.9,2108.5,335.6z"/>
		<path class="st1" d="M2508.9,636.4L2508.9,636.4c-0.3,0.3-0.5,0.6-0.8,0.8c-2.4,2.6-4.8,5.1-7.1,7.4c-2.5,2.5-5.1,5-7.9,7.6
			c-5.4,5-11,9.7-16.8,14.2c-0.9-0.1-1.8-0.2-2.7-0.1c-50.5,4.7-86.4-18.1-126.4-43.5c-63.3-40.2-136-86.4-288.3-51.4l0,0
			c-1,0.2-2,0.6-3,1.2c-5.1,3-6.8,9.5-3.9,14.6c60.5,104.7,171.4,161.4,281,154.8c21.3-1.3,42.6-5,63.5-11.1
			c20.6-6.1,40.8-14.7,60.2-25.8c0.2-0.1,0.4-0.2,0.6-0.3l0,0l0,0l0.1,0l0,0c18.4-10.6,35.1-22.9,50-36.7c2.8-2.6,5.7-5.3,8.6-8.2
			c2.7-2.7,5.3-5.4,7.7-8l0.1-0.1l0,0c4.2-4.2,4.2-10.9,0-15.1C2519.8,632.2,2513,632.2,2508.9,636.4z M2390.6,710.4
			c-19.3,5.7-39,9.1-58.7,10.3c-97.3,5.8-195.9-42.1-253.6-131.6c133.7-26.8,199.8,15.1,257.6,51.8c24.8,15.8,48.3,30.6,74.7,39.4
			c-49.1,8.1-78.8,3.5-115.3-13c-3.2-2.8-6.3-5.7-9.2-9.2c-9.7-11.5-18.6-27.8-27.7-53.1c-1-2.8-4.1-4.2-6.8-3.2
			c-2.8,1-4.2,4.1-3.2,6.8c7.3,20.1,14.5,34.9,22.2,46.3c-12.6-6.7-26.3-14.4-42-23.4c-8.7-4.9-18.3-10.4-20.7-11.8
			c-5.1-2.9-11.6-1-14.5,4.1c-2.9,5.1-1,11.6,4.1,14.5c12.1,6.8,16.2,9.2,20.7,11.7c20.8,11.8,38.4,21.8,54.3,29.9
			c-0.1,0-0.2,0-0.3,0c-4.8,0.6-9.8,1.4-14.7,2.2c-4.7,0.8-9.7,1.7-15,2.7c-0.2,0-0.3,0-0.5,0.1l-0.2,0c-2.9,0.6-4.8,3.4-4.2,6.3
			c0.6,2.9,3.4,4.8,6.3,4.2l0.2,0c0.1,0,0.3-0.1,0.4-0.1c4.7-0.9,9.7-1.8,14.8-2.6c5-0.8,9.9-1.6,14.4-2.2c6.2-0.8,11.9-1.5,17-2
			c39.6,17.6,72.1,21.9,127.3,12C2408.7,704.5,2399.7,707.7,2390.6,710.4z"/>
		<path class="st1" d="M2608.9,376.9c-18.2-74.3-64.5-140.4-134.5-180.8l0,0l0,0l0,0c-18.4-10.6-37.4-18.9-56.7-25
			c-3.8-1.2-7.6-2.3-11.4-3.3c-3.4-0.9-7.2-1.8-11.5-2.8l0,0c-5.7-1.3-11.4,2.4-12.7,8.1c-1.3,5.7,2.4,11.4,8.1,12.7l0,0
			c3.1,0.7,6.6,1.6,10.6,2.6c3.6,1,7.1,2,10.5,3.1c7,2.2,13.9,4.7,20.7,7.5c0.3,0.8,0.7,1.6,1.3,2.4c29.3,41.4,27.5,83.9,25.5,131.2
			c-3.1,74.8-6.8,160.8,99.3,275c0.8,0.9,1.7,1.7,2.7,2.3c5.1,2.9,11.6,1.2,14.6-3.9l0-0.1l0,0l0,0
			C2617.4,533.1,2627.1,450.9,2608.9,376.9z M2564,582.3c-90.1-102.4-86.9-180.6-84-249c1.2-29.4,2.4-57.1-3.2-84.3
			c34.1,41.5,44.1,70.9,47.3,116.1c-0.6,2.1-1.2,4.2-1.9,6.4c-5.1,14.2-14.8,30-32.1,50.6c-1.9,2.3-1.6,5.6,0.7,7.5
			c2.3,1.9,5.6,1.6,7.5-0.7c12.3-14.7,21-27.2,27-38.5c0.3,12.2,0.4,25.5,0.5,40.5c0.1,7.6,0.1,15.6,0.2,23.8
			c0,5.9,4.8,10.6,10.7,10.5c5.9,0,10.6-4.8,10.6-10.7c-0.1-8.4-0.2-16.3-0.2-23.7c-0.2-23.7-0.3-43.7-1.3-61.5
			c0.8,1.1,1.6,2.2,2.5,3.3c3,3.8,6.1,7.8,9.3,11.7c3,3.6,6.3,7.5,9.8,11.6c0.1,0.1,0.2,0.2,0.3,0.4l0.1,0.1
			c1.9,2.2,5.3,2.5,7.5,0.5c2.2-1.9,2.4-5.3,0.5-7.5l-0.1-0.1c-0.1-0.1-0.2-0.2-0.3-0.3c-3.2-3.7-6.4-7.5-9.7-11.5
			c-3.2-4-6.3-7.8-9.1-11.4c-4.9-6.3-9.1-12-12.5-16.9c-4.5-43.3-17-73.6-53.2-116.6c49.5,37.6,82.8,90.7,97.2,149.3
			C2604.1,446.6,2597.2,517.9,2564,582.3z"/>
	</g>
</g>
</svg>
