<?xml version="1.0" encoding="utf-8"?>
<!-- Generator: Adobe Illustrator 19.0.0, SVG Export Plug-In . SVG Version: 6.00 Build 0)  -->
<svg version="1.1" id="Capa_1" xmlns="http://www.w3.org/2000/svg" xmlns:xlink="http://www.w3.org/1999/xlink" x="0px" y="0px"
	 viewBox="1867.5 -25 900 950" style="enable-background:new 1867.5 -25 900 950;" xml:space="preserve">
<style type="text/css">
	.st0{fill:#D16A01;}
	.st1{fill:#FFFFFF;}
</style>
<g id="XMLID_1_">
	<circle id="XMLID_4_" class="st0" cx="2317.5" cy="450" r="395.2"/>
</g>
<g id="XMLID_35_">
	<g id="XMLID_20_">
		<path id="XMLID_33_" class="st1" d="M2373.5,687.8c-1,14.4,9.8,26.9,24.2,28c14.4,1,26.9-9.8,28-24.2l16.2-137.9l-64.8-9.3
			L2373.5,687.8z"/>
		<path id="XMLID_32_" class="st1" d="M2464.7,691.6c1,14.4,13.6,25.3,28,24.2c14.4-1,25.3-13.6,24.2-28l-3.7-143.5l-64.8,9.3
			L2464.7,691.6z"/>
		<path id="XMLID_31_" class="st1" d="M2318.6,479.6c-1.3,9.3,5.2,17.8,14.4,19.1c0.8,0.1,1.6,0.2,2.4,0.2c8.3,0,15.6-6.1,16.8-14.6
			c0.6-4.5,1.3-8.8,2.1-13l-33.1-7.1C2320.2,469.2,2319.4,474.3,2318.6,479.6z"/>
		<path id="XMLID_30_" class="st1" d="M2538.2,484.3c1.2,8.5,8.4,14.6,16.8,14.6c0.8,0,1.6-0.1,2.4-0.2c9.3-1.3,15.7-9.9,14.4-19.1
			c-0.7-5.3-1.6-10.4-2.5-15.4l-33.2,7.1C2536.9,475.5,2537.6,479.8,2538.2,484.3z"/>
		<path id="XMLID_27_" class="st1" d="M2358,466.4c0,0,11.8-45,25.4-67.2l-1,7.4L2364,536.8l0.8,0.1l80.4,11.5l80.4-11.5l0.8-0.1
			l-18.4-130.2l-1-7.4c13.6,22.2,25.4,67.2,25.4,67.2l51.6-11l1.3-0.3c-24.7-108.7-88.9-132.8-88.9-132.8h-2.2
			c-2.2-0.7-4.4-1-6.6-0.8c-0.5,0-1-0.1-1.6-0.1h-13.2c-1.2,6.2-4.8,13.3-9.7,18.7c1,4,1.4,9.7,1.4,18.3c0,14.8-1.4,33-3.7,49
			c-2.4,16.1-5.4,29.5-9.8,35.9c-1.3,1.8-3.1,3.6-5.9,3.6c-2.8-0.1-4.6-1.8-5.9-3.6c-1.3-1.9-2.4-4.3-3.4-7.1
			c-2-5.7-3.8-13.4-5.3-22.1c-3-17.4-4.8-38.8-4.8-55.7c0-7.3,0.3-12.6,1-16.4c0.1-0.7,0.3-1.3,0.4-1.9c-5-5.5-8.5-12.5-9.8-18.8
			h-13.2c-0.5,0-1,0-1.6,0.1c-2.2-0.2-4.4,0.1-6.6,0.8h-2.2c0,0-64.2,24.2-88.9,132.8l1.3,0.3L2358,466.4z"/>
		<path id="XMLID_22_" class="st1" d="M2432.8,345c-0.4,3.2-0.7,7.6-0.6,13.4c0,22.4,3.4,53.7,8.2,70.9c1.5,5.7,3.5,9.9,4.7,11
			c0,0.1,0.1,0.1,0.1,0.1c0.2-0.2,0.4-0.4,0.7-0.8c0.8-1.1,1.7-3.1,2.6-5.6c1.8-5.1,3.6-12.5,5-21c2.9-17,4.7-38.2,4.7-54.7
			c0-5.9-0.2-10.3-0.6-13.4c-3.8,2.6-8,4.3-12.4,4.3S2436.5,347.7,2432.8,345z M2440.6,399.6c0-5.3,2.1-9.5,4.6-9.5s4.6,4.3,4.6,9.5
			c0,5.3-2.1,9.5-4.6,9.5S2440.6,404.8,2440.6,399.6z M2450.8,369.4c0,6.4-2.5,11.6-5.6,11.6c-3.1,0-5.6-5.2-5.6-11.6
			s2.5-11.6,5.6-11.6C2448.3,357.8,2450.8,363,2450.8,369.4z"/>
		<path id="XMLID_3_" class="st1" d="M2434.4,307.5c25.3,5.9,50.6-9.8,56.4-35.1c5.9-25.3-9.8-50.6-35.1-56.4
			c-25.3-5.9-50.6,9.8-56.4,35.1C2393.4,276.4,2409.1,301.7,2434.4,307.5z"/>
	</g>
	<g id="XMLID_12_">
		<path id="XMLID_19_" class="st1" d="M2126.9,703.5v1.3c0,12.5,10.1,22.6,22.6,22.6c12.5,0,22.6-10.1,22.6-22.5
			c-7.7-0.1-26.3-0.3-45.1-1.4C2127,703.5,2126.9,703.5,2126.9,703.5z"/>
		<path id="XMLID_18_" class="st1" d="M2179.7,704.9c0,12.5,10.2,22.5,22.6,22.5c12.5,0,22.6-10.1,22.6-22.6v-1.3
			c-0.1,0-0.1,0-0.2,0C2205.9,704.6,2187.4,704.9,2179.7,704.9z"/>
		<path id="XMLID_17_" class="st1" d="M2165.1,308.5c25.5,5.9,51.1-9.9,57-35.5c5.9-25.5-9.9-51.1-35.5-57
			c-25.5-5.9-51.1,9.9-57,35.5C2123.7,277,2139.6,302.5,2165.1,308.5z"/>
		<path id="XMLID_15_" class="st1" d="M2100.6,445.2l-25.2-28.8c-0.6,2.7-1.1,5.4-1.5,8c-5.2,30.5-5.2,61.4-5.2,84.3
			c0,8.1,6.6,14.7,14.7,14.7c1.5,0,3-0.2,4.4-0.7c4-20,7.9-37.8,10.9-51.1C2099,463,2099.6,454.1,2100.6,445.2z"/>
		<path id="XMLID_14_" class="st1" d="M2253.2,471.6c3.1,13.3,7,31.1,10.9,51.1c1.4,0.4,2.9,0.7,4.4,0.7c8.1,0,14.7-6.6,14.7-14.7
			c-0.1-25,0-59.3-6.8-92.4l-25.2,28.8C2252.2,454,2252.8,463,2253.2,471.6z"/>
		<path id="XMLID_13_" class="st1" d="M2108.9,447.8c0,0-40.7,161.3-34.7,241.3c6,11.3,101.7,11.3,101.7,11.3s95.6,0,101.7-11.3
			c6-79.9-34.7-241.3-34.7-241.3l42.2-48.3c-15.5-45.8-46.3-65.5-71.3-74c-2.6,6.9-6.3,15.9-9,18.6c-4.5,4.5-28.9,35.1-28.9,35.1
			s-24.4-30.5-28.9-35.1c-2.7-2.7-6.4-11.7-9-18.6c-24.9,8.5-55.7,28.2-71.3,74L2108.9,447.8z"/>
	</g>
</g>
</svg>
