<?xml version="1.0" encoding="utf-8"?>
<!-- Generator: Adobe Illustrator 19.0.0, SVG Export Plug-In . SVG Version: 6.00 Build 0)  -->
<svg version="1.1" id="Capa_1" xmlns="http://www.w3.org/2000/svg" xmlns:xlink="http://www.w3.org/1999/xlink" x="0px" y="0px"
	 viewBox="0 0 900 950" style="enable-background:new 0 0 900 950;" xml:space="preserve">
<style type="text/css">
	.st0{fill:#03B3CB;}
	.st1{fill:#FFFFFF;}
</style>
<g>
	<circle id="XMLID_217_" class="st0" cx="450" cy="475" r="395.2"/>
	<path class="st1" d="M702,523.2c0-15.9-6.5-30.4-16.9-40.8c-10.5-10.5-24.9-16.9-40.8-16.9c-16,0-30.4,6.5-40.8,16.9
		c-10.5,10.5-16.9,24.9-16.9,40.8c0,15.9,6.5,30.4,16.9,40.8c10.5,10.5,24.9,16.9,40.8,16.9c1.9,0,3.7-0.1,5.6-0.3
		c0.3,4,0.5,8.1,0.5,12.2c0,38.9-14.3,74.1-37.4,99.6c-23.1,25.5-55,41.3-90.2,41.3s-67.2-15.8-90.2-41.3
		C409.3,667,395,631.8,395,592.9c0-1.2,0-2.4,0-3.6c0.2-0.1,0.5-0.2,0.7-0.3c0.1,0,0.2-0.1,0.3-0.1c1.1-0.4,2.1-0.9,3.2-1.4
		c0.2-0.1,0.4-0.2,0.7-0.3c1.1-0.5,2.3-1,3.4-1.6c0.1,0,0.2-0.1,0.2-0.1c1.1-0.6,2.2-1.1,3.4-1.8c0.2-0.1,0.3-0.2,0.5-0.3
		c1.1-0.6,2.3-1.3,3.4-2c0.2-0.1,0.4-0.2,0.6-0.4c1.2-0.7,2.3-1.4,3.5-2.1c0.1-0.1,0.3-0.2,0.4-0.2c1.2-0.8,2.4-1.5,3.6-2.4l0.1-0.1
		c1.2-0.8,2.5-1.7,3.7-2.5c0.2-0.1,0.3-0.2,0.5-0.4c1.2-0.9,2.4-1.7,3.6-2.7c0.1-0.1,0.3-0.2,0.4-0.3c2.5-1.9,5.1-3.9,7.6-6
		c0.1-0.1,0.2-0.2,0.3-0.3c1.2-1,2.5-2,3.7-3.1c0.2-0.1,0.3-0.3,0.5-0.4c1.2-1.1,2.5-2.1,3.7-3.3c0.1-0.1,0.1-0.1,0.2-0.2
		c1.3-1.1,2.5-2.3,3.8-3.4c0.1,0,0.1-0.1,0.2-0.1c1.2-1.1,2.4-2.3,3.7-3.4c0.2-0.2,0.3-0.3,0.5-0.5c1.2-1.1,2.4-2.3,3.5-3.4
		c0.2-0.2,0.3-0.3,0.5-0.5c1.2-1.2,2.4-2.4,3.6-3.6c27.8-28.4,53.5-63.8,65.6-89.7c0.2-0.4,0.4-0.9,0.5-1.3c0-0.1,0.1-0.1,0.1-0.2
		c0.2-0.4,0.3-0.9,0.4-1.3c0-0.1,0-0.1,0-0.2c0.2-0.9,0.3-1.9,0.4-2.8c0-0.1,0-0.1,0-0.2c0-0.5,0-0.9,0-1.4v-0.1
		c0-0.5-0.1-0.9-0.1-1.4l0,0c-0.1-0.4-0.2-0.9-0.3-1.3c0-0.1,0-0.2-0.1-0.2c-0.1-0.4-0.2-0.8-0.4-1.2c0-0.1-0.1-0.1-0.1-0.2
		c-0.1-0.4-0.3-0.7-0.5-1.1c0-0.1-0.1-0.1-0.1-0.2c-0.1-0.3-0.3-0.6-0.4-0.9c6.7-15.1,13.7-31.3,19.4-47.9v-0.1
		c0.3-0.8,0.5-1.6,0.8-2.4c0-0.1,0.1-0.2,0.1-0.3c0.3-0.8,0.5-1.5,0.7-2.3c0-0.1,0.1-0.3,0.1-0.4c0.2-0.7,0.5-1.5,0.7-2.2
		c0.1-0.2,0.1-0.3,0.2-0.5c0.2-0.7,0.4-1.4,0.7-2.1c0.1-0.2,0.1-0.4,0.2-0.6c0.2-0.7,0.4-1.4,0.6-2.1c0.1-0.2,0.1-0.4,0.2-0.6
		c0.2-0.7,0.4-1.4,0.6-2.1c0.1-0.2,0.1-0.4,0.2-0.6c0.2-0.7,0.4-1.4,0.6-2.1c0.1-0.2,0.1-0.4,0.2-0.6c0.2-0.7,0.4-1.4,0.5-2.1
		c0.1-0.2,0.1-0.4,0.2-0.6c0.2-0.7,0.4-1.4,0.5-2.1c0.1-0.2,0.1-0.4,0.2-0.6c0.2-0.7,0.3-1.4,0.5-2.1c0.1-0.2,0.1-0.4,0.1-0.6
		c0.2-0.7,0.3-1.4,0.5-2.1c0-0.2,0.1-0.4,0.1-0.6c0.2-0.7,0.3-1.4,0.5-2.1c0-0.2,0.1-0.4,0.1-0.6c0.1-0.7,0.3-1.5,0.4-2.2
		c0-0.2,0.1-0.3,0.1-0.5c0.1-0.8,0.3-1.5,0.4-2.3c0-0.1,0-0.3,0.1-0.4c0.1-0.8,0.3-1.6,0.4-2.4c0-0.1,0-0.1,0-0.2
		c1.1-7.1,1.9-14.2,2-21.3c0-0.1,0-0.2,0-0.3c0-0.8,0-1.5,0-2.2c0-0.2,0-0.3,0-0.5c0-0.7,0-1.4,0-2.1c0-0.2,0-0.5,0-0.7
		c0-0.7,0-1.3-0.1-2c0-0.3,0-0.5,0-0.8c0-0.6-0.1-1.3-0.1-1.9c0-0.3,0-0.6,0-0.9c0-0.6-0.1-1.2-0.1-1.9c0-0.3,0-0.6-0.1-0.9
		c0-0.6-0.1-1.2-0.2-1.8c0-0.3-0.1-0.6-0.1-1c-0.1-0.6-0.1-1.2-0.2-1.8c0-0.3-0.1-0.7-0.1-1c-0.1-0.6-0.2-1.2-0.2-1.7
		c0-0.3-0.1-0.7-0.1-1c-0.1-0.6-0.2-1.1-0.3-1.7c-0.1-0.3-0.1-0.7-0.2-1c-0.1-0.6-0.2-1.1-0.3-1.7c-0.1-0.3-0.1-0.7-0.2-1
		c-0.1-0.6-0.2-1.1-0.3-1.7c-0.1-0.4-0.2-0.7-0.2-1c-0.1-0.6-0.3-1.1-0.4-1.7c-0.1-0.4-0.2-0.7-0.3-1.1c-0.1-0.5-0.3-1.1-0.4-1.6
		c-0.1-0.4-0.2-0.7-0.3-1.1c-0.2-0.5-0.3-1.1-0.5-1.6c-0.1-0.4-0.2-0.7-0.3-1.1c-0.2-0.5-0.3-1.1-0.5-1.6c-0.1-0.4-0.2-0.7-0.4-1.1
		c-0.2-0.5-0.4-1.1-0.6-1.6c-0.1-0.4-0.3-0.7-0.4-1.1c-0.2-0.5-0.4-1.1-0.6-1.6c-0.1-0.3-0.3-0.7-0.4-1c-0.2-0.5-0.4-1.1-0.7-1.6
		c-0.1-0.3-0.3-0.7-0.4-1c-0.2-0.5-0.5-1.1-0.7-1.6c-0.1-0.3-0.3-0.6-0.4-0.9c-0.3-0.6-0.5-1.1-0.8-1.7c-0.1-0.3-0.3-0.5-0.4-0.8
		c-0.3-0.6-0.6-1.2-0.9-1.8c0,0,0,0,0-0.1c-0.4-0.8-0.9-1.7-1.3-2.5c-0.1-0.2-0.3-0.5-0.4-0.7c-0.4-0.6-0.7-1.2-1.1-1.9
		c-0.2-0.4-0.4-0.7-0.7-1.1c-0.3-0.5-0.6-1-0.9-1.4c-0.2-0.4-0.5-0.7-0.7-1.1c-0.3-0.4-0.6-0.9-0.9-1.3c-0.2-0.4-0.5-0.7-0.7-1.1
		c-0.3-0.4-0.6-0.8-0.9-1.2c-0.2-0.3-0.5-0.7-0.7-1c-0.3-0.4-0.6-0.8-0.9-1.2c-0.2-0.3-0.5-0.6-0.7-1c-0.3-0.4-0.6-0.8-1-1.2
		c-0.2-0.3-0.5-0.6-0.7-0.9c-0.4-0.4-0.7-0.8-1.1-1.2c-0.2-0.2-0.4-0.5-0.6-0.7c-0.6-0.6-1.1-1.2-1.7-1.8c-0.1-0.1-0.2-0.2-0.3-0.3
		c-0.5-0.5-1-1-1.5-1.4c-0.2-0.2-0.5-0.4-0.7-0.6c-0.4-0.3-0.8-0.7-1.1-1c-0.3-0.2-0.5-0.4-0.8-0.7c-0.4-0.3-0.7-0.6-1.1-0.9
		c-0.3-0.2-0.5-0.4-0.8-0.6c-0.4-0.3-0.7-0.6-1.1-0.8c-0.3-0.2-0.5-0.4-0.8-0.6c-0.4-0.3-0.7-0.5-1.1-0.8c-0.3-0.2-0.5-0.4-0.8-0.6
		c-0.4-0.3-0.8-0.5-1.2-0.8c-0.3-0.2-0.5-0.3-0.8-0.5c-0.4-0.3-0.9-0.5-1.3-0.8c-0.2-0.1-0.4-0.3-0.6-0.4c-0.6-0.4-1.3-0.7-1.9-1.1
		c-0.1-0.1-0.3-0.1-0.4-0.2c-0.5-0.3-1-0.5-1.6-0.8c-0.2-0.1-0.5-0.2-0.8-0.4c-0.4-0.2-0.8-0.4-1.2-0.6c-0.3-0.1-0.6-0.2-0.8-0.4
		c-0.4-0.2-0.8-0.3-1.2-0.5c-0.3-0.1-0.6-0.2-0.9-0.3c-0.4-0.2-0.8-0.3-1.2-0.4c-0.3-0.1-0.6-0.2-0.9-0.3c-0.4-0.1-0.8-0.3-1.2-0.4
		c-0.3-0.1-0.6-0.2-0.9-0.3c-0.4-0.1-0.8-0.2-1.2-0.4c-0.3-0.1-0.6-0.2-0.9-0.2c-0.5-0.1-0.9-0.2-1.4-0.4c-0.2-0.1-0.5-0.1-0.7-0.2
		c-0.7-0.2-1.4-0.3-2.1-0.5c-0.2,0-0.4-0.1-0.6-0.1c-0.5-0.1-1-0.2-1.5-0.3c-0.3-0.1-0.6-0.1-0.9-0.1c-0.4-0.1-0.8-0.1-1.2-0.2
		c-0.3,0-0.6-0.1-1-0.1c-0.4-0.1-0.8-0.1-1.2-0.2c-0.3,0-0.7-0.1-1-0.1c-0.4,0-0.8-0.1-1.2-0.1c-0.3,0-0.7-0.1-1-0.1
		c-0.4,0-0.8-0.1-1.2-0.1c-0.3,0-0.7,0-1-0.1c-0.4,0-0.8,0-1.2-0.1c-0.3,0-0.7,0-1,0c-0.4,0-0.8,0-1.3,0c-0.3,0-0.6,0-0.9,0
		c-0.7,0-1.4,0-2.1,0c-0.3,0-0.6,0-0.9,0c-0.4,0-0.8,0-1.2,0c-0.3,0-0.7,0-1,0.1c-0.4,0-0.7,0-1.1,0.1c-0.4,0-0.7,0-1.1,0.1
		c-0.4,0-0.7,0.1-1.1,0.1s-0.7,0.1-1.1,0.1s-0.7,0.1-1.1,0.1s-0.7,0.1-1.1,0.1c-0.3,0-0.7,0.1-1,0.1c-0.4,0-0.7,0.1-1.1,0.1
		c-0.3,0-0.7,0.1-1,0.1c-0.4,0.1-0.7,0.1-1.1,0.2c-0.3,0.1-0.7,0.1-1,0.2c-0.9,0.1-1.7,0.3-2.6,0.4c-0.2,0-0.4,0.1-0.5,0.1
		c-0.4,0.1-0.8,0.2-1.2,0.2c-0.3,0.1-0.6,0.1-0.9,0.2c-0.4,0.1-0.8,0.2-1.2,0.2c-0.3,0.1-0.6,0.1-1,0.2c-0.4,0.1-0.8,0.2-1.2,0.3
		c-0.3,0.1-0.6,0.1-0.9,0.2c-0.4,0.1-0.8,0.2-1.2,0.3c-0.3,0.1-0.6,0.1-0.9,0.2c-0.4,0.1-0.8,0.2-1.2,0.3c-0.3,0.1-0.6,0.2-0.9,0.2
		c-0.4,0.1-0.8,0.2-1.2,0.3c-0.3,0.1-0.6,0.2-0.9,0.2c-0.4,0.1-0.8,0.2-1.2,0.3c-0.3,0.1-0.5,0.1-0.8,0.2c-1.5,0.4-3,0.9-4.5,1.3
		c-0.3,0.1-0.5,0.2-0.8,0.2c-0.4,0.1-0.8,0.2-1.2,0.4c-0.3,0.1-0.6,0.2-0.8,0.3c-0.4,0.1-0.8,0.2-1.2,0.4c-0.3,0.1-0.6,0.2-0.8,0.3
		c-0.4,0.1-0.8,0.3-1.1,0.4c-0.3,0.1-0.6,0.2-0.8,0.3c-0.4,0.1-0.8,0.3-1.1,0.4c-0.3,0.1-0.5,0.2-0.8,0.3c-0.4,0.1-0.8,0.3-1.1,0.4
		c-0.3,0.1-0.5,0.2-0.8,0.3c-0.4,0.1-0.7,0.3-1.1,0.4c-0.3,0.1-0.5,0.2-0.8,0.3c-0.7,0.2-1.4,0.5-2,0.7c-0.3,0.1-0.6,0.2-0.9,0.3
		s-0.6,0.2-0.9,0.3s-0.5,0.2-0.8,0.3c-1-0.6-2.2-1.1-3.3-1.4c-0.1,0-0.1,0-0.2,0c-0.5-0.2-1-0.3-1.5-0.4h-0.1
		c-0.5-0.1-1-0.2-1.5-0.2c-0.1,0-0.2,0-0.4,0c-0.5,0-1-0.1-1.6-0.1l0,0l0,0l0,0c-9.6,0-17.4,7.8-17.4,17.4s7.8,17.4,17.4,17.4l0,0
		l0,0h0.1c0.6,0,1.1,0,1.6-0.1c0.2,0,0.3-0.1,0.5-0.1c0.4-0.1,0.8-0.1,1.2-0.2c0.2,0,0.3-0.1,0.4-0.1c0.4-0.1,0.8-0.2,1.2-0.3
		c0.1,0,0.2-0.1,0.4-0.1c0.4-0.1,0.8-0.3,1.2-0.5c0.1,0,0.2-0.1,0.3-0.1c0.4-0.2,0.8-0.4,1.2-0.6c0.1,0,0.1-0.1,0.2-0.1
		c0.4-0.2,0.8-0.5,1.2-0.7c0.1,0,0.1-0.1,0.2-0.1c0.4-0.3,0.8-0.6,1.2-0.9c0.1,0,0.1-0.1,0.2-0.1c0.4-0.3,0.7-0.6,1.1-1
		c0.1-0.1,0.1-0.1,0.2-0.2c0.3-0.3,0.7-0.7,1-1.1c0.1-0.1,0.1-0.1,0.2-0.2c0.3-0.4,0.6-0.7,0.8-1.1c0.1-0.1,0.1-0.2,0.2-0.3
		c0.2-0.4,0.5-0.7,0.7-1.1c0.1-0.1,0.1-0.2,0.2-0.4c0.2-0.4,0.4-0.7,0.5-1.1c0.1-0.2,0.1-0.3,0.2-0.5c0.1-0.3,0.3-0.7,0.4-1
		c0.1-0.2,0.1-0.4,0.2-0.6c0.1-0.3,0.2-0.7,0.3-1c0.1-0.2,0.1-0.5,0.2-0.7c0.1-0.3,0.1-0.6,0.1-0.9s0.1-0.5,0.1-0.8
		c0-0.1,0-0.1,0-0.2c0.1,0,0.3-0.1,0.4-0.1c0.2-0.1,0.4-0.2,0.7-0.2c0.3-0.1,0.6-0.2,0.9-0.3c0.2-0.1,0.5-0.2,0.7-0.3
		c0.3-0.1,0.6-0.2,0.9-0.3c0.3-0.1,0.5-0.2,0.8-0.3c0.3-0.1,0.5-0.2,0.8-0.3c0.6-0.2,1.1-0.4,1.7-0.6c0.2-0.1,0.5-0.2,0.7-0.2
		c0.3-0.1,0.6-0.2,1-0.3c0.2-0.1,0.5-0.2,0.7-0.2c0.3-0.1,0.6-0.2,1-0.3c0.2-0.1,0.5-0.1,0.7-0.2c0.3-0.1,0.7-0.2,1-0.3
		c0.2-0.1,0.5-0.1,0.7-0.2c0.3-0.1,0.7-0.2,1-0.3c0.2-0.1,0.4-0.1,0.6-0.2c1.2-0.4,2.5-0.7,3.7-1c0.2-0.1,0.4-0.1,0.6-0.2
		c0.3-0.1,0.7-0.2,1-0.3c0.2-0.1,0.5-0.1,0.7-0.2c0.3-0.1,0.7-0.2,1-0.3c0.2-0.1,0.5-0.1,0.7-0.2c0.3-0.1,0.7-0.2,1-0.2
		c0.2-0.1,0.5-0.1,0.7-0.2c0.3-0.1,0.7-0.2,1-0.2c0.2,0,0.4-0.1,0.6-0.1c0.7-0.2,1.4-0.3,2.2-0.4c0.2,0,0.3-0.1,0.5-0.1
		c0.3-0.1,0.7-0.1,1-0.2c0.3,0,0.5-0.1,0.8-0.1c0.3-0.1,0.6-0.1,1-0.2c0.3,0,0.5-0.1,0.8-0.1c0.3-0.1,0.6-0.1,1-0.1
		c0.3,0,0.5-0.1,0.8-0.1s0.6-0.1,0.9-0.1s0.6-0.1,0.8-0.1c0.3,0,0.6-0.1,0.9-0.1s0.7-0.1,1-0.1c0.5,0,0.9-0.1,1.4-0.1
		c0.3,0,0.7-0.1,1-0.1s0.6,0,0.8-0.1c0.3,0,0.6,0,0.9-0.1c0.3,0,0.6,0,0.9,0s0.6,0,0.9,0s0.6,0,0.8,0c0.3,0,0.6,0,1,0
		c0.3,0,0.5,0,0.8,0s0.7,0,1,0c0.2,0,0.5,0,0.7,0c0.6,0,1.1,0,1.7,0.1c0.2,0,0.4,0,0.6,0c0.4,0,0.8,0,1.1,0.1c0.2,0,0.5,0,0.7,0.1
		c0.3,0,0.7,0.1,1,0.1c0.2,0,0.5,0.1,0.7,0.1c0.3,0,0.7,0.1,1,0.1c0.2,0,0.5,0.1,0.7,0.1c0.4,0,0.7,0.1,1.1,0.2
		c0.2,0,0.4,0.1,0.7,0.1c0.4,0.1,0.9,0.2,1.3,0.2c0.1,0,0.3,0,0.4,0.1c0.6,0.1,1.1,0.2,1.7,0.4c0.2,0,0.3,0.1,0.5,0.1
		c0.4,0.1,0.8,0.2,1.2,0.3c0.2,0.1,0.4,0.1,0.6,0.2c0.4,0.1,0.7,0.2,1.1,0.3c0.2,0.1,0.4,0.1,0.6,0.2c0.4,0.1,0.7,0.2,1.1,0.3
		c0.2,0.1,0.4,0.1,0.6,0.2c0.4,0.1,0.8,0.3,1.1,0.4c0.2,0.1,0.3,0.1,0.5,0.2c1.1,0.4,2.2,0.9,3.2,1.4c0.1,0.1,0.3,0.1,0.4,0.2
		c0.4,0.2,0.8,0.4,1.1,0.6c0.2,0.1,0.3,0.2,0.5,0.3c0.4,0.2,0.7,0.4,1.1,0.6c0.2,0.1,0.3,0.2,0.5,0.3c0.4,0.2,0.7,0.4,1.1,0.7
		c0.2,0.1,0.3,0.2,0.5,0.3c0.4,0.3,0.8,0.5,1.2,0.8c0.1,0.1,0.2,0.1,0.3,0.2c0.5,0.4,1,0.7,1.5,1.1c0,0,0.1,0,0.1,0.1
		c0.5,0.4,0.9,0.7,1.4,1.1c0.1,0.1,0.2,0.2,0.4,0.3c0.4,0.3,0.7,0.6,1.1,0.9c0.1,0.1,0.3,0.3,0.4,0.4c0.3,0.3,0.7,0.6,1,0.9
		c0.1,0.1,0.3,0.3,0.4,0.4c0.4,0.4,0.7,0.7,1.1,1.1c0.1,0.1,0.2,0.2,0.3,0.3c0.9,1,1.8,2,2.7,3.1l0.1,0.1c0.4,0.5,0.8,1,1.2,1.5
		c0.1,0.1,0.2,0.3,0.3,0.4c0.3,0.4,0.7,0.9,1,1.4c0.1,0.1,0.2,0.3,0.3,0.4c0.3,0.5,0.6,0.9,1,1.4c0.1,0.1,0.2,0.3,0.3,0.4
		c0.4,0.6,0.7,1.1,1.1,1.7c0,0.1,0.1,0.1,0.1,0.2c0.4,0.7,0.8,1.4,1.2,2.1c1.3,2.3,2.4,4.6,3.4,6.9c0,0.1,0.1,0.2,0.1,0.3
		c0.3,0.7,0.6,1.4,0.9,2c0.1,0.1,0.1,0.3,0.2,0.4c0.3,0.6,0.5,1.3,0.7,1.9c0.1,0.2,0.1,0.4,0.2,0.6c0.2,0.6,0.4,1.2,0.6,1.8
		c0.1,0.2,0.1,0.4,0.2,0.6c0.2,0.6,0.4,1.1,0.6,1.7c0.1,0.2,0.1,0.5,0.2,0.7c0.2,0.6,0.3,1.1,0.5,1.7c0.1,0.2,0.1,0.5,0.2,0.7
		c0.1,0.5,0.3,1.1,0.4,1.6c0.1,0.3,0.1,0.5,0.2,0.8c0.1,0.5,0.3,1.1,0.4,1.6c0.1,0.3,0.1,0.5,0.2,0.8c0.1,0.5,0.2,1.1,0.3,1.6
		c0.1,0.3,0.1,0.5,0.2,0.8c0.1,0.5,0.2,1.1,0.3,1.6c0,0.3,0.1,0.6,0.1,0.8c0.1,0.5,0.2,1.1,0.2,1.6c0,0.3,0.1,0.6,0.1,0.9
		c0.1,0.5,0.1,1.1,0.2,1.6c0,0.3,0.1,0.6,0.1,0.9c0.1,0.5,0.1,1.1,0.2,1.6c0,0.3,0.1,0.6,0.1,0.9c0,0.5,0.1,1.1,0.1,1.6
		c0,0.3,0,0.6,0.1,0.9c0,0.5,0.1,1.1,0.1,1.6c0,0.3,0,0.6,0,0.8c0,0.6,0,1.1,0.1,1.7c0,0.3,0,0.5,0,0.8c0,0.6,0,1.1,0,1.7
		c0,0.3,0,0.5,0,0.8c0,0.6,0,1.2,0,1.8c0,0.2,0,0.5,0,0.7c0,0.7,0,1.3-0.1,2c0,0.2,0,0.4,0,0.5c0,0.8-0.1,1.6-0.1,2.4v0.1
		c-0.1,1.7-0.2,3.4-0.4,5.1c0,0.2,0,0.4-0.1,0.6c-0.1,0.6-0.1,1.3-0.2,1.9c0,0.3-0.1,0.6-0.1,0.9c-0.1,0.6-0.1,1.1-0.2,1.7
		c0,0.3-0.1,0.7-0.1,1c-0.1,0.5-0.1,1-0.2,1.5c-0.1,0.4-0.1,0.7-0.2,1.1c-0.1,0.5-0.1,1-0.2,1.4c-0.1,0.4-0.1,0.8-0.2,1.1
		c-0.1,0.5-0.2,0.9-0.2,1.4c-0.1,0.4-0.1,0.8-0.2,1.2c-0.1,0.4-0.2,0.9-0.2,1.3c-0.1,0.4-0.2,0.8-0.2,1.2c-0.1,0.4-0.2,0.9-0.3,1.3
		s-0.2,0.8-0.3,1.2c-0.1,0.4-0.2,0.8-0.3,1.3c-0.1,0.4-0.2,0.8-0.3,1.3c-0.1,0.4-0.2,0.8-0.3,1.2c-0.1,0.4-0.2,0.9-0.3,1.3
		s-0.2,0.8-0.3,1.2c-0.1,0.4-0.2,0.9-0.3,1.3s-0.2,0.8-0.3,1.2c-0.1,0.4-0.2,0.9-0.3,1.3s-0.2,0.8-0.3,1.2c-0.1,0.5-0.2,0.9-0.4,1.4
		c-0.1,0.4-0.2,0.8-0.3,1.1c-0.1,0.5-0.3,0.9-0.4,1.4c-0.1,0.4-0.2,0.7-0.3,1.1c-0.1,0.5-0.3,0.9-0.4,1.4c-0.1,0.4-0.2,0.7-0.3,1.1
		c-0.1,0.5-0.3,1-0.4,1.4c-0.1,0.3-0.2,0.7-0.3,1c-0.2,0.5-0.3,1-0.5,1.5c-0.1,0.3-0.2,0.7-0.3,1c-0.2,0.5-0.3,1-0.5,1.5
		c-0.1,0.3-0.2,0.6-0.3,0.9c-0.2,0.5-0.4,1.1-0.5,1.6c-0.1,0.2-0.2,0.5-0.3,0.7c-0.2,0.6-0.4,1.2-0.6,1.7c-0.1,0.2-0.1,0.3-0.2,0.5
		c-1.4,3.9-2.8,7.8-4.3,11.6l0,0c-0.3,0.7-0.5,1.4-0.8,2.1c0,0.1-0.1,0.2-0.1,0.3c-0.3,0.7-0.5,1.3-0.8,2c-0.1,0.2-0.1,0.3-0.2,0.5
		c-0.2,0.6-0.5,1.2-0.7,1.8c-0.1,0.2-0.2,0.4-0.2,0.6c-0.2,0.6-0.5,1.2-0.7,1.8c-0.1,0.2-0.2,0.4-0.2,0.6c-0.2,0.6-0.5,1.2-0.7,1.8
		c-0.1,0.2-0.2,0.4-0.2,0.6c-0.2,0.6-0.5,1.2-0.7,1.7c-0.1,0.2-0.2,0.4-0.3,0.6c-0.2,0.6-0.5,1.1-0.7,1.7c-0.1,0.2-0.2,0.4-0.3,0.6
		c-0.2,0.6-0.5,1.1-0.7,1.7c-0.1,0.2-0.2,0.4-0.3,0.6c-0.2,0.6-0.5,1.1-0.7,1.7c-0.1,0.2-0.2,0.4-0.3,0.6c-0.2,0.6-0.5,1.1-0.7,1.7
		c-0.1,0.2-0.2,0.4-0.2,0.5c-0.2,0.6-0.5,1.1-0.7,1.7c-0.1,0.2-0.2,0.4-0.3,0.6c-0.2,0.6-0.5,1.1-0.7,1.7c-0.1,0.2-0.2,0.4-0.2,0.5
		c-0.3,0.6-0.5,1.2-0.8,1.7c-0.1,0.2-0.2,0.4-0.2,0.5c-0.3,0.6-0.5,1.1-0.7,1.7c0,0,0,0.1-0.1,0.1s-0.1,0-0.2,0
		c-0.4,0.1-0.8,0.2-1.2,0.4c-0.1,0-0.2,0.1-0.3,0.1c-0.5,0.2-1,0.4-1.5,0.6c0,0,0,0-0.1,0c-0.5,0.2-0.9,0.5-1.3,0.7
		c-0.1,0.1-0.3,0.2-0.4,0.3c-0.3,0.2-0.6,0.4-0.9,0.7c-0.2,0.1-0.3,0.3-0.5,0.4c-0.3,0.2-0.5,0.5-0.8,0.7c-0.2,0.1-0.3,0.3-0.5,0.5
		s-0.5,0.5-0.7,0.8c-0.1,0.2-0.3,0.3-0.4,0.5c-0.2,0.3-0.4,0.6-0.6,0.9c-0.1,0.2-0.2,0.3-0.3,0.5c-0.2,0.4-0.5,0.8-0.7,1.2
		c0,0.1-0.1,0.2-0.1,0.3c-7.4,15.8-20.7,35.8-36.6,55.2c0,0,0,0.1-0.1,0.1c-0.2,0.3-0.5,0.6-0.7,0.8c-7,8.6-14.6,17-22.3,24.9
		C417.8,540.1,398,556,382.4,561c-10.5-3.4-22.9-11.7-35.8-22.7c-0.8-0.7-1.6-1.3-2.3-2c-0.1-0.1-0.3-0.2-0.4-0.4
		c-0.8-0.7-1.6-1.5-2.5-2.2c-0.9-0.8-1.8-1.7-2.8-2.5c-1.2-1.1-2.4-2.3-3.6-3.4c-2.4-2.3-4.8-4.7-7.2-7.2
		c-16.8-17.1-32.6-36.8-44.5-54.8c-6.3-9.4-11.4-18.4-15.2-26.3c-0.2-0.5-0.5-1-0.8-1.5c-0.1-0.1-0.2-0.3-0.3-0.4
		c-0.2-0.3-0.4-0.7-0.7-1c-0.1-0.2-0.2-0.3-0.4-0.4c-0.2-0.3-0.5-0.6-0.7-0.8c-0.1-0.1-0.3-0.3-0.4-0.4c-0.3-0.3-0.5-0.5-0.8-0.7
		c-0.1-0.1-0.3-0.2-0.4-0.3c-0.3-0.2-0.6-0.5-1-0.7c-0.1-0.1-0.2-0.2-0.4-0.3c-0.4-0.3-0.9-0.5-1.4-0.8l0,0c-0.5-0.2-1-0.4-1.5-0.6
		c-0.1,0-0.2-0.1-0.3-0.1c-0.4-0.1-0.8-0.3-1.2-0.4c-0.1,0-0.1,0-0.2,0c-0.1-0.2-0.2-0.4-0.3-0.7v-0.1c-7.5-17-15.3-35.3-21.1-54
		v-0.1c-0.2-0.8-0.5-1.6-0.7-2.4c0-0.1-0.1-0.2-0.1-0.3c-0.2-0.7-0.4-1.5-0.6-2.2c0-0.1-0.1-0.3-0.1-0.4c-0.2-0.7-0.4-1.4-0.6-2.1
		c0-0.2-0.1-0.3-0.1-0.5c-0.2-0.7-0.4-1.4-0.6-2.1c0-0.2-0.1-0.3-0.1-0.5c-0.2-0.7-0.3-1.3-0.5-2c0-0.2-0.1-0.4-0.1-0.6
		c-0.2-0.7-0.3-1.3-0.5-2c0-0.2-0.1-0.4-0.1-0.6c-0.2-0.7-0.3-1.3-0.4-2c0-0.2-0.1-0.4-0.1-0.6c-0.1-0.6-0.3-1.3-0.4-1.9
		c0-0.2-0.1-0.4-0.1-0.6c-0.1-0.6-0.3-1.3-0.4-1.9c0-0.2-0.1-0.4-0.1-0.6c-0.1-0.7-0.2-1.3-0.4-2c0-0.2-0.1-0.4-0.1-0.6
		c-0.1-0.7-0.2-1.3-0.3-2c0-0.2-0.1-0.4-0.1-0.6c-0.1-0.7-0.2-1.3-0.3-2c0-0.2-0.1-0.3-0.1-0.5c-0.1-0.7-0.2-1.4-0.3-2.1
		c0-0.1,0-0.3-0.1-0.4c-0.1-0.8-0.2-1.6-0.3-2.3c0-0.1,0-0.1,0-0.2c-0.4-3.4-0.7-6.8-0.8-10.2c0-0.1,0-0.2,0-0.3
		c0-0.7-0.1-1.5-0.1-2.2c0-0.2,0-0.4,0-0.6c0-0.6,0-1.3,0-1.9c0-0.2,0-0.5,0-0.7c0-0.6,0-1.2,0-1.7c0-0.3,0-0.6,0-0.8
		c0-0.5,0-1.1,0.1-1.6c0-0.3,0-0.6,0-0.9c0-0.5,0.1-1,0.1-1.6c0-0.3,0-0.6,0.1-0.9c0-0.5,0.1-1,0.1-1.5c0-0.3,0.1-0.6,0.1-1
		c0-0.5,0.1-1,0.2-1.5c0-0.3,0.1-0.7,0.1-1c0.1-0.5,0.1-1,0.2-1.5c0-0.3,0.1-0.7,0.1-1c0.1-0.5,0.1-1,0.2-1.4c0.1-0.3,0.1-0.7,0.2-1
		c0.1-0.5,0.2-0.9,0.3-1.4c0.1-0.3,0.1-0.7,0.2-1c0.1-0.5,0.2-0.9,0.3-1.4c0.1-0.3,0.1-0.7,0.2-1c0.1-0.5,0.2-0.9,0.3-1.4
		c0.1-0.3,0.2-0.7,0.2-1c0.1-0.5,0.2-0.9,0.4-1.4c0.1-0.3,0.2-0.7,0.3-1c0.1-0.5,0.3-0.9,0.4-1.4c0.1-0.3,0.2-0.7,0.3-1
		c0.1-0.5,0.3-0.9,0.5-1.4c0.1-0.3,0.2-0.6,0.3-0.9c0.2-0.5,0.3-0.9,0.5-1.4c0.1-0.3,0.2-0.6,0.3-0.9c0.2-0.5,0.4-1,0.6-1.4
		c0.1-0.3,0.2-0.6,0.3-0.9c0.2-0.5,0.4-1,0.6-1.5c0.1-0.3,0.2-0.5,0.3-0.8c0.2-0.5,0.5-1.1,0.7-1.6c0.1-0.2,0.2-0.4,0.3-0.7
		c0.3-0.6,0.6-1.3,1-1.9c0.1-0.1,0.1-0.2,0.2-0.3c0.4-0.8,0.8-1.5,1.2-2.3c0.4-0.7,0.8-1.3,1.1-2c0.1-0.2,0.2-0.3,0.3-0.5
		c0.3-0.5,0.6-1,0.9-1.4c0.1-0.2,0.3-0.4,0.4-0.6c0.3-0.4,0.6-0.8,0.8-1.2c0.1-0.2,0.3-0.4,0.4-0.6c0.3-0.4,0.6-0.8,0.9-1.2
		c0.1-0.2,0.3-0.3,0.4-0.5c0.3-0.5,0.7-0.9,1-1.3c0.1-0.1,0.2-0.2,0.2-0.3c0.4-0.5,0.9-1.1,1.3-1.6l0.1-0.1c0.4-0.5,0.8-0.9,1.2-1.4
		c0.1-0.1,0.3-0.3,0.4-0.4c0.3-0.3,0.7-0.7,1-1c0.2-0.1,0.3-0.3,0.5-0.4c0.3-0.3,0.6-0.6,1-0.9c0.2-0.1,0.3-0.3,0.5-0.4
		c0.3-0.3,0.7-0.6,1-0.9c0.1-0.1,0.3-0.2,0.4-0.4c0.4-0.3,0.9-0.7,1.3-1c0.1,0,0.1-0.1,0.2-0.1c0.5-0.4,1-0.7,1.5-1.1
		c0.1-0.1,0.2-0.1,0.3-0.2c0.4-0.3,0.8-0.5,1.2-0.8c0.2-0.1,0.3-0.2,0.5-0.3c0.3-0.2,0.7-0.4,1-0.6c0.2-0.1,0.4-0.2,0.6-0.3
		c0.3-0.2,0.7-0.4,1-0.6c0.2-0.1,0.4-0.2,0.5-0.3c0.4-0.2,0.7-0.4,1.1-0.6c0.2-0.1,0.3-0.2,0.5-0.2c0.5-0.2,1-0.5,1.6-0.7l0,0
		c0.5-0.2,1.1-0.5,1.6-0.7c0.2-0.1,0.3-0.1,0.5-0.2c0.4-0.1,0.7-0.3,1.1-0.4c0.2-0.1,0.4-0.1,0.6-0.2c0.3-0.1,0.7-0.2,1-0.3
		c0.2-0.1,0.4-0.1,0.7-0.2c0.3-0.1,0.7-0.2,1-0.3c0.2-0.1,0.4-0.1,0.6-0.2c0.4-0.1,0.8-0.2,1.1-0.3c0.2,0,0.4-0.1,0.5-0.1
		c0.6-0.1,1.1-0.2,1.7-0.4c0.1,0,0.3-0.1,0.4-0.1c0.4-0.1,0.8-0.2,1.3-0.2c0.2,0,0.5-0.1,0.7-0.1c0.3-0.1,0.7-0.1,1-0.2
		c0.2,0,0.5-0.1,0.7-0.1c0.3,0,0.7-0.1,1-0.1c0.2,0,0.5-0.1,0.7-0.1c0.3,0,0.7-0.1,1-0.1c0.2,0,0.5,0,0.7-0.1c0.4,0,0.8,0,1.1-0.1
		c0.2,0,0.4,0,0.6,0c0.6,0,1.1,0,1.7-0.1c0.2,0,0.5,0,0.7,0c0.3,0,0.7,0,1,0s0.5,0,0.8,0s0.6,0,1,0c0.3,0,0.6,0,0.8,0
		c0.3,0,0.6,0,0.9,0s0.6,0,0.8,0c0.3,0,0.6,0,0.9,0.1c0.3,0,0.5,0,0.8,0.1c0.4,0,0.7,0.1,1.1,0.1s0.8,0.1,1.2,0.1
		c0.4,0,0.8,0.1,1.1,0.1c0.3,0,0.6,0.1,0.9,0.1s0.6,0.1,0.9,0.1s0.6,0.1,0.9,0.1s0.6,0.1,0.9,0.1s0.6,0.1,0.9,0.1s0.6,0.1,0.9,0.1
		s0.6,0.1,0.9,0.2c0.3,0.1,0.6,0.1,0.9,0.2c0.3,0.1,0.6,0.1,0.9,0.2c0.4,0.1,0.7,0.1,1,0.2c0.5,0.1,1,0.2,1.5,0.3
		c0.3,0.1,0.6,0.1,0.9,0.2c0.3,0.1,0.6,0.1,0.9,0.2c0.3,0.1,0.6,0.1,0.8,0.2c0.3,0.1,0.6,0.1,0.9,0.2c0.3,0.1,0.6,0.1,0.8,0.2
		c0.3,0.1,0.6,0.1,0.9,0.2c0.3,0.1,0.6,0.1,0.8,0.2c0.3,0.1,0.6,0.2,0.9,0.2c0.3,0.1,0.6,0.2,0.9,0.2c0.3,0.1,0.5,0.1,0.8,0.2
		c0.5,0.1,1.1,0.3,1.6,0.5c0.3,0.1,0.6,0.2,0.8,0.2c0.3,0.1,0.6,0.2,0.9,0.3s0.6,0.2,0.8,0.2c0.3,0.1,0.6,0.2,0.9,0.3
		c0.3,0.1,0.5,0.2,0.8,0.3c0.3,0.1,0.6,0.2,0.9,0.3c0.3,0.1,0.5,0.2,0.8,0.3c0.3,0.1,0.6,0.2,1,0.3c0.2,0.1,0.5,0.2,0.7,0.2
		c0.4,0.1,0.8,0.3,1.3,0.4c0.1,0,0.3,0.1,0.4,0.1c0.5,0.2,1.1,0.4,1.6,0.5c0.2,0.1,0.4,0.1,0.6,0.2c0.4,0.1,0.7,0.3,1.1,0.4
		c0.2,0.1,0.4,0.1,0.6,0.2c0.4,0.1,0.7,0.3,1.1,0.4c0.2,0.1,0.3,0.1,0.5,0.2s0.3,0.1,0.5,0.2c0,0.1,0,0.1,0,0.2
		c0,0.2,0.1,0.5,0.1,0.7c0,0.3,0.1,0.7,0.1,1c0,0.2,0.1,0.4,0.1,0.7c0.1,0.3,0.2,0.7,0.3,1c0.1,0.2,0.1,0.4,0.2,0.6
		c0.1,0.4,0.2,0.7,0.4,1.1c0.1,0.2,0.1,0.3,0.2,0.4c0.2,0.4,0.3,0.7,0.5,1.1c0.1,0.1,0.1,0.2,0.2,0.3c0.2,0.4,0.4,0.8,0.7,1.1
		c0.1,0.1,0.1,0.2,0.2,0.3c0.3,0.4,0.5,0.8,0.8,1.1c0,0.1,0.1,0.1,0.1,0.2c0.3,0.4,0.6,0.7,1,1.1l0.1,0.1c0.4,0.4,0.7,0.7,1.1,1
		l0.1,0.1c0.4,0.3,0.8,0.6,1.2,0.9l0.1,0.1c0.4,0.3,0.8,0.5,1.3,0.8c0.1,0,0.1,0.1,0.2,0.1c0.4,0.2,0.9,0.4,1.3,0.6
		c0.1,0,0.1,0.1,0.2,0.1c0.4,0.2,0.9,0.3,1.3,0.5c0.1,0,0.2,0.1,0.3,0.1c0.4,0.1,0.9,0.2,1.3,0.3c0.1,0,0.2,0.1,0.3,0.1
		c0.4,0.1,0.9,0.2,1.4,0.2c0.1,0,0.2,0,0.4,0.1c0.6,0.1,1.2,0.1,1.7,0.1l0,0l0,0c0.2,0,0.4,0,0.5,0c9.4-0.3,16.9-8,16.9-17.4
		c0-9.5-7.5-17.1-16.9-17.4c-0.2,0-0.3,0-0.5,0l0,0l0,0c-0.5,0-1.1,0-1.6,0.1c-0.1,0-0.2,0-0.3,0c-1.1,0.1-2.2,0.3-3.2,0.7h-0.1
		c-1.2,0.4-2.3,0.8-3.3,1.4c-0.4-0.1-0.8-0.3-1.2-0.4c-0.2-0.1-0.3-0.1-0.5-0.2c-0.6-0.2-1.3-0.5-1.9-0.7c-0.2-0.1-0.4-0.1-0.5-0.2
		c-0.5-0.2-0.9-0.3-1.4-0.5c-0.3-0.1-0.6-0.2-0.9-0.3s-0.7-0.2-1-0.4c-0.3-0.1-0.7-0.2-1-0.3s-0.6-0.2-1-0.3c-0.3-0.1-0.7-0.2-1-0.4
		c-0.3-0.1-0.6-0.2-0.9-0.3c-0.4-0.1-0.7-0.2-1.1-0.4c-0.3-0.1-0.6-0.2-0.9-0.3c-0.4-0.1-0.7-0.2-1.1-0.4c-0.3-0.1-0.6-0.2-0.9-0.3
		c-0.4-0.1-0.8-0.2-1.1-0.4c-0.3-0.1-0.6-0.2-0.8-0.3c-0.4-0.1-0.8-0.2-1.2-0.4l0,0c-1-0.3-2.1-0.6-3.1-0.9
		c-0.3-0.1-0.5-0.1-0.8-0.2c-0.4-0.1-0.8-0.2-1.2-0.3c-0.3-0.1-0.6-0.2-0.9-0.2c-0.4-0.1-0.8-0.2-1.2-0.3c-0.3-0.1-0.6-0.2-0.9-0.2
		c-0.4-0.1-0.8-0.2-1.2-0.3c-0.3-0.1-0.6-0.1-0.9-0.2c-0.4-0.1-0.8-0.2-1.2-0.3c-0.3-0.1-0.6-0.1-0.9-0.2c-0.4-0.1-0.8-0.2-1.2-0.3
		c-0.3-0.1-0.6-0.1-0.9-0.2c-0.4-0.1-0.8-0.2-1.2-0.2c-0.3-0.1-0.6-0.1-0.9-0.2c-1.5-0.3-2.9-0.5-4.4-0.8c-0.3-0.1-0.7-0.1-1-0.2
		c-0.4-0.1-0.8-0.1-1.1-0.2c-0.3,0-0.7-0.1-1-0.1c-0.4,0-0.8-0.1-1.1-0.1c-0.3,0-0.7-0.1-1-0.1c-0.4,0-0.7-0.1-1.1-0.1
		c-0.3,0-0.7-0.1-1-0.1c-0.4,0-0.7-0.1-1.1-0.1s-0.7-0.1-1.1-0.1s-0.7-0.1-1.1-0.1s-0.7,0-1.1-0.1c-0.4,0-0.7,0-1.1-0.1
		c-0.4,0-0.8,0-1.2,0c-0.3,0-0.6,0-0.9,0c-0.7,0-1.4,0-2.1,0c-0.3,0-0.6,0-0.9,0c-0.4,0-0.8,0-1.3,0c-0.3,0-0.6,0-1,0
		s-0.8,0-1.2,0.1c-0.3,0-0.7,0-1,0.1c-0.4,0-0.8,0.1-1.2,0.1c-0.3,0-0.7,0.1-1,0.1c-0.4,0-0.8,0.1-1.2,0.1c-0.3,0-0.6,0.1-1,0.1
		s-0.8,0.1-1.2,0.2c-0.3,0-0.6,0.1-0.9,0.1c-0.4,0.1-0.9,0.1-1.3,0.2c-0.3,0-0.6,0.1-0.8,0.1c-0.5,0.1-1.1,0.2-1.6,0.3
		c-0.2,0-0.4,0.1-0.5,0.1c-0.7,0.1-1.4,0.3-2.1,0.5c-0.2,0.1-0.4,0.1-0.6,0.2c-0.5,0.1-1,0.3-1.5,0.4c-0.3,0.1-0.5,0.2-0.8,0.2
		c-0.4,0.1-0.9,0.3-1.3,0.4c-0.3,0.1-0.6,0.2-0.8,0.3c-0.4,0.1-0.8,0.3-1.2,0.4c-0.3,0.1-0.6,0.2-0.8,0.3c-0.4,0.2-0.8,0.3-1.2,0.5
		c-0.3,0.1-0.5,0.2-0.8,0.3c-0.4,0.2-0.8,0.3-1.3,0.5c-0.3,0.1-0.5,0.2-0.8,0.3c-0.5,0.2-0.9,0.4-1.4,0.6c-0.2,0.1-0.4,0.2-0.6,0.3
		c-0.6,0.3-1.2,0.6-1.8,0.9c-0.1,0-0.1,0.1-0.2,0.1c-0.7,0.4-1.3,0.7-2,1.1c-0.2,0.1-0.3,0.2-0.5,0.3c-0.5,0.3-1,0.6-1.5,0.9
		c-0.2,0.1-0.4,0.3-0.7,0.4c-0.4,0.3-0.9,0.6-1.3,0.9c-0.2,0.2-0.5,0.3-0.7,0.5c-0.4,0.3-0.8,0.6-1.2,0.9c-0.2,0.2-0.5,0.4-0.7,0.5
		c-0.4,0.3-0.8,0.6-1.2,0.9c-0.2,0.2-0.5,0.4-0.7,0.6c-0.4,0.3-0.8,0.7-1.2,1c-0.2,0.2-0.4,0.4-0.6,0.6c-0.4,0.4-0.9,0.8-1.3,1.2
		c-0.2,0.2-0.3,0.3-0.5,0.5c-1.2,1.2-2.4,2.4-3.6,3.6c-0.1,0.2-0.3,0.3-0.4,0.5c-0.4,0.5-0.9,1-1.3,1.5c-0.2,0.2-0.4,0.5-0.6,0.7
		c-0.4,0.4-0.7,0.9-1.1,1.4c-0.2,0.3-0.4,0.5-0.6,0.8c-0.3,0.4-0.7,0.9-1,1.4c-0.2,0.3-0.4,0.6-0.6,0.9c-0.3,0.5-0.7,0.9-1,1.4
		c-0.2,0.3-0.4,0.6-0.6,0.9c-0.3,0.5-0.7,1-1,1.5c-0.2,0.3-0.4,0.6-0.6,0.9c-0.4,0.6-0.7,1.1-1.1,1.7c-0.2,0.3-0.3,0.5-0.5,0.8
		c-0.5,0.9-1,1.7-1.5,2.6s-0.9,1.8-1.4,2.6c-0.1,0.2-0.2,0.5-0.4,0.7c-0.3,0.6-0.7,1.3-1,1.9c-0.1,0.3-0.3,0.6-0.4,0.9
		c-0.3,0.6-0.6,1.2-0.8,1.8c-0.1,0.3-0.3,0.6-0.4,0.9c-0.3,0.6-0.5,1.2-0.7,1.7c-0.1,0.3-0.3,0.7-0.4,1c-0.2,0.6-0.5,1.1-0.7,1.7
		c-0.1,0.3-0.2,0.7-0.4,1c-0.2,0.6-0.4,1.1-0.6,1.7c-0.1,0.3-0.2,0.7-0.3,1c-0.2,0.6-0.4,1.1-0.6,1.7c-0.1,0.3-0.2,0.7-0.3,1
		c-0.2,0.6-0.4,1.1-0.5,1.7c-0.1,0.3-0.2,0.7-0.3,1c-0.2,0.6-0.3,1.1-0.5,1.7c-0.1,0.3-0.2,0.7-0.3,1c-0.1,0.6-0.3,1.1-0.4,1.7
		c-0.1,0.3-0.2,0.7-0.2,1c-0.1,0.6-0.3,1.1-0.4,1.7c-0.1,0.3-0.1,0.7-0.2,1c-0.1,0.6-0.2,1.2-0.3,1.7c-0.1,0.3-0.1,0.7-0.2,1
		c-0.1,0.6-0.2,1.2-0.3,1.8c-0.1,0.3-0.1,0.7-0.2,1c-0.1,0.6-0.2,1.2-0.3,1.8c0,0.3-0.1,0.6-0.1,1c-0.1,0.6-0.2,1.2-0.2,1.8
		c0,0.3-0.1,0.6-0.1,0.9c-0.1,0.6-0.1,1.2-0.2,1.8c0,0.3-0.1,0.6-0.1,0.9c-0.1,0.6-0.1,1.3-0.1,1.9c0,0.3,0,0.6-0.1,0.9
		c0,0.6-0.1,1.3-0.1,1.9c0,0.3,0,0.5,0,0.8c0,0.7,0,1.3-0.1,2c0,0.3,0,0.5,0,0.7c0,0.7,0,1.4,0,2.1c0,0.2,0,0.4,0,0.6
		c0,0.8,0,1.5,0,2.3c0,0.2,0,0.3,0,0.5c0,0.9,0,1.7,0.1,2.6c0,0.1,0,0.1,0,0.2c0.2,4.7,0.6,9.4,1.2,14.1l0,0
		c0.1,0.9,0.3,1.8,0.4,2.8c0,0.1,0,0.2,0,0.3c0.1,0.8,0.3,1.6,0.4,2.5c0,0.2,0.1,0.3,0.1,0.5c0.1,0.8,0.3,1.5,0.4,2.3
		c0,0.2,0.1,0.4,0.1,0.6c0.1,0.7,0.3,1.5,0.4,2.2c0,0.2,0.1,0.4,0.1,0.7c0.1,0.7,0.3,1.4,0.4,2.1c0,0.2,0.1,0.5,0.2,0.7
		c0.1,0.7,0.3,1.4,0.4,2.1c0.1,0.2,0.1,0.5,0.2,0.7c0.2,0.7,0.3,1.4,0.5,2c0.1,0.2,0.1,0.5,0.2,0.7c0.2,0.7,0.3,1.4,0.5,2
		c0.1,0.3,0.1,0.5,0.2,0.8c0.2,0.7,0.3,1.3,0.5,2c0.1,0.3,0.1,0.5,0.2,0.8c0.2,0.7,0.4,1.3,0.5,2c0.1,0.2,0.1,0.5,0.2,0.7
		c0.2,0.7,0.4,1.4,0.6,2c0.1,0.2,0.1,0.5,0.2,0.7c0.2,0.7,0.4,1.4,0.6,2.1c0.1,0.2,0.1,0.4,0.2,0.7c0.2,0.7,0.4,1.4,0.6,2.1
		c0.1,0.2,0.1,0.4,0.2,0.6c0.2,0.7,0.4,1.4,0.7,2.2c0.1,0.2,0.1,0.4,0.2,0.6c0.2,0.7,0.5,1.5,0.7,2.2c0.1,0.2,0.1,0.3,0.2,0.5
		c0.3,0.8,0.5,1.6,0.8,2.3c0,0.1,0.1,0.2,0.1,0.4c0.3,0.8,0.6,1.7,0.9,2.5c0,0.1,0,0.1,0.1,0.2c5.6,16,12.3,31.5,18.7,45.9
		c-0.2,0.3-0.3,0.6-0.5,0.9v0.1c-0.2,0.4-0.4,0.8-0.5,1.2c0,0.1,0,0.1-0.1,0.2c-0.1,0.4-0.3,0.8-0.4,1.3c0,0.1,0,0.2-0.1,0.2
		c-0.1,0.4-0.2,0.9-0.3,1.3v0.1c-0.1,0.4-0.1,0.9-0.1,1.3c0,0.1,0,0.1,0,0.2c0,0.4,0,0.9,0,1.3c0,0.1,0,0.2,0,0.2
		c0,0.5,0.1,0.9,0.1,1.4l0,0c0.1,0.4,0.1,0.9,0.2,1.3c0,0.1,0,0.2,0.1,0.2c0.1,0.4,0.2,0.9,0.4,1.3c0,0.1,0.1,0.2,0.1,0.2
		c0.2,0.4,0.3,0.9,0.5,1.3c12.2,25.9,37.8,61.3,65.6,89.7c1.1,1.1,2.2,2.3,3.4,3.4c0.2,0.2,0.5,0.5,0.7,0.7c1.1,1.1,2.2,2.1,3.3,3.2
		c0.2,0.2,0.5,0.4,0.7,0.7c1.1,1,2.1,2,3.2,3c0.1,0.1,0.2,0.2,0.3,0.3c1.1,1,2.2,2,3.4,3.1c0.3,0.2,0.5,0.5,0.8,0.7
		c1.1,1,2.2,1.9,3.3,2.9c0.2,0.2,0.5,0.4,0.7,0.6c1,0.9,2.1,1.8,3.1,2.6c0.2,0.1,0.3,0.3,0.5,0.4c1.1,0.9,2.2,1.8,3.3,2.7
		c0.3,0.2,0.5,0.4,0.8,0.6c1.1,0.9,2.2,1.7,3.3,2.6c0.2,0.2,0.4,0.3,0.6,0.5c1,0.8,2,1.5,3.1,2.3c0.2,0.1,0.4,0.3,0.6,0.4
		c1.1,0.8,2.2,1.6,3.3,2.3c0.3,0.2,0.5,0.4,0.8,0.6c1.1,0.8,2.2,1.5,3.3,2.2c0.2,0.1,0.4,0.2,0.6,0.4c1,0.6,2,1.3,3,1.9
		c0.2,0.1,0.4,0.3,0.6,0.4c1.1,0.7,2.1,1.3,3.2,1.9c0.3,0.2,0.5,0.3,0.8,0.5c1.1,0.6,2.1,1.2,3.2,1.7c0.2,0.1,0.3,0.2,0.5,0.3
		c1,0.5,1.9,1,2.9,1.4c0.2,0.1,0.5,0.2,0.7,0.3c1,0.5,2.1,0.9,3.1,1.4c0.1,0.1,0.2,0.1,0.4,0.2l0,0c0,1.6-0.1,3.2-0.1,4.8
		c0,47.5,17.4,90.5,45.6,121.6s67.1,50.4,110.1,50.4s81.9-19.2,110.1-50.4c28.2-31.1,45.6-74.1,45.6-121.6c0-7.5-0.4-14.9-1.3-22.2
		c2.9-2,5.5-4.2,8-6.6C695.5,553.6,702,539.2,702,523.2z M667.5,546.5c-6,6-14.2,9.6-23.3,9.6s-17.3-3.7-23.3-9.6
		c-6-6-9.6-14.2-9.6-23.3s3.7-17.3,9.6-23.3c6-6,14.2-9.6,23.3-9.6s17.3,3.7,23.3,9.6c6,6,9.6,14.2,9.6,23.3
		C677.2,532.3,673.5,540.6,667.5,546.5z"/>
</g>
</svg>
