<?xml version="1.0" encoding="utf-8"?>
<!-- Generator: Adobe Illustrator 19.0.0, SVG Export Plug-In . SVG Version: 6.00 Build 0)  -->
<svg version="1.1" id="Capa_1" xmlns="http://www.w3.org/2000/svg" xmlns:xlink="http://www.w3.org/1999/xlink" x="0px" y="0px"
	 viewBox="0 0 900 531" style="enable-background:new 0 0 900 531;" xml:space="preserve">
<style type="text/css">
	.st0{fill:#7F2527;}
	.st1{fill:#FFFFFF;}
</style>
<polygon id="XMLID_20_" class="st0" points="900,493 448.2,531 0,493 0,0 900,0 "/>
<g id="XMLID_1_">
	<rect id="XMLID_27_" x="84.5" y="369.9" class="st1" width="109" height="13.5"/>
	<rect id="XMLID_29_" x="706.4" y="363.1" class="st1" width="109" height="13.5"/>
	<rect id="XMLID_24_" x="84.5" y="421.5" class="st1" width="728.9" height="13.5"/>
	<g id="XMLID_74_">
		<path id="XMLID_75_" class="st1" d="M266.6,342.3c0,0.4-0.2,0.6-0.5,0.6h-6.8c-0.7,0-1,0.4-1,1.3c0,0.3,0,4.7-0.1,13.3
			c-0.1,8.6-0.1,13.3-0.1,14c0,0.7-0.1,6.5-0.2,17.4c-0.1,10.9-0.2,16.7-0.2,17.3c0,1.5-0.2,2.3-0.6,2.3c-0.5,0-0.8-0.2-1.1-0.6
			c-3-4-11.7-15.2-26.3-33.8c-5.2-6.9-11.3-14.7-18.3-23.2c-0.5-0.4-0.8-0.3-0.9,0.4c-0.1,0.4-0.3,6.4-0.7,17.9
			c-0.4,11.6-0.5,19-0.5,21.9c0,8.7,0.9,13,2.6,13h6.5c0.3,0,0.5,0.1,0.5,0.4v1.8c0,0.3-0.1,0.4-0.4,0.4h-19.2
			c-0.4,0-0.6-0.1-0.6-0.3v-1.8c0-0.3,0.2-0.5,0.6-0.5h6c0.5,0,0.8-0.2,0.8-0.7v-7.2c0-1.9,0.2-9.7,0.7-23.4
			c0.5-13.7,0.7-20.6,0.7-20.9c0-6-2.1-9-6.2-9h-3.4c-0.3,0-0.4-0.2-0.4-0.5v-1.6c0-0.3,0.2-0.5,0.5-0.5h15.4c0.4,0,0.8,0.3,1.1,0.8
			c0.3,0.5,3,4.2,8.1,11c5.1,6.8,8,10.6,8.6,11.4c7.3,9.7,15,19.7,23.2,30c0.1,0.1,0.3,0.1,0.4,0.1c0.2,0,0.4-0.5,0.4-1.4
			c0-0.6,0-6.4,0-17.3c0-10.9-0.1-16.8-0.1-17.7c-0.5-9.6-1.7-14.4-3.5-14.4h-6.7c-0.4,0-0.6-0.2-0.6-0.5v-1.6
			c0-0.3,0.2-0.5,0.5-0.5h21.3c0.4,0,0.6,0.1,0.6,0.4V342.3z"/>
		<path id="XMLID_77_" class="st1" d="M332.9,406.2c0,0.3-0.1,0.5-0.3,0.5h-22.5c-0.3,0-0.5-0.2-0.5-0.6v-1.3c0-0.5,0.2-0.7,0.5-0.7
			h6.7c0.5,0,0.7-0.3,0.6-0.9c-0.3-1-1.4-4.4-3.4-10.2c-2-5.7-3-8.8-3.2-9.2c-0.3-0.7-0.6-1-1-1h-23.6c-0.3,0.1-0.5,0.3-0.7,0.6
			c-0.5,0.9-1.2,2.9-2.3,6.2c-1.1,3.2-1.8,5.4-2.1,6.6c-0.5,2.6-0.8,4.2-0.8,4.7c0,2.1,0.3,3.2,0.8,3.2h7.4c0.4,0,0.6,0.2,0.6,0.7
			v1.4c0,0.3-0.2,0.5-0.5,0.5h-19.7c-0.3,0-0.5-0.2-0.5-0.5v-1.6c0-0.3,0.1-0.5,0.4-0.5h4.2c0.7,0,1.7-1.5,2.9-4.6
			c1.2-3.1,4.9-11.9,10.9-26.5c3.9-9.2,8.6-20.4,14.1-33.5c0.4-1,0.7-1.6,1.1-1.7c0.9-0.3,2.1-0.7,3.5-1.2c0.2-0.1,0.5,0.1,0.8,0.5
			c0.3,0.4,0.2,0.9-0.4,1.5c-1,1-1.5,2-1.5,2.9c0,1,0.2,2.2,0.7,3.7c1.8,4.9,4.9,14,9.5,27.4c4.6,13.4,7.8,22.1,9.6,26
			c1.7,3.7,3,5.5,3.7,5.5h4.6c0.3,0,0.4,0.2,0.4,0.7V406.2z M308.8,378.3c-1.3-3.9-2.8-8.1-4.3-12.7c-1.5-4.6-3.1-9.4-4.7-14.4
			c-0.1-0.4-0.2-0.7-0.4-0.8c-0.1,0.1-0.3,0.4-0.5,0.8c-4.1,10-7,17-8.8,21.2c-1.8,4.2-2.7,6.3-2.7,6.4c0,0.2,0.1,0.3,0.4,0.3h20.6
			C308.8,379.1,308.9,378.8,308.8,378.3z"/>
		<path id="XMLID_80_" class="st1" d="M397.5,397c0.2,0.3,0.1,0.6-0.1,0.8c-2.4,2.6-6.5,5-12.1,7c-4.4,1.6-10,2.4-16.7,2.4
			c-5.7,0-10.2-0.6-13.5-1.7c-3.4-1.2-6.7-3.3-10-6.5c-5.3-5.2-8-13.1-8-23.7c0-5.9,1.5-11.8,4.6-17.7c2.5-4.8,6.2-8.8,11.3-12.1
			c6.6-4.3,15-6.4,25.3-6.4c3.9,0,7.4,0.2,10.6,0.5c3.7,0.4,6.1,0.9,7.1,1.4c0.2,0.1,0.3,0.2,0.3,0.5c0,0.5-0.2,1.9-0.5,4.1
			c-0.2,1.8-0.4,3.4-0.5,4.7c-0.1,0.4-0.2,0.6-0.4,0.6c-0.3,0-0.5-0.1-0.5-0.4c0-0.3-0.2-0.7-0.5-1.4c-0.3-0.6-1.7-1.7-4.1-3.4
			c-3.4-1.7-8.5-2.6-15.3-2.6c-8.7,0-15.6,2.7-20.7,8c-5.8,6-8.7,13.6-8.7,22.6c0,9.9,3.1,17.7,9.2,23.3c3.1,2.8,6.2,4.8,9.4,5.8
			c2.8,0.9,6.6,1.4,11.4,1.4c3.5,0,7-0.8,10.3-2.3c3.3-1.5,5.8-3.6,7.4-6.1c0.9-1.5,1.5-2.8,1.7-4.1c0-0.6,0.1-0.8,0.3-0.8
			c0.1,0,0.2,0.1,0.3,0.4c0.2,1.1,0.6,2.1,1.1,3.1C396.5,395.1,397,396,397.5,397z"/>
		<path id="XMLID_82_" class="st1" d="M431.4,406.3c0,0.3-0.1,0.4-0.3,0.4h-23.7c-0.3,0-0.5,0-0.5-0.1c-0.1-0.1-0.1-0.2-0.1-0.3
			v-1.5c0-0.3,0-0.5,0.1-0.5c0.1,0,0.2-0.1,0.3-0.1h6.6c0.5,0,0.7-0.5,0.7-1.4l-0.1-50.5c0-6.1-0.6-9.2-1.7-9.2h-6.2
			c-0.5,0-0.7-0.2-0.7-0.5v-1.7c0-0.3,0.2-0.4,0.5-0.4h23.7c0.3,0,0.4,0.1,0.4,0.4v1.8c0,0.3-0.2,0.4-0.5,0.4h-6.9
			c-0.6,0-0.9,0.3-0.9,1c-0.1,29.5-0.1,44.8-0.1,45.8c0,4.8,0,7.6,0,8.2c0.2,4,0.9,6.1,2,6.1h6.9c0.3,0,0.4,0.1,0.4,0.4V406.3z"/>
		<path id="XMLID_84_" class="st1" d="M503.3,372.1c0,10.3-2.5,18.3-7.4,24.1c-1.7,2.1-3.2,3.5-4.3,4.4c-2.4,1.9-5.5,3.5-9.3,4.9
			c-3.1,1.1-7,1.7-11.9,1.7c-7.8,0-13.6-1-17.6-3c-2.9-1.4-5.3-3.3-7.2-5.5c-2.4-2.7-4.1-5.7-5.2-9c-1.3-3.9-1.9-9.1-1.9-15.6
			c0-4.4,0.6-8.6,1.8-12.5c1.4-4.7,3.6-8.6,6.4-11.8c2.8-3.2,6.9-5.8,12.2-7.9c3.7-1.5,7.9-2.2,12.5-2.2c7,0,12.3,0.8,16,2.5
			c4.1,1.9,7.4,4.4,9.7,7.6C501.2,355.5,503.3,362.9,503.3,372.1z M495.6,374.7c0-4.7-0.5-8.8-1.6-12.3c-1.2-4.1-3.1-7.6-5.8-10.6
			c-2.4-2.7-5.3-4.8-8.6-6.2c-3.8-1.6-7.7-2.4-11.5-2.4c-5,0-8.6,0.8-10.8,2.4c-4,2.9-6.8,6-8.3,9.5c-2,4.6-3,10.1-3,16.7
			c0,9.7,1.8,17.3,5.4,22.9c2.2,3.4,5.4,6.1,9.8,8.1c3.4,1.6,7.1,2.4,11.2,2.4c4.6,0,8.8-1.3,12.6-3.8c3-2,5.6-5.3,7.7-10.1
			C494.6,387,495.6,381.4,495.6,374.7z"/>
		<path id="XMLID_87_" class="st1" d="M580.1,342.3c0,0.4-0.2,0.6-0.5,0.6h-6.8c-0.7,0-1,0.4-1,1.3c0,0.3,0,4.7-0.1,13.3
			c-0.1,8.6-0.1,13.3-0.1,14c0,0.7-0.1,6.5-0.2,17.4c-0.1,10.9-0.2,16.7-0.2,17.3c0,1.5-0.2,2.3-0.6,2.3c-0.5,0-0.8-0.2-1.1-0.6
			c-3-4-11.7-15.2-26.3-33.8c-5.2-6.9-11.3-14.7-18.3-23.2c-0.5-0.4-0.8-0.3-0.9,0.4c-0.1,0.4-0.3,6.4-0.7,17.9
			c-0.4,11.6-0.5,19-0.5,21.9c0,8.7,0.9,13,2.6,13h6.5c0.3,0,0.5,0.1,0.5,0.4v1.8c0,0.3-0.1,0.4-0.4,0.4h-19.2
			c-0.4,0-0.6-0.1-0.6-0.3v-1.8c0-0.3,0.2-0.5,0.6-0.5h6c0.5,0,0.8-0.2,0.8-0.7v-7.2c0-1.9,0.2-9.7,0.7-23.4
			c0.5-13.7,0.7-20.6,0.7-20.9c0-6-2.1-9-6.2-9h-3.4c-0.3,0-0.4-0.2-0.4-0.5v-1.6c0-0.3,0.2-0.5,0.5-0.5h15.4c0.4,0,0.8,0.3,1.1,0.8
			c0.3,0.5,3,4.2,8.1,11c5.1,6.8,8,10.6,8.6,11.4c7.3,9.7,15,19.7,23.2,30c0.1,0.1,0.3,0.1,0.4,0.1c0.2,0,0.4-0.5,0.4-1.4
			c0-0.6,0-6.4,0-17.3c0-10.9-0.1-16.8-0.1-17.7c-0.5-9.6-1.7-14.4-3.5-14.4h-6.7c-0.4,0-0.6-0.2-0.6-0.5v-1.6
			c0-0.3,0.2-0.5,0.5-0.5h21.3c0.4,0,0.6,0.1,0.6,0.4V342.3z"/>
		<path id="XMLID_89_" class="st1" d="M646.3,406.2c0,0.3-0.1,0.5-0.3,0.5h-22.5c-0.3,0-0.5-0.2-0.5-0.6v-1.3c0-0.5,0.2-0.7,0.5-0.7
			h6.7c0.5,0,0.7-0.3,0.6-0.9c-0.3-1-1.4-4.4-3.4-10.2c-2-5.7-3-8.8-3.2-9.2c-0.3-0.7-0.6-1-1-1h-23.6c-0.3,0.1-0.5,0.3-0.7,0.6
			c-0.5,0.9-1.2,2.9-2.3,6.2c-1.1,3.2-1.8,5.4-2,6.6c-0.5,2.6-0.8,4.2-0.8,4.7c0,2.1,0.3,3.2,0.8,3.2h7.4c0.4,0,0.6,0.2,0.6,0.7v1.4
			c0,0.3-0.2,0.5-0.5,0.5h-19.7c-0.3,0-0.5-0.2-0.5-0.5v-1.6c0-0.3,0.1-0.5,0.4-0.5h4.2c0.7,0,1.7-1.5,2.9-4.6
			c1.2-3.1,4.9-11.9,10.9-26.5c3.9-9.2,8.6-20.4,14.1-33.5c0.4-1,0.7-1.6,1.1-1.7c0.9-0.3,2.1-0.7,3.5-1.2c0.2-0.1,0.5,0.1,0.8,0.5
			c0.3,0.4,0.2,0.9-0.4,1.5c-1,1-1.5,2-1.5,2.9c0,1,0.2,2.2,0.7,3.7c1.8,4.9,4.9,14,9.5,27.4c4.6,13.4,7.8,22.1,9.6,26
			c1.7,3.7,3,5.5,3.7,5.5h4.6c0.3,0,0.4,0.2,0.4,0.7V406.2z M622.2,378.3c-1.3-3.9-2.8-8.1-4.3-12.7c-1.5-4.6-3.1-9.4-4.7-14.4
			c-0.1-0.4-0.2-0.7-0.4-0.8c-0.1,0.1-0.3,0.4-0.5,0.8c-4.1,10-7,17-8.8,21.2c-1.8,4.2-2.7,6.3-2.7,6.4c0,0.2,0.1,0.3,0.4,0.3h20.6
			C622.3,379.1,622.3,378.8,622.2,378.3z"/>
		<path id="XMLID_92_" class="st1" d="M701.8,399.8c0,0.3-0.5,1.3-1.6,3.1c-0.3,0.7-0.8,1.8-1.7,3.2c-0.3,0.4-0.5,0.6-0.8,0.6h-46.5
			c-0.4,0-0.6-0.2-0.6-0.5v-1.6c0-0.3,0.2-0.5,0.5-0.5h7.3c0.6,0,0.9-0.3,0.9-1c0-0.3,0-2.3-0.1-5.9c-0.1-3.6-0.1-11.7,0-24.2
			s0.2-19.1,0.2-19.7c0-6.9-0.6-10.4-1.9-10.4H652c-0.5,0-0.7-0.2-0.7-0.6v-1.4c0-0.4,0.2-0.6,0.6-0.6h26.4c0.3,0,0.5,0.1,0.5,0.4
			v1.7c0,0.3-0.1,0.5-0.4,0.5h-9.8c-0.5,0-0.8,0.2-0.9,0.7c-0.1,0.5-0.3,8.4-0.5,23.8c-0.2,14.5-0.3,22.8-0.3,24.8
			c0,7.5,0.9,11.3,2.6,11.3c10.5,0,16.5-0.1,18.1-0.2c5.1-0.4,9.2-1.6,12.3-3.5c0.8-0.5,1.3-0.7,1.4-0.7
			C701.6,399.3,701.8,399.5,701.8,399.8z"/>
	</g>
	<g id="XMLID_48_">
		<path id="XMLID_49_" class="st1" d="M158,270.1c0,9.5-3,17.2-9.1,23.3c-6.4,6.4-15.8,9.6-28,9.6c-14.4,0-24.5-2.6-30.4-7.9
			c-0.7-0.6-1-1.8-1-3.5c0-0.4,0-3.7-0.1-10c-0.1-6.3-0.1-9.6-0.1-10.1c0-0.7,0.4-1.1,1.2-1.1H94c0.7,0,1.1,0.4,1.2,1.1
			c0.1,0.7,0.3,2.5,0.5,5.4c0.3,6.2,2.6,11.2,6.8,15c2,1.8,4.8,3.4,8.5,4.6c3.7,1.3,7,1.9,10,1.9c11.4,0,19-3.8,22.8-11.4
			c1.7-3.5,2.6-7.9,2.6-13.2c0-4.7-1.6-8.7-4.9-12c-3.6-3.8-10-7.3-19-10.5c-10.3-3.6-17.5-7.3-21.9-11c-5.8-4.8-8.6-12.4-8.6-22.7
			c0-9.7,3.9-17.9,11.8-24.5c6-5.1,13.8-7.7,23.6-7.7c6.4,0,12.4,1.1,17.9,3.2c3.5,1.4,6.1,2.8,7.8,4.3c0.8,0.6,1.3,1.3,1.4,2.3
			c0.6,4.3,0.9,10.1,0.9,17.4c0,1.2-0.2,1.8-0.5,1.8h-4.1c-0.4,0-0.7-0.3-0.9-1c-0.3-1.7-0.7-3.8-1.2-6.5c-0.9-3.9-2.8-6.8-6-8.5
			c-5.8-3.3-12.4-5-19.9-5c-6.8,0-11.8,1.5-15,4.4c-3.4,3-5.1,8.3-5.1,16c0,4.7,1.6,8.7,4.8,12.2c1.5,1.7,4.5,3.5,9,5.5
			c3.7,1.5,7.4,3,11.1,4.5c7.3,3.2,11.7,5.2,13,5.9c4.3,2.3,7.9,5.2,10.8,8.5C155.8,255.3,158,261.9,158,270.1z"/>
		<path id="XMLID_51_" class="st1" d="M253.4,258.9c0,12.9-3.1,22.9-9.3,30.1c-2.2,2.6-3.9,4.4-5.4,5.6c-3,2.4-6.8,4.4-11.6,6.2
			c-3.8,1.4-8.8,2.1-14.9,2.1c-9.7,0-17-1.2-22-3.7c-3.6-1.8-6.6-4.1-9-6.9c-3-3.4-5.2-7.2-6.5-11.3c-1.6-4.9-2.4-11.4-2.4-19.5
			c0-5.5,0.8-10.7,2.3-15.6c1.8-5.8,4.5-10.7,8-14.7c3.5-4,8.6-7.3,15.3-9.9c4.7-1.8,9.9-2.7,15.6-2.7c8.7,0,15.4,1,20,3.1
			c5.2,2.3,9.2,5.5,12.1,9.5C250.9,238.2,253.4,247.5,253.4,258.9z M243.8,262.2c0-5.9-0.7-11-2-15.4c-1.5-5.1-3.9-9.5-7.2-13.2
			c-3-3.4-6.6-6-10.7-7.7c-4.8-2-9.6-3-14.4-3c-6.2,0-10.7,1-13.5,3c-5,3.6-8.5,7.5-10.4,11.8c-2.5,5.7-3.8,12.7-3.8,20.9
			c0,12.1,2.3,21.7,6.8,28.6c2.7,4.2,6.8,7.6,12.3,10.1c4.3,2,8.9,3,14,3c5.7,0,10.9-1.6,15.7-4.8c3.7-2.4,7-6.6,9.6-12.6
			C242.6,277.5,243.8,270.6,243.8,262.2z"/>
		<path id="XMLID_54_" class="st1" d="M322.3,280.5c0,6.4-2.3,11.6-6.9,15.6c-5.1,4.5-12.2,6.7-21.1,6.7c-1,0-4.1-0.1-9.5-0.4
			c-5.3-0.2-9.3-0.4-11.8-0.4h-9.4c-0.3,0-0.5-0.2-0.5-0.5v-2.1c0-0.4,0.2-0.6,0.5-0.6h8.5c1,0,1.5-0.7,1.5-2.1
			c0-0.5-0.1-6.6-0.2-18.4c-0.2-11.8-0.2-18.2-0.2-19.4v-24.6c-0.4-7.6-1.2-11.3-2.4-11.3h-9.3c-0.3,0-0.5-0.2-0.5-0.7v-2
			c0-0.4,0.2-0.5,0.6-0.5h18.2c0.6,0,2.8-0.1,6.6-0.2c3.8-0.1,6-0.2,6.7-0.2h5.9c1.9,0.1,4.5,0.5,7.9,1.4c3.1,1.2,5.8,3.1,7.9,5.7
			c2.5,3,3.8,6.7,3.8,11c0,3.3-0.6,6-1.7,8.4c-0.5,1-1.6,2.6-3.3,4.8c-2.2,2.9-5.3,5.5-9.3,7.6c-0.8,0.4-0.9,0.8-0.1,1
			c4.5,1.4,8.6,3.7,12.2,7C320.4,269.9,322.3,274.6,322.3,280.5z M309.3,242.5c0-5.3-1.9-9.8-5.6-13.6c-3.7-3.8-8.6-5.7-14.8-5.7
			c-2.8,0-4.6,0.1-5.4,0.4c-0.6,0.2-1,0.6-1,1.2c-0.1,0.8-0.1,11.3-0.1,31.6c0,0.8,0.2,1.2,0.7,1.2c-0.1,0,0.7,0,2.5-0.1
			c1.8,0,3.5-0.1,5.3-0.1c0.8,0,2.3,0.1,4.7,0.3c2.8,0.3,4.3,0.4,4.4,0.4c0.3,0,0.8-0.1,1.5-0.5c2.4-1.2,4.2-3.2,5.6-5.9
			C308.6,248.9,309.3,245.8,309.3,242.5z M312,282.1c0-5.7-1.9-10.4-5.6-14.1c-5.2-5.2-12.3-7.9-21-7.9c-1.1,0-1.8,0.1-2.3,0.4
			c-0.3,0.1-0.4,0.5-0.4,1.2v26.8c0.2,6.3,0.9,9.6,2,10.1c2.2,0.9,5.5,1.3,9.8,1.3c5.3,0,9.5-1.3,12.4-4
			C310.2,292.8,312,288.2,312,282.1z"/>
		<path id="XMLID_58_" class="st1" d="M396.4,293.4c-1.1,2.3-2.5,5-4.1,8c-0.3,0.5-0.8,0.7-1.3,0.7h-57.7c-0.4,0-0.6-0.2-0.6-0.7
			v-1.9c0-0.4,0.2-0.6,0.5-0.6h9c0.8,0,1.2-0.4,1.2-1.3c0-0.4,0-6.6-0.1-18.8c-0.1-12.1-0.1-18.4-0.1-18.8c0-0.4,0-4.6-0.1-12.6
			c0-8-0.1-12.2-0.1-12.7c0-8.3-0.8-12.4-2.4-12.4h-7.4c-0.4,0-0.6-0.2-0.6-0.6v-2c0-0.4,0.2-0.6,0.7-0.6H388c0.7,0,1.7,0,3-0.1
			c1.2-0.1,1.8-0.1,1.8-0.1c0.5,0,0.7,0.2,0.6,0.6c-0.6,2.2-1.3,4.8-2.1,7.7c-0.3,0.9-0.7,1.4-1,1.4l-0.9-0.9
			c-1.5-1.5-3.9-2.5-7.1-3.1c-4.6-0.8-14.2-1.3-29-1.5c-0.5,0-0.8,0.2-1,0.7c-0.2,0.5-0.3,10.6-0.3,30.3c0,0.8,0.3,1.2,1,1.2h29.8
			c0.6,0,0.9-0.3,1-0.9c0.1-0.6,0.3-1.9,0.5-3.9c0.2-2,0.4-3.1,0.4-3.3c0-0.8,0.2-1.2,0.7-1.2h0.9c0.5,0,0.7,0.3,0.7,1
			c0,0.2-0.1,1.9-0.2,5.1c-0.2,3.2-0.2,5.2-0.2,5.8s0,2.7,0.1,6.4c0.1,3.7,0.1,5.6,0.1,5.9c0,0.9-0.2,1.3-0.7,1.3h-1
			c-0.4,0-0.7-0.3-0.7-0.9c-0.2-2.6-0.4-5.7-0.6-9.3c-0.1-0.8-0.5-1.2-1.2-1.2c-0.4,0-5.4-0.1-15-0.2c-9.7-0.2-14.6-0.2-14.8-0.2
			c-0.5,0-0.8,0.4-0.8,1.1v23c0,9.8,1.1,14.6,3.2,14.6c19,0,31.7-1.5,38-4.4c1.5-0.9,2.4-1.4,2.7-1.5
			C396.4,292.6,396.6,292.9,396.4,293.4z"/>
		<path id="XMLID_60_" class="st1" d="M483.9,301.4c0,0.5-0.2,0.7-0.5,0.7h-19.8c-0.4,0-1-0.2-1.5-0.7c-1.5-1.3-4.4-4.8-8.5-10.3
			c-2.2-3-4.4-5.9-6.6-8.9c-2.4-3.7-5.8-9.4-10.1-17.1c-0.3-0.7-0.6-1-1-1c-1.9,0-5.3-0.2-10.1-0.7c-0.7-0.2-1,0-1,0.6
			c0,0.8,0,3.3,0.1,7.7c0,4.4,0.1,9,0.1,13.8c0,8.9,0.9,13.4,2.7,13.4h10.9c0.4,0,0.6,0.2,0.6,0.6v2c0,0.4-0.2,0.6-0.5,0.6h-32.3
			c-0.4,0-0.6-0.1-0.7-0.2c-0.1-0.1-0.1-0.3-0.1-0.4v-1.9c0-0.4,0.1-0.6,0.2-0.6c0.1-0.1,0.3-0.1,0.5-0.1h8c0.7,0,1-0.6,1-1.9v-32.6
			v-25.3c-0.1-11.2-0.8-16.8-2.1-16.8h-7.7c-0.4,0-0.6-0.2-0.6-0.5v-2.3c0-0.3,0.2-0.5,0.5-0.5h18.2c0.6,0,2.9-0.1,7-0.2
			c4.1-0.2,6.4-0.2,6.9-0.2c2.6,0,5.2,0.2,7.7,0.6c5.6,0.9,10.1,3,13.5,6.3c4,3.8,6,8.6,6,14.3c0,6.6-2,12-5.9,16.2
			c-2.4,2.6-6.3,4.8-11.8,6.7c-0.3,0.2-0.4,0.4-0.4,0.7c1.8,4.7,5.9,10.7,12.4,18c3.4,3.8,5.8,6.6,7.4,8.2c2.7,2.8,5,5,7,6.4
			c2.6,1.9,5.9,2.9,9.8,2.9c0.7,0,1,0.2,1,0.5V301.4z M454.3,243.1c0-5.4-1.8-9.8-5.4-13.2c-5-4.7-12.2-7.1-21.7-7.1
			c-1.4,0-2.1,0.3-2.3,0.9c0,11.7-0.1,19-0.2,21.8v13.9c0,0.4,0.3,0.7,0.9,0.9c0.9,0.2,3.5,0.2,7.7,0.2c1.7,0,3.7-0.2,5.9-0.5
			c2.2-0.3,3.2-0.5,3-0.5C450.3,257.4,454.3,252,454.3,243.1z"/>
		<path id="XMLID_63_" class="st1" d="M565.7,301.5c0,0.4-0.1,0.6-0.4,0.6h-28.1c-0.4,0-0.6-0.2-0.6-0.7v-1.6c0-0.6,0.2-0.9,0.6-0.9
			h8.4c0.7,0,0.9-0.4,0.8-1.1c-0.4-1.3-1.8-5.5-4.2-12.7c-2.4-7.2-3.8-11-4-11.6c-0.3-0.8-0.8-1.2-1.3-1.2h-29.5
			c-0.4,0.1-0.7,0.3-0.9,0.7c-0.6,1.1-1.5,3.7-2.9,7.7c-1.4,4-2.2,6.8-2.6,8.3c-0.7,3.3-1,5.2-1,5.9c0,2.7,0.3,4,1,4h9.3
			c0.5,0,0.7,0.3,0.7,0.9v1.8c0,0.4-0.2,0.6-0.6,0.6h-24.6c-0.4,0-0.6-0.2-0.6-0.6v-2c0-0.4,0.2-0.6,0.5-0.6h5.2
			c0.9,0,2.1-1.9,3.6-5.7c1.5-3.8,6.1-14.9,13.6-33.1c4.8-11.5,10.7-25.5,17.6-41.9c0.4-1.3,0.9-2,1.3-2.1c1.1-0.3,2.6-0.8,4.4-1.5
			c0.3-0.1,0.6,0.1,1,0.6s0.2,1.2-0.5,1.9c-1.2,1.3-1.8,2.5-1.8,3.7c0,1.2,0.2,2.7,0.9,4.6c2.2,6.1,6.2,17.5,11.9,34.3
			c5.7,16.7,9.7,27.6,12,32.5c2.2,4.6,3.7,6.9,4.6,6.9h5.7c0.3,0,0.5,0.3,0.5,0.9V301.5z M535.5,266.8c-1.7-4.8-3.5-10.1-5.4-15.9
			c-1.9-5.8-3.9-11.8-5.9-18.1c-0.1-0.5-0.3-0.9-0.5-1c-0.2,0.2-0.4,0.5-0.6,1c-5.1,12.4-8.7,21.3-11,26.5c-2.2,5.2-3.3,7.9-3.3,8.1
			c0,0.2,0.2,0.4,0.5,0.4h25.8C535.6,267.7,535.7,267.4,535.5,266.8z"/>
		<path id="XMLID_66_" class="st1" d="M657.6,221.7c0,0.5-0.2,0.7-0.6,0.7h-8.5c-0.9,0-1.3,0.5-1.3,1.6c0,0.3,0,5.9-0.1,16.6
			c-0.1,10.8-0.1,16.6-0.1,17.4c0,0.9-0.1,8.1-0.2,21.8c-0.2,13.7-0.2,20.9-0.2,21.6c0,1.9-0.2,2.9-0.7,2.9c-0.6,0-1-0.2-1.4-0.7
			c-3.7-5-14.7-19.1-32.9-42.3c-6.5-8.7-14.1-18.3-22.8-29c-0.6-0.5-1-0.3-1.2,0.5c-0.1,0.5-0.4,8-0.9,22.4
			c-0.4,14.6-0.7,23.7-0.7,27.4c0,10.8,1.1,16.2,3.2,16.2h8.1c0.4,0,0.6,0.2,0.6,0.5v2.3c0,0.3-0.2,0.5-0.5,0.5h-24
			c-0.5,0-0.8-0.1-0.8-0.4v-2.3c0-0.4,0.3-0.6,0.8-0.6h7.5c0.7,0,1-0.3,1-0.9v-9c0-2.4,0.3-12.1,0.9-29.2
			c0.6-17.1,0.9-25.8,0.9-26.1c0-7.5-2.6-11.3-7.7-11.3h-4.3c-0.3,0-0.5-0.2-0.5-0.6v-2c0-0.4,0.2-0.6,0.6-0.6H591
			c0.5,0,1,0.3,1.3,1c0.4,0.7,3.7,5.2,10.1,13.8c6.4,8.5,10,13.3,10.8,14.2c9.1,12.1,18.8,24.6,29,37.5c0.2,0.1,0.3,0.2,0.5,0.2
			c0.3,0,0.5-0.6,0.5-1.7c0-0.8,0-8,0-21.6c0-13.7-0.1-21-0.1-22.1c-0.6-12-2.1-18-4.4-18h-8.4c-0.5,0-0.8-0.2-0.8-0.6v-2
			c0-0.4,0.2-0.6,0.7-0.6h26.6c0.5,0,0.7,0.2,0.7,0.5V221.7z"/>
		<path id="XMLID_68_" class="st1" d="M695.9,301.7c0,0.3-0.1,0.5-0.4,0.5h-29.6c-0.4,0-0.6-0.1-0.7-0.2c-0.1-0.1-0.1-0.3-0.1-0.4
			v-1.9c0-0.4,0.1-0.6,0.2-0.6c0.1-0.1,0.3-0.1,0.4-0.1h8.3c0.6,0,0.9-0.6,0.9-1.8l-0.1-63.1c0-7.7-0.7-11.5-2.1-11.5h-7.7
			c-0.6,0-0.9-0.2-0.9-0.6v-2.1c0-0.3,0.2-0.5,0.6-0.5h29.6c0.4,0,0.5,0.2,0.5,0.5v2.3c0,0.3-0.2,0.5-0.7,0.5h-8.6
			c-0.7,0-1.1,0.4-1.1,1.3c-0.1,36.9-0.1,56-0.1,57.2c0,6,0,9.5,0.1,10.3c0.3,5,1.1,7.6,2.4,7.6h8.6c0.3,0,0.5,0.2,0.5,0.5V301.7z
			 M693,199.7c-0.4,0.4-1.2,1-2.4,1.6c-5.7,3.2-12.1,6.6-19.4,10.2c-1.7,1.1-2.8,1.2-3.1,0.4c-0.4-0.9-0.1-1.7,0.9-2.4l13.5-10.5
			c0.6-0.5,1.2-0.8,1.9-0.7c2,0.3,4.8,0.4,8.4,0.4C693.5,198.8,693.6,199.1,693,199.7z"/>
		<path id="XMLID_71_" class="st1" d="M813.8,301.3c0,0.6-0.2,0.9-0.5,0.9h-39.4c-0.6,0-0.9-0.3-0.9-1v-2.3c0-0.8,0.3-1.2,0.9-1.2
			h11.7c0.9,0,1.3-0.5,1.1-1.5c-0.5-1.8-2.5-7.8-5.9-17.8c-3.4-10.1-5.3-15.4-5.6-16.2c-0.5-1.1-1.1-1.7-1.8-1.7h-41.3
			c-0.5,0.1-0.9,0.5-1.3,1c-0.8,1.5-2.2,5.1-4.1,10.8c-1.9,5.7-3.1,9.5-3.6,11.6c-0.9,4.6-1.4,7.3-1.4,8.2c0,3.8,0.5,5.6,1.4,5.6h13
			c0.7,0,1,0.4,1,1.2v2.5c0,0.6-0.3,0.9-0.9,0.9h-34.5c-0.6,0-0.9-0.3-0.9-0.9v-2.8c0-0.6,0.2-0.9,0.7-0.9h7.3c1.3,0,2.9-2.7,5.1-8
			c2.1-5.4,8.5-20.8,19.1-46.4c6.8-16.1,15-35.6,24.7-58.6c0.6-1.8,1.3-2.8,1.9-3c1.6-0.5,3.6-1.2,6.2-2.1c0.4-0.2,0.9,0.1,1.4,0.9
			c0.5,0.8,0.3,1.6-0.7,2.6c-1.7,1.8-2.6,3.5-2.6,5.1c-0.1,1.7,0.3,3.8,1.2,6.4c3.1,8.5,8.6,24.5,16.7,48
			c8,23.4,13.6,38.6,16.7,45.5c3,6.4,5.2,9.7,6.5,9.7h8c0.5,0,0.7,0.4,0.7,1.2V301.3z M771.5,252.6c-2.3-6.8-4.8-14.2-7.5-22.3
			c-2.7-8.1-5.4-16.5-8.3-25.3c-0.2-0.7-0.4-1.2-0.7-1.4c-0.2,0.2-0.5,0.7-0.9,1.4c-7.1,17.4-12.2,29.8-15.3,37.1
			c-3.1,7.3-4.7,11-4.7,11.3c0,0.3,0.3,0.5,0.8,0.5h36.1C771.7,253.9,771.8,253.5,771.5,252.6z"/>
	</g>
	<rect id="XMLID_25_" x="84.5" y="56.6" class="st1" width="728.9" height="120.3"/>
	<g id="XMLID_2_">
		<path id="XMLID_3_" class="st0" d="M277.8,148.6c0,0.3-0.1,0.4-0.3,0.4h-19.7c-0.3,0-0.4-0.2-0.4-0.5v-1.2c0-0.4,0.1-0.6,0.4-0.6
			h5.9c0.5,0,0.6-0.3,0.6-0.8c-0.3-0.9-1.2-3.9-2.9-8.9c-1.7-5-2.6-7.7-2.8-8.1c-0.2-0.6-0.5-0.9-0.9-0.9h-20.6
			c-0.3,0.1-0.5,0.2-0.6,0.5c-0.4,0.8-1.1,2.6-2,5.4c-1,2.8-1.6,4.8-1.8,5.8c-0.5,2.3-0.7,3.6-0.7,4.1c0,1.9,0.2,2.8,0.7,2.8h6.5
			c0.3,0,0.5,0.2,0.5,0.6v1.2c0,0.3-0.1,0.4-0.4,0.4h-17.3c-0.3,0-0.4-0.1-0.4-0.4v-1.4c0-0.3,0.1-0.4,0.3-0.4h3.7
			c0.6,0,1.5-1.3,2.5-4c1.1-2.7,4.2-10.4,9.5-23.2c3.4-8.1,7.5-17.8,12.3-29.3c0.3-0.9,0.6-1.4,0.9-1.5c0.8-0.2,1.8-0.6,3.1-1.1
			c0.2-0.1,0.4,0.1,0.7,0.4s0.1,0.8-0.3,1.3c-0.9,0.9-1.3,1.7-1.3,2.6c0,0.9,0.2,1.9,0.6,3.2c1.5,4.3,4.3,12.3,8.3,24
			c4,11.7,6.8,19.3,8.4,22.7c1.5,3.2,2.6,4.8,3.2,4.8h4c0.2,0,0.3,0.2,0.3,0.6V148.6z M256.6,124.3c-1.2-3.4-2.4-7.1-3.8-11.1
			c-1.3-4-2.7-8.3-4.1-12.6c-0.1-0.4-0.2-0.6-0.3-0.7c-0.1,0.1-0.3,0.3-0.4,0.7c-3.6,8.7-6.1,14.9-7.7,18.5
			c-1.6,3.6-2.3,5.5-2.3,5.6c0,0.2,0.1,0.3,0.4,0.3h18.1C256.7,124.9,256.8,124.7,256.6,124.3z"/>
		<path id="XMLID_6_" class="st0" d="M318.8,156.7c0,3.2-1.6,6.3-4.9,9.2c-4,3.6-10.1,5.4-18.4,5.4c-5.6,0-9.9-1.2-12.8-3.5
			c-2.4-1.9-3.6-4.2-3.6-6.7c0-2.8,1.2-5.5,3.6-8c0.8-0.9,2.8-1.9,6.1-3.2c0.8-0.5,0.8-0.8-0.1-0.9c-1.9-0.5-3-0.9-3.6-1.2
			c-1.4-0.8-2.1-1.9-2.1-3.5c0-1.6,0.6-2.9,1.9-4c1.3-0.9,2.6-1.8,3.8-2.7c0.4-0.3,0.2-0.7-0.5-1.1c-1.1-0.6-2.4-1.6-3.8-2.9
			c-2.2-2.1-3.3-5.3-3.3-9.4c0-4.2,1.3-7.7,4-10.6c2.7-2.8,6.5-4.3,11.4-4.3c2.9,0,5.5,0.2,7.7,0.6c1.6,0.3,4.1,0.4,7.6,0.4
			c2.1,0,3.6-0.2,4.5-0.6c0.2-0.1,0.5-0.2,0.9-0.4c0.4-0.2,0.6-0.3,0.6-0.3c0.3,0,0.4,0.3,0.4,1c0,1.3-0.5,2.6-1.5,3.8
			c-0.3,0.3-1.1,0.5-2.2,0.5c-1.1,0-2.8-0.1-5-0.4c-1-0.1-1.5-0.1-1.5,0.3c0,0.2,0.1,0.4,0.3,0.7c2.1,2.5,3.1,5.3,3.1,8.4
			c0,4-1.5,7.5-4.5,10.4c-3,2.9-6.8,4.4-11.3,4.4c-1.5,0-2.8-0.2-4-0.5c-0.3-0.1-0.7-0.1-1,0.2c-0.7,0.4-1.4,0.8-2.1,1.2
			c-0.9,0.6-1.3,1.3-1.3,2.1c0,1,0.3,1.7,1,2c0.4,0.2,1.2,0.4,2.5,0.6c2,0.2,3.8,0.3,5.5,0.3c9.3,0,15.6,1.5,18.9,4.5
			C317.7,150.6,318.8,153.3,318.8,156.7z M314.1,159.1c0-1-0.3-2-1-3.1c-0.9-1.4-2.1-2.5-3.7-3.1c-3.7-1.5-8-2.3-12.9-2.3
			c-4.4,0-7.7,1-9.7,3c-2.2,2.1-3.2,4.5-3.2,7.3c0,2.3,1.1,4.2,3.3,5.6c2.7,1.8,6.4,2.6,11.1,2.6c5.2,0,9.1-1.1,11.9-3.2
			c1.7-1.3,2.7-2.3,3.3-3.1C313.7,161.8,314.1,160.6,314.1,159.1z M305.6,125.8c0-4.4-1-7.6-3.1-9.8c-2.4-2.5-5.1-3.8-8.1-3.8
			c-2.9,0-4.8,0.7-5.8,2.2c-1.2,1.9-1.8,4.2-1.8,7.1c0,3.6,0.6,6.6,1.8,8.9c2,3.7,4.9,5.6,8.8,5.6c2.7,0,4.7-0.8,5.9-2.4
			C304.9,131.7,305.6,129.1,305.6,125.8z"/>
		<path id="XMLID_10_" class="st0" d="M355.8,143.3c0,0.1,0,0.1-0.1,0.3c-0.9,0.9-1.6,1.5-2.2,2c-1.1,0.7-2.5,1.5-4.3,2.3
			c-2.9,1.3-6,1.9-9.4,1.9c-5,0-9-1.5-12-4.4c-3.6-3.6-5.4-8-5.4-13.2c0-3.7,0.2-6.4,0.6-8.2c1-4.2,2.7-7.6,5.3-10
			c2.9-2.9,6.5-4.3,10.8-4.3c2.1,0,3.7,0.3,5,1c1,0.5,2.7,1.5,4.9,3.2c2.7,1.9,4.5,3.9,5.4,5.9c0.2,0.5,0.3,1,0.3,1.3
			c0,0.3-0.3,0.6-0.8,0.8c-1.1,0.4-4.3,1.1-9.5,2.1c-6,1.1-10,1.7-12,1.7c-0.2,0-0.8,0-2,0c-1.2,0-1.9,0-2.1,0c-0.3,0-0.5,0.7-0.5,2
			c0,5.9,2.1,10.7,6.4,14.4c2.3,2,6.1,3,11.4,3c2.7,0,4.9-0.3,6.7-0.9c1.2-0.4,2.1-0.8,2.5-1.3c0.1-0.1,0.2-0.1,0.4-0.2
			c0.1,0,0.3,0.1,0.3,0.3C355.7,143,355.7,143.2,355.8,143.3z M347.8,120.5c0-0.2-0.1-0.6-0.4-1.1c-1.2-2.2-2.8-4-4.6-5.4
			c-1.9-1.4-4-2.1-6.4-2.1c-1.8,0-3.5,1.1-5.2,3.3c-0.6,0.8-1.2,2.1-1.9,3.8c-0.7,1.9-1.1,3.3-1.1,4.3c0,0.5,0.2,0.7,0.5,0.7
			c-0.3,0,2.2-0.2,7.3-0.6c4.9-0.4,8.6-1.1,11.1-2C347.6,121.1,347.8,120.8,347.8,120.5z"/>
		<path id="XMLID_13_" class="st0" d="M403,148.6c0,0.3-0.1,0.5-0.3,0.5h-18c-0.3,0-0.4-0.1-0.4-0.3v-1.5c0-0.3,0.1-0.4,0.4-0.4h4.6
			c0.4,0,0.6-0.2,0.8-0.7c0.4-3,0.6-9.6,0.6-19.9c0-4.8-0.7-7.9-2.2-9.3c-1.5-1.4-3.7-2.1-6.7-2.1c-3.8,0-7,0.9-9.4,2.6
			c-0.4,0.3-0.6,0.6-0.6,1.1c-0.2,1.2-0.3,7.7-0.3,19.3c0,6,0.4,8.9,1.3,8.9h5.9c0.3,0,0.4,0.1,0.4,0.4v1.5c0,0.2-0.1,0.3-0.4,0.3
			h-19.2c-0.1,0-0.2,0-0.3-0.1c-0.1-0.1-0.1-0.2-0.1-0.4v-1.4c0-0.2,0.1-0.3,0.4-0.3h5.4c0.4,0,0.6-0.3,0.6-0.8
			c0-0.2,0-4.7,0.1-13.6c0.1-8.9,0.1-13.6,0.1-14.1c0-4.2-0.4-6.4-1.3-6.4h-5.2c-0.3,0-0.5-0.2-0.5-0.6v-1.3c0-0.3,0.1-0.4,0.3-0.4
			h5.5c0.3,0,1.1,0,2.2-0.1c1.2-0.1,1.8-0.1,1.9-0.1c0.3,0,0.7-0.1,1.3-0.2c0.6-0.1,1-0.2,1.2-0.2c0.4,0,0.6,0.3,0.6,1
			c0,0.1,0,0.9-0.1,2.2c-0.1,1.3-0.1,2.1-0.1,2.3c0,0.9,0.2,1.2,0.5,0.8c2.4-2,4.8-3.5,7.1-4.5c2.2-0.9,4.2-1.4,6.2-1.4
			c3,0,5.6,1,7.6,3c2.2,2.1,3.2,6,3.2,11.8c0,1.9-0.1,5.1-0.3,9.7c-0.2,4.5-0.3,6.8-0.3,6.7c0,4.2,0.3,6.2,0.9,6.2h5.9
			c0.3,0,0.5,0.1,0.5,0.3V148.6z"/>
		<path id="XMLID_15_" class="st0" d="M450.8,144.1c0,0.5-0.1,0.8-0.3,0.9c-2.2,0.7-5.4,2-9.4,3.8c-2.4,1.1-3.5,1.7-3.4,1.7
			c-0.4,0-0.6-0.3-0.6-1c0-0.2,0-0.9,0.1-1.9c0.1-1.1,0.1-1.7,0.1-1.9c0-0.9-0.1-1.8-0.2-2.6c-0.1-0.5-0.5-0.6-0.9-0.4
			c-1.7,1.3-3.6,2.7-5.9,4.4c-2.6,1.7-5.7,2.5-9.5,2.5c-2.4,0-4.4-0.5-6-1.4c-2.6-1.5-4.5-3.6-5.8-6.5c-1.6-3.7-2.4-7.6-2.4-11.7
			c0-7,1.8-12.3,5.3-15.8c3.1-3,7-4.6,11.8-4.6c2.6,0,4.9,0.4,6.9,1.1c1.1,0.4,2.9,1.3,5.4,2.7c0.4,0.3,0.6,0,0.6-0.8
			c0-0.3,0-3-0.1-8.1c-0.1-5.1-0.1-7.9-0.1-8.3c0-5-0.6-7.6-1.7-7.6h-5.9c-0.3,0-0.5-0.2-0.5-0.5v-1.1c0-0.4,0.2-0.6,0.5-0.6h2
			c3.7,0,6.8-0.5,9.2-1.5c1.5-0.6,2.3-0.9,2.3-0.9c0.3,0,0.5,0.4,0.5,1.1c0,0.1,0,1.9-0.1,5.4c-0.1,3.5-0.1,5.6-0.1,6.3v40.1
			c0,5.7,0.6,8.3,1.7,8c2-0.7,3.5-1.2,4.3-1.5c1-0.4,1.6-0.6,1.8-0.6C450.7,143,450.8,143.3,450.8,144.1z M437.1,138.4
			c0,0.3,0-1.2,0-4.4c0-3.2,0-6,0-8.5c0-3.7-0.2-6.6-0.7-8.9c-0.2-0.8-0.6-1.4-1.3-1.8c-3-1.6-6.5-2.4-10.5-2.4c-4,0-7,1.2-9,3.5
			c-2.5,2.9-3.8,7.2-3.8,12.7c0,2.2,0.4,4.4,1.2,6.8c0.7,2.1,1.4,3.6,2.2,4.5c1.4,1.7,2.7,2.9,3.9,3.5c1.4,0.7,3.4,1,6.1,1
			c4,0,7.8-1.3,11.4-3.9C436.9,140.1,437.1,139.4,437.1,138.4z"/>
		<path id="XMLID_18_" class="st0" d="M487.7,146.3c0,0.1-0.1,0.3-0.2,0.6c-1.6,1.6-2.8,2.7-3.5,3.1c-0.3,0.2-0.5,0.3-0.8,0.3
			c-1.7,0-3.3-0.8-5-2.3c-1.5-1.5-2.7-3.2-3.4-5.2c-0.2-0.5-0.4-0.6-0.7-0.2c-0.3,0.5-1.1,1.3-2.4,2.5c-1.3,1.2-2.2,1.9-2.7,2.2
			c-2.8,1.6-5.3,2.4-7.6,2.4c-2.2,0-3.8-0.4-4.8-1.1c-1.6-1.2-2.4-3-2.4-5.3c0-2.8,0.9-5.4,2.6-7.9c1.3-1.8,3.2-3.2,5.9-4.4
			c2.9-1.3,6.7-2.4,11.5-3.3c0.3-0.1,0.4-0.4,0.4-0.9c0.2-4.4,0.2-7.3,0-8.8c-0.2-1.5-0.8-2.6-2-3.4c-1.1-0.7-2.7-1.1-4.8-1.1
			c-2.9,0-5,0.4-6.2,1.1c-0.7,0.5-1,1-0.9,1.5v1.2c0,1.3-0.3,2.4-1,3.3c-1,1.6-2.2,2.4-3.6,2.4c-1,0-1.5-0.7-1.5-2
			c0-1.1,0.6-2.5,1.9-4.1c1.3-1.7,2.7-2.9,4.2-3.9c2.8-1.7,6.5-2.5,11.4-2.5c3.2,0,5.5,0.7,6.9,2c1.1,1,1.6,3,1.6,6.1
			c0,2.2-0.1,5.6-0.4,10.2c-0.3,4.5-0.4,7.1-0.4,7.7c0,2.8,0.7,5.1,2.2,6.8c1.1,1.2,2.7,2.2,4.9,2.8
			C487.5,145.9,487.7,146.1,487.7,146.3z M474.5,130.3c0-0.5-0.2-0.8-0.7-0.8c-2.2,0-4.7,0.6-7.4,1.8c-4.6,2.1-6.9,4.9-6.9,8.4
			c0,2.2,0.5,3.6,1.6,4.4c0.9,0.7,2.3,1.1,4.2,1.1c2.6,0,5.1-1.1,7.6-3.3c0.7-0.6,1.1-1.3,1.2-2.2
			C474.3,136.3,474.5,133.2,474.5,130.3z"/>
		<path id="XMLID_31_" class="st0" d="M554.7,144.1c0,0.5-0.1,0.8-0.3,0.9c-2.2,0.7-5.4,2-9.4,3.8c-2.4,1.1-3.5,1.7-3.4,1.7
			c-0.4,0-0.6-0.3-0.6-1c0-0.2,0-0.9,0.1-1.9c0.1-1.1,0.1-1.7,0.1-1.9c0-0.9-0.1-1.8-0.2-2.6c-0.1-0.5-0.5-0.6-0.9-0.4
			c-1.7,1.3-3.6,2.7-5.9,4.4c-2.6,1.7-5.7,2.5-9.5,2.5c-2.4,0-4.4-0.5-6-1.4c-2.6-1.5-4.5-3.6-5.8-6.5c-1.6-3.7-2.4-7.6-2.4-11.7
			c0-7,1.8-12.3,5.3-15.8c3.1-3,7-4.6,11.8-4.6c2.6,0,4.9,0.4,6.9,1.1c1.1,0.4,2.9,1.3,5.4,2.7c0.4,0.3,0.6,0,0.6-0.8
			c0-0.3,0-3-0.1-8.1c-0.1-5.1-0.1-7.9-0.1-8.3c0-5-0.6-7.6-1.7-7.6h-5.9c-0.3,0-0.5-0.2-0.5-0.5v-1.1c0-0.4,0.2-0.6,0.5-0.6h2
			c3.7,0,6.8-0.5,9.2-1.5c1.5-0.6,2.3-0.9,2.3-0.9c0.3,0,0.5,0.4,0.5,1.1c0,0.1,0,1.9-0.1,5.4c-0.1,3.5-0.1,5.6-0.1,6.3v40.1
			c0,5.7,0.6,8.3,1.7,8c2-0.7,3.5-1.2,4.3-1.5c1-0.4,1.6-0.6,1.8-0.6C554.6,143,554.7,143.3,554.7,144.1z M541,138.4
			c0,0.3,0-1.2,0-4.4c0-3.2,0-6,0-8.5c0-3.7-0.2-6.6-0.7-8.9c-0.2-0.8-0.6-1.4-1.3-1.8c-3-1.6-6.5-2.4-10.5-2.4c-4,0-7,1.2-9,3.5
			c-2.5,2.9-3.8,7.2-3.8,12.7c0,2.2,0.4,4.4,1.2,6.8c0.7,2.1,1.4,3.6,2.2,4.5c1.4,1.7,2.7,2.9,3.9,3.5c1.4,0.7,3.4,1,6.1,1
			c4,0,7.8-1.3,11.4-3.9C540.8,140.1,541,139.4,541,138.4z"/>
		<path id="XMLID_39_" class="st0" d="M590.4,143.3c0,0.1,0,0.1-0.1,0.3c-0.9,0.9-1.6,1.5-2.2,2c-1.1,0.7-2.5,1.5-4.3,2.3
			c-2.9,1.3-6,1.9-9.4,1.9c-5,0-9-1.5-12-4.4c-3.6-3.6-5.4-8-5.4-13.2c0-3.7,0.2-6.4,0.6-8.2c1-4.2,2.7-7.6,5.3-10
			c2.9-2.9,6.5-4.3,10.8-4.3c2,0,3.7,0.3,5,1c1,0.5,2.7,1.5,4.9,3.2c2.7,1.9,4.5,3.9,5.4,5.9c0.2,0.5,0.3,1,0.3,1.3
			c0,0.3-0.3,0.6-0.8,0.8c-1.1,0.4-4.3,1.1-9.5,2.1c-6,1.1-10,1.7-12,1.7c-0.2,0-0.8,0-2,0c-1.2,0-1.9,0-2.1,0c-0.3,0-0.5,0.7-0.5,2
			c0,5.9,2.1,10.7,6.4,14.4c2.3,2,6.1,3,11.4,3c2.7,0,4.9-0.3,6.7-0.9c1.2-0.4,2.1-0.8,2.5-1.3c0.1-0.1,0.2-0.1,0.4-0.2
			c0.1,0,0.3,0.1,0.3,0.3C590.3,143,590.4,143.2,590.4,143.3z M582.4,120.5c0-0.2-0.1-0.6-0.4-1.1c-1.2-2.2-2.8-4-4.6-5.4
			c-1.9-1.4-4-2.1-6.4-2.1c-1.8,0-3.5,1.1-5.2,3.3c-0.6,0.8-1.2,2.1-1.9,3.8c-0.7,1.9-1.1,3.3-1.1,4.3c0,0.5,0.2,0.7,0.5,0.7
			c-0.3,0,2.2-0.2,7.3-0.6c4.9-0.4,8.6-1.1,11.1-2C582.2,121.1,582.4,120.8,582.4,120.5z"/>
		<path id="XMLID_43_" class="st0" d="M633.3,148.7c0,0.2-0.2,0.3-0.5,0.3h-21.2c-0.4,0-0.6-0.1-0.6-0.4v-1.5c0-0.3,0.2-0.5,0.5-0.5
			h7c0.6,0,0.9-0.3,0.9-1V98.2c0-6.3-0.6-9.5-1.7-9.5h-5.3c-0.3,0-0.5-0.2-0.5-0.5v-1.4c0-0.4,0.1-0.6,0.3-0.6h3.3
			c2,0,4.1-0.3,6.3-0.9c2.2-0.6,3.2-0.9,2.9-0.9c0.5,0,0.8,0.4,0.8,1.2c0,0.1-0.1,8.5-0.3,25.3c-0.2,16.8-0.3,25.5-0.3,26.1
			c0,6.3,0.5,9.5,1.6,9.5h6.2c0.3,0,0.5,0.1,0.5,0.4V148.7z"/>
		<path id="XMLID_45_" class="st0" d="M671.3,146.3c0,0.1-0.1,0.3-0.2,0.6c-1.6,1.6-2.8,2.7-3.5,3.1c-0.3,0.2-0.5,0.3-0.8,0.3
			c-1.7,0-3.3-0.8-5-2.3c-1.5-1.5-2.7-3.2-3.4-5.2c-0.2-0.5-0.4-0.6-0.7-0.2c-0.3,0.5-1.1,1.3-2.4,2.5c-1.3,1.2-2.2,1.9-2.7,2.2
			c-2.8,1.6-5.3,2.4-7.6,2.4c-2.2,0-3.8-0.4-4.8-1.1c-1.6-1.2-2.4-3-2.4-5.3c0-2.8,0.9-5.4,2.6-7.9c1.3-1.8,3.2-3.2,5.9-4.4
			c2.9-1.3,6.7-2.4,11.5-3.3c0.3-0.1,0.4-0.4,0.4-0.9c0.2-4.4,0.2-7.3,0-8.8c-0.2-1.5-0.8-2.6-2-3.4c-1.1-0.7-2.7-1.1-4.8-1.1
			c-2.9,0-5,0.4-6.2,1.1c-0.7,0.5-1,1-0.9,1.5v1.2c0,1.3-0.3,2.4-1,3.3c-1,1.6-2.2,2.4-3.6,2.4c-1,0-1.5-0.7-1.5-2
			c0-1.1,0.6-2.5,1.9-4.1c1.3-1.7,2.7-2.9,4.2-3.9c2.8-1.7,6.5-2.5,11.4-2.5c3.2,0,5.5,0.7,6.9,2c1.1,1,1.6,3,1.6,6.1
			c0,2.2-0.1,5.6-0.4,10.2c-0.3,4.5-0.4,7.1-0.4,7.7c0,2.8,0.7,5.1,2.2,6.8c1.1,1.2,2.7,2.2,4.9,2.8
			C671.1,145.9,671.3,146.1,671.3,146.3z M658.1,130.3c0-0.5-0.2-0.8-0.7-0.8c-2.2,0-4.7,0.6-7.4,1.8c-4.6,2.1-6.9,4.9-6.9,8.4
			c0,2.2,0.5,3.6,1.6,4.4c0.9,0.7,2.3,1.1,4.2,1.1c2.6,0,5.1-1.1,7.6-3.3c0.7-0.6,1.1-1.3,1.2-2.2
			C658,136.3,658.1,133.2,658.1,130.3z"/>
	</g>
</g>
</svg>
