<?xml version="1.0" encoding="utf-8"?>
<!-- Generator: Adobe Illustrator 19.0.0, SVG Export Plug-In . SVG Version: 6.00 Build 0)  -->
<svg version="1.1" id="Capa_1" xmlns="http://www.w3.org/2000/svg" xmlns:xlink="http://www.w3.org/1999/xlink" x="0px" y="0px"
	 viewBox="905.5 -25 900 950" style="enable-background:new 905.5 -25 900 950;" xml:space="preserve">
<style type="text/css">
	.st0{fill:#7D272D;}
	.st1{fill:#FFFFFF;}
	.st2{fill-rule:evenodd;clip-rule:evenodd;fill:#7D272D;}
</style>
<g id="XMLID_2_">
	<circle id="XMLID_3_" class="st0" cx="1355.5" cy="450" r="395.2"/>
</g>
<g>
	<path class="st1" d="M1041.3,275.2c0.2,0.4,1,2,1.2,2.3l1.1-0.5C1042.4,276.6,1041.6,275.8,1041.3,275.2z"/>
	<path class="st1" d="M1707.6,541.5l-27.2-2.8l-38.6,11l-14.7,9.2l-3.1,15.7l-3.9,27.2l-22.9,18.3l-15.9,4.3l-5.2,7.8l-13.1,1.2
		l-14.6,6.3l-17.2-8.8l-24.1-6.9l-14.4-27.9l-16.9-19.7l-12.7-25l-4.5-20.2l3-5.9l-0.9-55.9l7.6-5.5l4.9-19.8L1446,441l-20.4-9
		l-11.9-29.9l-6.3-2.4l-23.5-40.7l-5.3-3.4l-5.5-7l-12.4-3.5l-22.9,6.4l-8.2,14.8l-26.1-15.3l-5.3-20.8l-8.3-8.3l-4.2-2.3L1252,289
		l-32.8-0.3v9.7h-55.1l-72.7-41l4.3-8.4l-64.3,0.4l2.9,11.2l0.5,0.7c2.1,2.9,3.3,6.1,4.7,9.9c0.4,1.2,0.9,2.3,1.3,3.5l0,0l2.9-1.1h0
		l1.4-0.6v1.5v1.7l1-0.5l-2.5,1.3c0,0,0,0,0,0l-1.2,0.6l0.2,0.3c0.7,1.3,1.4,2.5,2,3.8c1.3,2.7,2.6,5.4,3.7,8.2l1.5,3.7
		c3.8,9.3,7.7,18.9,10,28.4c0.4,1.6,0.6,3.5,0.9,5.6c0.6,4.2,1.2,8.2,2.7,11c2.1,3.8,4.4,6.2,7.6,9.6l0.3,0.3c4,4.2,7,7.9,9.4,11.6
		c0.4,0.6,0.7,1.1,1.1,1.7c2,3.2,3.9,6.2,7.1,8.3c2.7,1.8,4.5,5.4,2.5,8.8c-0.4,0.6-0.9,1.2-1.5,1.7l-1.5,1.2l-0.4,2.3l-21.9,5.9
		l36.4,36.4l4-2.5l18.2,14.8l4.4,14.3l-0.5,17.6l13.8,15.9l24.9,21.4l4.4,11.8l5,7.1l9.7-4.9l8-7.3l-2.6-11.9l-24.2-33.5l-11-20.7
		l-5.7-25.2l-9-7.5l-13.7-20.1l-1.8-9.9l-18.9-32.7l-16.8-19.8l0.8-7.2l-4.1-13.2l2.1-14.9l28.1,16.5l6.2,31.7l32.1,51.7l9.6,2.8
		l0.8,9.7l23.1,19.8l3.9,8.4l-3.9,13.9l31.5,28.8l50.5,55.4v11.9l5.6,10.9l3.8,2.3l-2.4,15.9l4.4,26.3l8.5,14.4l19.2,9.4l12.1,14
		l32.5,10.8l5-0.8l20.8,16.5l30.8,13.3l22.6,4l6.8,6l18.4,8.4l16.1,0.9l13.6,5.6l11.1-1.1l18.4-8.4l6.1-5.8l28,4.9l46,36.7l4.6-25.1
		l-2.9-3.7l8.8-14.7l30.1-1.7v-15.6l-15-9.5l0.9-14.9l42-7.6l27.2-9.7l5.3-26.2l-2.1-27l9.4-15.4V541.5z"/>
</g>
<g>
	<path class="st2" d="M1361,487.7c-2-1.2-3.2-5.3-6.2-3.6c0.8,5.8,10.2,13.4,14.8,19.8c5.2-0.3,12.5-1.6,14.7-7.3
		C1377.1,493.2,1367.7,491.9,1361,487.7z"/>
	<path class="st2" d="M1389.2,550c-2.1-4.3-2.8-10.3-3.3-13.3c-0.6-3,0.6-5.9,0.6-5.9s0,0-1.7-0.2c-1.7-0.1-3.5-1.4-5.9-5.6
		c-2.4-4.2-3.6-6.7-6.9-11c-1.1-1.4-1.5-2.7-1.4-3.8c-3-2.8-6.1-5.1-9.1-6.5c-0.5,10.7-0.4,21.3-0.2,31.9c0.3,2.8,0.5,5.5,0.4,7.7
		c-0.1,0.8-0.1,1.8-0.2,2.7c0.2,10.1,0.3,20.1,0,30.3c-0.2,2.5-4.2-3.3-7.1-3.1c-0.1,0-0.3,0-0.5,0.1c0,0,0,0-0.1,0c0,0,0,0,0,0
		c-1.3,0.4-3.8,3.1-12.2,14.4c-10.5,14.1-51,72.2-76,104.7c0,0,68-101.1,79.6-118.5c0.2-0.3,0.5-0.6,0.7-0.9
		c0.9-1.1,2.6-3.1,3.2-4.9c-0.7-2.6-3.8-0.1-4.7-3c-0.8-3.4,9,0.5,11.5-3.1c1.4-1.9,1-11.6,1-15.9c-0.1-6.1-0.5-11.2-0.5-16
		c0-6.7,2.1-26.8-0.1-32.3c-2.9-7.3-14.4-12.7-14.2-19.5c3.2-0.6,7.9,4.9,10.4,1.5c2.7-2.8-0.3-8.1,3.7-12.9
		c3.4,5.7,1.4,13.1,8.2,18.2c6.3,4.7,16,6,22.4,9.2c3.8-2.5,7-7.1,10-12.2c-8.3-16-20.7-30.8-32.7-45.8c-9.1,2.6-18.2,7.5-30.2,13.3
		c-8.3,4.1-24.2,8-27.6,14c-2.1,3.8-0.3,16.6,0.1,21.8c1.4,16,2.7,27.4,3.8,42.7c0.4,5.1,2.7,17.1,1,21.6c-0.1,0.2-0.2,0.6-0.3,1.1
		l-77.3,131.2c12.6,11,26.9,20,42.4,26.9l99.6-121.1c19.7-4.3,33.9-15.4,47.4-36.7c-8.2,1.4-22.6,3.2-25.5,3.2
		C1394.1,554.5,1391.3,554.3,1389.2,550z"/>
	<path class="st2" d="M1400.1,480.6c-0.8,5.2-5.8,8.8-8.1,14c6.7-0.2,12.6-3.9,18.7-6.4c6-2.4,12.8-4.3,18.2-8.2
		c-1.1-4.7-1.9-9-3.5-14.7c-0.8-3.1-3.6-15.8-7.3-14.7c-8.9,2.6-18.2,10.1-27,14.4C1392,470.8,1398.6,475,1400.1,480.6z"/>
	<path class="st2" d="M1388.5,527.9c2.5,0.9,8.8-2.1,12.4-3.3c12.7-4.4,28-8.7,37.2-13.8c-1.5-8.9-4.2-17.5-7.4-26
		c-18.9,7.3-38,14-56.1,24.5C1379.7,514.6,1381.9,525.6,1388.5,527.9z"/>
	<path class="st2" d="M1395.4,549.8c1.8,1,8.4-0.7,12-1.3c12.2-2,27.7-4.3,36.5-7.4c-0.5-8.6-1.5-17-4.3-25
		c-16.5,5.3-33.3,9.4-49.2,16.5C1393.3,537.7,1390.4,547,1395.4,549.8z"/>
	<path class="st2" d="M1416,446.9c0-4.2-1.4-7.6-3.3-12.4c-1-2.6-4.7-12.1-6.5-12c-10.1,0.7-24.3,11-34.9,15.1
		c4,8.1,11,15.4,16.6,23.1C1397.5,456.9,1406.8,452,1416,446.9z"/>
</g>
</svg>
