<?xml version="1.0" encoding="utf-8"?>
<!-- Generator: Adobe Illustrator 19.0.0, SVG Export Plug-In . SVG Version: 6.00 Build 0)  -->
<svg version="1.1" id="Capa_1" xmlns="http://www.w3.org/2000/svg" xmlns:xlink="http://www.w3.org/1999/xlink" x="0px" y="0px"
	 viewBox="0 0 900 950" style="enable-background:new 0 0 900 950;" xml:space="preserve">
<style type="text/css">
	.st0{fill:#EB7F23;}
</style>
<path id="XMLID_28_" class="st0" d="M450,79.8C231.7,79.8,54.8,256.7,54.8,475S231.7,870.2,450,870.2
	c218.3,0,395.2-176.9,395.2-395.2S668.3,79.8,450,79.8z M684.8,622.1c0,23.3-18.9,42.2-42.2,42.2H252.3c-23.3,0-42.2-18.9-42.2-42.2
	V433.9l195.6,48.5v33.7c0,12.9,10.5,23.4,23.4,23.4h36.5c12.9,0,23.4-10.5,23.4-23.4v-33.7l195.7-48.5V622.1z M424.3,509.1v-36.5
	c0-6.6,5.1-11.9,11.4-11.9h23.4c6.3,0,11.4,5.3,11.4,11.9v36.5c0,6.6-5.1,11.9-11.4,11.9h-23.4C429.4,521,424.3,515.7,424.3,509.1z
	 M684.8,417.8l-195.7,48.5v-0.7c0-12.9-10.5-23.4-23.4-23.4h-36.5c-12.9,0-23.4,10.5-23.4,23.4v0.7l-195.6-48.5v-51.5
	c0-23.3,18.9-42.2,42.2-42.2h101.6v-12.8c0-27.8,21-50.5,46.8-50.5h93.4c25.8,0,46.8,22.6,46.8,50.5v12.8h101.7
	c23.3,0,42.2,18.9,42.2,42.2V417.8z"/>
</svg>
