<?xml version="1.0" encoding="utf-8"?>
<!-- Generator: Adobe Illustrator 19.0.0, SVG Export Plug-In . SVG Version: 6.00 Build 0)  -->
<svg version="1.1" id="Capa_1" xmlns="http://www.w3.org/2000/svg" xmlns:xlink="http://www.w3.org/1999/xlink" x="0px" y="0px"
	 viewBox="0 0 504 596" style="enable-background:new 0 0 504 596;" xml:space="preserve">
<style type="text/css">
	.st0{fill:#6D6E70;}
</style>
<path id="XMLID_133_" class="st0" d="M71.8,36.1c0,0-12.7,91.2-17.2,100.9c-4.5,9.7,18.7,15,23.9,33.6c-11.9,8.2-19.4,15-19.4,15
	l-1.5,39.6l3.7,9l-0.7,24.7l5.7,9l-6.4,3.7l-0.7,15.7l11.2,6.7l-4,46.4l-25.1,26.2L52.4,383c0,0,24.7-5.2,47.1,29.2
	c22.4,3.7,33.6-8.2,66.6,22.4c0,17.9,0,29.2,0,29.2s8.2,9.7,0,13.5s12,22.4,12,22.4s-5.2,6,0,15.7c5.2,9.7-9.7,7.5-9.7,7.5l-5.2,12
	l12,15.7c0,0,12.7-1.5,17.9,0c5.2,1.5,5.2-15,12-14.2c6.7,7.5,11.2,7.5,20.2-3.7c7.1-1.6,17.9,18,17.9,18l21.7,7.4
	c0,0,9-17.2,17.9-15c9,2.2,20.9,4.5,20.9,4.5l8.2-6.7l9,4.5l10.5-9.7l29.9-3l3,7.5l13.5-20.9l12.7,6.7l53.1-56.8
	c0,0,24.7-2.2,23.9-7.5c-0.7-5.2,0-35.9,0-35.9l-6-7.5l-0.7-22.4l-3.7-9l-0.7-18.7l11.2-9l-9.7-11.2l9.7-9v-11.2l6-6.7l-9.7-12.7
	l-15,2.2l5.2-26.2l2.2-30.7l-15.7-29.9l6.7-6.7l-3-28.4l6-26.9l13.5-29.2h-14.2c0,0-9,9.7-23.9,14.2c-15,4.5-20.9-20.2-20.9-20.2
	l-19.4-47.1V66.7L363.5,51c0,0-3,8.2-12.7,8.2s-74-1.5-93.5,40.4c-9.3-3.9-6-23.2-6-23.2s0-10.8-10.1-4.1s-17.6,6.7-19.1,20.9
	c-5.6,2.6-19.1-0.4-19.1-0.4s-4.1-3.7-1.5-13.5s-13.8-7.9-13.8-7.9s0.4,7.1-3,7.1c-3.4,0-2.6-10.1-7.1-9.3s-10.8,0.7-11.6,16.1
	s-29.2-5.2-36.6-2.2c-7.5,3-9-7.9-9-7.9l-0.7-10.5l-17.2-17.2L84.2,36.1H71.8z"/>
</svg>
